<svg width="75" height="77" viewBox="0 0 75 77" fill="none" xmlns="http://www.w3.org/2000/svg">
<g clip-path="url(#clip0_3227_4306)">
<path d="M60.6785 23.9949C60.9631 25.8803 59.6618 27.639 57.7715 27.9236C55.8812 28.2082 54.1192 26.9118 53.8362 25.0265C53.5516 23.1411 54.853 21.3824 56.7433 21.0978C58.6319 20.8132 60.3955 22.1096 60.6785 23.9949Z" fill="#F5F5F5"/>
<path d="M59.8641 24.1166C60.0813 25.5529 59.0892 26.8937 57.6497 27.1109C56.2102 27.328 54.8677 26.3393 54.6506 24.903C54.4334 23.4668 55.4254 22.126 56.865 21.9088C58.3045 21.6917 59.6469 22.6804 59.8641 24.1166Z" fill="#EBEBEB"/>
<path d="M59.8526 24.0351C59.8362 24.0384 59.8082 23.9249 59.7358 23.7324C59.6634 23.5399 59.54 23.2652 59.3147 22.9789C59.2011 22.8358 59.0646 22.691 58.8984 22.5578C58.7323 22.4245 58.5398 22.3011 58.321 22.2041C58.2124 22.1547 58.0972 22.1119 57.9771 22.079C57.857 22.0445 57.732 22.0165 57.6037 22.0017C57.4754 21.9853 57.3437 21.977 57.2088 21.9803C57.0756 21.9836 56.939 21.9984 56.8041 22.0215C56.6692 22.0478 56.5376 22.0823 56.4109 22.1267C56.2843 22.1695 56.1642 22.2255 56.049 22.2863C55.9338 22.3472 55.8269 22.4163 55.7265 22.4903C55.6262 22.5644 55.5341 22.645 55.4485 22.7289C55.2774 22.8967 55.1425 23.0809 55.0339 23.2636C54.927 23.4478 54.848 23.6321 54.7937 23.8048C54.6835 24.152 54.667 24.453 54.667 24.6587C54.667 24.8643 54.6819 24.9811 54.667 24.9828C54.6555 24.9844 54.616 24.8742 54.5897 24.6636C54.565 24.453 54.5601 24.1388 54.6572 23.7653C54.7065 23.5794 54.7806 23.3804 54.8891 23.1813C54.9977 22.9822 55.1392 22.7815 55.3185 22.5973C55.4074 22.5051 55.5044 22.4163 55.6114 22.3357C55.7183 22.2534 55.8318 22.1777 55.9552 22.1103C56.0786 22.0445 56.2069 21.9836 56.3435 21.9359C56.48 21.8882 56.6215 21.8504 56.7679 21.8224C56.9144 21.7961 57.0608 21.7829 57.2055 21.778C57.3503 21.7747 57.4918 21.7845 57.6317 21.8043C57.7698 21.8224 57.9047 21.8536 58.0331 21.8931C58.1614 21.931 58.2848 21.9803 58.3999 22.0346C58.6319 22.1432 58.8343 22.2814 59.007 22.4278C59.1781 22.5759 59.3196 22.7355 59.4298 22.8917C59.6536 23.206 59.7605 23.5021 59.8115 23.7078C59.8625 23.915 59.8642 24.0319 59.8526 24.0351Z" fill="#E0E0E0"/>
<path d="M57.7863 26.0198L57.862 26.4722L57.4572 26.5397L57.3849 26.0988C56.9801 26.1415 56.5754 26.079 56.3237 25.9425L56.4652 25.4127C56.6922 25.5295 57.0015 25.5904 57.2977 25.5707L57.1858 24.8945C56.7186 24.86 56.1921 24.7925 56.0967 24.215C56.0259 23.7857 56.276 23.3661 56.9028 23.1885L56.8288 22.7393L57.2335 22.6719L57.3059 23.1128C57.6135 23.0865 57.9212 23.1194 58.1679 23.223L58.0479 23.7544C57.8225 23.6705 57.6004 23.6376 57.3947 23.6458L57.5082 24.3335C57.9738 24.3648 58.4937 24.4322 58.5875 25.0031C58.6566 25.4242 58.4098 25.8388 57.7879 26.0214L57.7863 26.0198ZM57.0854 24.299L56.99 23.7248C56.7844 23.8087 56.7186 23.9403 56.7399 24.0736C56.763 24.215 56.8979 24.2726 57.0854 24.299ZM57.9426 25.1594C57.9195 25.0179 57.7896 24.9603 57.6053 24.9291L57.6974 25.4868C57.8916 25.4094 57.9639 25.2893 57.9426 25.1594Z" fill="#E0E0E0"/>
<path d="M64.8871 58.3595C68.0087 57.8118 70.0952 54.8374 69.5476 51.7159C69 48.5943 66.0256 46.5077 62.9041 47.0554C59.7825 47.603 57.6959 50.5774 58.2435 53.6989C58.7911 56.8205 61.7656 58.9071 64.8871 58.3595Z" fill="#16855C"/>
<g opacity="0.1">
<path d="M61.8359 47.3516C58.8779 48.4884 57.4022 51.8083 58.539 54.7664C58.539 54.7664 62.3673 53.4881 62.6898 51.6241C63.0122 49.7601 61.8359 47.3516 61.8359 47.3516Z" fill="white"/>
</g>
<path d="M65.3334 56.7295C67.5846 55.8703 68.7131 53.3488 67.8539 51.0975C66.9947 48.8463 64.4731 47.7179 62.2219 48.5771C59.9707 49.4363 58.8422 51.9578 59.7015 54.209C60.5607 56.4602 63.0822 57.5887 65.3334 56.7295Z" fill="#16855C"/>
<g opacity="0.2">
<path d="M65.3334 56.7295C67.5846 55.8703 68.713 53.3488 67.8538 51.0975C66.9946 48.8463 64.4731 47.7179 62.2219 48.5771C59.9707 49.4363 58.8422 51.9578 59.7014 54.209C60.5606 56.4602 63.0821 57.5887 65.3334 56.7295Z" fill="black"/>
</g>
<path d="M68.03 51.218C68.8838 53.4373 67.7766 55.9265 65.5573 56.7803C63.338 57.6342 60.8488 56.527 59.995 54.3076C59.1411 52.0883 60.2483 49.5991 62.4677 48.7453C64.687 47.8915 67.1761 48.9987 68.03 51.218Z" fill="#16855C"/>
<g opacity="0.2">
<path d="M68.03 51.218C68.8838 53.4373 67.7766 55.9265 65.5573 56.7803C63.338 57.6342 60.8488 56.527 59.995 54.3076C59.1411 52.0883 60.2483 49.5991 62.4677 48.7453C64.687 47.8915 67.1761 48.9987 68.03 51.218Z" fill="white"/>
</g>
<path d="M64.0389 52.3505L63.644 51.3223C63.644 51.3223 63.6473 51.3223 63.649 51.3206C63.8349 51.2729 64.0389 51.2499 64.2495 51.2532C64.4321 51.2729 64.567 51.3157 64.567 51.3157V51.2795L64.5851 50.8485L64.5884 50.7498L64.3317 50.628L64.2593 50.702C63.9912 50.6757 63.7016 50.6856 63.4318 50.7728L63.2146 50.2068L62.9843 50.1328L63.0386 50.2743L62.7968 50.3664L63.0172 50.9422C62.2522 51.3239 62.0499 51.9228 62.2489 52.441C62.5204 53.1484 63.1982 53.0991 63.8151 53.0184L64.2067 54.0368C63.8053 54.1503 63.3676 54.1487 63.0403 54.0417L63.009 54.6439C63.3611 54.7706 63.9089 54.7475 64.4189 54.5863L64.5834 55.0124L64.386 55.093L64.6361 55.1522L65.054 54.991L64.8351 54.4201C65.6034 54.0319 65.8124 53.4363 65.6133 52.9164C65.3419 52.209 64.6558 52.2666 64.0389 52.3472V52.3505ZM63.5799 52.4048C63.2508 52.4311 62.9893 52.4048 62.8955 52.1597C62.8099 51.9359 62.8922 51.6941 63.2311 51.4983L63.5799 52.4048ZM64.6213 53.869L64.2741 52.9674C64.613 52.9362 64.8812 52.9674 64.9783 53.2175C65.0622 53.4363 64.9717 53.6699 64.6213 53.869Z" fill="#16855C"/>
<g opacity="0.3">
<path d="M64.0389 52.3505L63.644 51.3223C63.644 51.3223 63.6473 51.3223 63.649 51.3206C63.8349 51.2729 64.0389 51.2499 64.2495 51.2532C64.4321 51.2729 64.567 51.3157 64.567 51.3157V51.2795L64.5851 50.8485L64.5884 50.7498L64.3317 50.628L64.2593 50.702C63.9912 50.6757 63.7016 50.6856 63.4318 50.7728L63.2146 50.2068L62.9843 50.1328L63.0386 50.2743L62.7968 50.3664L63.0172 50.9422C62.2522 51.3239 62.0499 51.9228 62.2489 52.441C62.5204 53.1484 63.1982 53.0991 63.8151 53.0184L64.2067 54.0368C63.8053 54.1503 63.3676 54.1487 63.0403 54.0417L63.009 54.6439C63.3611 54.7706 63.9089 54.7475 64.4189 54.5863L64.5834 55.0124L64.386 55.093L64.6361 55.1522L65.054 54.991L64.8351 54.4201C65.6034 54.0319 65.8124 53.4363 65.6133 52.9164C65.3419 52.209 64.6558 52.2666 64.0389 52.3472V52.3505ZM63.5799 52.4048C63.2508 52.4311 62.9893 52.4048 62.8955 52.1597C62.8099 51.9359 62.8922 51.6941 63.2311 51.4983L63.5799 52.4048ZM64.6213 53.869L64.2741 52.9674C64.613 52.9362 64.8812 52.9674 64.9783 53.2175C65.0622 53.4363 64.9717 53.6699 64.6213 53.869Z" fill="black"/>
</g>
<path d="M64.6098 54.3494L64.8286 54.9203L64.4107 55.0815L64.1935 54.5156C63.6835 54.6768 63.1357 54.6998 62.7836 54.5731L62.8149 53.971C63.1423 54.0796 63.5815 54.0796 63.983 53.9661L63.5914 52.9477C62.9728 53.0283 62.2967 53.0777 62.0252 52.3686C61.8261 51.8487 62.0285 51.2515 62.7935 50.8698L62.5731 50.294L62.9909 50.1328L63.2081 50.6988C63.5931 50.5737 64.0175 50.5392 64.3614 50.6116L64.3498 51.2055C64.0192 51.1512 63.7 51.1742 63.4187 51.2482L63.8135 52.2765C64.4321 52.1959 65.1165 52.1383 65.3879 52.8457C65.587 53.3656 65.3781 53.9595 64.6098 54.3494ZM63.3545 52.3308L63.0057 51.4243C62.6652 51.62 62.5829 51.8619 62.6701 52.0856C62.7639 52.3308 63.0255 52.3587 63.3545 52.3308ZM64.7545 53.1435C64.6591 52.8934 64.3893 52.8638 64.0504 52.8934L64.3975 53.795C64.748 53.5959 64.8385 53.3623 64.7545 53.1435Z" fill="#16855C"/>
<path d="M60.2994 56.9741C60.2994 56.9741 60.2846 56.9642 60.2582 56.9428C60.2286 56.9181 60.1924 56.8852 60.1464 56.8457C60.097 56.803 60.0394 56.7503 59.9753 56.6845C59.9111 56.6187 59.8354 56.5463 59.7614 56.4591C59.7236 56.4163 59.6841 56.3703 59.6429 56.3226C59.6018 56.2749 59.564 56.2222 59.5212 56.1679C59.4357 56.0626 59.355 55.9409 59.2695 55.8159C59.1033 55.5592 58.9405 55.2647 58.799 54.9423C58.6608 54.6182 58.5604 54.2957 58.488 53.9996C58.4568 53.8499 58.4239 53.7084 58.4058 53.5735C58.3959 53.506 58.3844 53.4419 58.3778 53.3794C58.3712 53.3168 58.3663 53.256 58.3597 53.1984C58.3465 53.0832 58.3466 52.9796 58.3416 52.8875C58.3367 52.7953 58.3383 52.7164 58.3416 52.6522C58.3433 52.5913 58.3465 52.542 58.3482 52.5041C58.3498 52.4696 58.3515 52.4531 58.3531 52.4531C58.3531 52.4531 58.3564 52.4712 58.3564 52.5041C58.3564 52.542 58.3564 52.5913 58.3581 52.6522C58.3581 52.7164 58.3581 52.7953 58.3663 52.8858C58.3729 52.9763 58.3745 53.0799 58.3893 53.1951C58.3959 53.2527 58.4025 53.3119 58.4091 53.3744C58.4156 53.4369 58.4288 53.5011 58.4403 53.5669C58.4584 53.7002 58.493 53.84 58.5259 53.9881C58.5999 54.2826 58.7019 54.6001 58.8385 54.9225C58.9783 55.2433 59.1395 55.5362 59.3024 55.7912C59.3879 55.9162 59.4653 56.038 59.5492 56.1433C59.5903 56.1959 59.6281 56.2502 59.6676 56.2979C59.7088 56.3456 59.7466 56.3917 59.7844 56.4361C59.8568 56.5249 59.9308 56.599 59.9934 56.6648C60.0542 56.7322 60.1118 56.7865 60.1579 56.8309C60.2007 56.8737 60.2369 56.9083 60.2648 56.9346C60.2895 56.9593 60.301 56.9724 60.2994 56.9724V56.9741Z" fill="white"/>
<path d="M62.5352 52.6621C62.5352 52.6621 62.4644 52.6522 62.3723 52.5897C62.2802 52.5288 62.1667 52.412 62.1091 52.2492C62.0531 52.0846 62.0712 51.9234 62.1058 51.8181C62.142 51.7112 62.1864 51.6585 62.1897 51.6602C62.1963 51.6635 62.1601 51.7227 62.1338 51.8264C62.1074 51.9284 62.0959 52.0814 62.1486 52.2344C62.2012 52.3874 62.3048 52.5009 62.3888 52.565C62.4727 52.6308 62.5368 52.6555 62.5352 52.6621Z" fill="white"/>
<path d="M62.8445 50.7522C62.8329 50.7571 62.7951 50.6847 62.7606 50.5926C62.7244 50.5005 62.7046 50.4215 62.7161 50.4182C62.7277 50.4133 62.7655 50.4857 62.8 50.5778C62.8362 50.6699 62.856 50.7489 62.8445 50.7522Z" fill="white"/>
<path d="M62.5401 48.3371C62.5401 48.3371 62.494 48.3552 62.4068 48.3816C62.3641 48.3947 62.3114 48.4095 62.2505 48.4326C62.1897 48.454 62.1206 48.4753 62.0465 48.5082C61.9725 48.5379 61.8903 48.5708 61.8047 48.6119C61.7175 48.6497 61.6303 48.6991 61.5349 48.7468C61.349 48.8504 61.1516 48.9755 60.9574 49.1235C60.7633 49.2732 60.5922 49.4328 60.4442 49.5842C60.3718 49.6632 60.3027 49.7355 60.2434 49.8096C60.1809 49.8803 60.1283 49.9511 60.0806 50.0152C60.0312 50.0777 59.9917 50.1403 59.9555 50.1929C59.9177 50.2455 59.8897 50.2916 59.8667 50.3311C59.819 50.4068 59.791 50.4495 59.7894 50.4479C59.7861 50.4479 59.8091 50.4018 59.8535 50.3229C59.8749 50.2834 59.9012 50.234 59.9374 50.1814C59.972 50.1271 60.0098 50.0646 60.0575 49.9988C60.1036 49.933 60.1562 49.8606 60.2171 49.7882C60.2747 49.7125 60.3454 49.6385 60.4162 49.5579C60.5642 49.4032 60.737 49.242 60.9328 49.089C61.1302 48.9393 61.3293 48.8142 61.5185 48.7106C61.6139 48.6612 61.7044 48.6135 61.7915 48.5773C61.8771 48.5362 61.961 48.505 62.0367 48.477C62.1124 48.4474 62.1831 48.4276 62.244 48.4062C62.3048 48.3865 62.3591 48.3717 62.4019 48.3618C62.4891 48.3404 62.5385 48.3306 62.5401 48.3322V48.3371Z" fill="white"/>
<path d="M66.5 57.5333C66.5 57.5333 66.4704 57.558 66.4145 57.5958C66.3585 57.6336 66.273 57.6846 66.1661 57.7439C65.9522 57.8607 65.6412 57.9989 65.2809 58.0959C64.9207 58.193 64.5834 58.2308 64.3383 58.2374C64.2165 58.2407 64.1178 58.2391 64.0487 58.2341C63.9813 58.2292 63.9434 58.2259 63.9434 58.2226C63.9434 58.2193 63.9813 58.2177 64.0487 58.2177C64.1162 58.2177 64.2149 58.2144 64.335 58.2062C64.5768 58.1913 64.9108 58.1502 65.2678 58.0532C65.6248 57.9561 65.9341 57.8245 66.1496 57.7142C66.2582 57.66 66.3437 57.6122 66.403 57.5793C66.4622 57.5464 66.4951 57.5283 66.4967 57.5316L66.5 57.5333Z" fill="white"/>
<path d="M58.3169 60.5234H70.4649V58.0738H58.3169V60.5234Z" fill="#16855C"/>
<path d="M69.6834 58.1133C69.6538 58.1133 69.6308 58.6447 69.6308 59.3011C69.6308 59.9575 69.6538 60.4889 69.6834 60.4889C69.713 60.4889 69.7361 59.9575 69.7361 59.3011C69.7361 58.6447 69.713 58.1133 69.6834 58.1133Z" fill="#263238"/>
<path d="M68.5564 58.1133C68.5268 58.1133 68.5038 58.6447 68.5038 59.3011C68.5038 59.9575 68.5268 60.4889 68.5564 60.4889C68.586 60.4889 68.6091 59.9575 68.6091 59.3011C68.6091 58.6447 68.586 58.1133 68.5564 58.1133Z" fill="#263238"/>
<path d="M67.4443 58.1133C67.4147 58.1133 67.3917 58.6447 67.3917 59.3011C67.3917 59.9575 67.4147 60.4889 67.4443 60.4889C67.4739 60.4889 67.497 59.9575 67.497 59.3011C67.497 58.6447 67.4739 58.1133 67.4443 58.1133Z" fill="#263238"/>
<path d="M66.3355 58.1133C66.3058 58.1133 66.2828 58.6447 66.2828 59.3011C66.2828 59.9575 66.3058 60.4889 66.3355 60.4889C66.3651 60.4889 66.3881 59.9575 66.3881 59.3011C66.3881 58.6447 66.3651 58.1133 66.3355 58.1133Z" fill="#263238"/>
<path d="M65.2283 58.1133C65.1987 58.1133 65.1757 58.6447 65.1757 59.3011C65.1757 59.9575 65.1987 60.4889 65.2283 60.4889C65.2579 60.4889 65.281 59.9575 65.281 59.3011C65.281 58.6447 65.2579 58.1133 65.2283 58.1133Z" fill="#263238"/>
<path d="M64.1211 58.1133C64.0914 58.1133 64.0684 58.6447 64.0684 59.3011C64.0684 59.9575 64.0914 60.4889 64.1211 60.4889C64.1507 60.4889 64.1737 59.9575 64.1737 59.3011C64.1737 58.6447 64.1507 58.1133 64.1211 58.1133Z" fill="#263238"/>
<path d="M63.0139 58.1133C62.9842 58.1133 62.9612 58.6447 62.9612 59.3011C62.9612 59.9575 62.9842 60.4889 63.0139 60.4889C63.0435 60.4889 63.0665 59.9575 63.0665 59.3011C63.0665 58.6447 63.0435 58.1133 63.0139 58.1133Z" fill="#263238"/>
<path d="M61.9067 58.1133C61.8771 58.1133 61.8541 58.6447 61.8541 59.3011C61.8541 59.9575 61.8771 60.4889 61.9067 60.4889C61.9363 60.4889 61.9594 59.9575 61.9594 59.3011C61.9594 58.6447 61.9363 58.1133 61.9067 58.1133Z" fill="#263238"/>
<path d="M60.7995 58.1133C60.7699 58.1133 60.7469 58.6447 60.7469 59.3011C60.7469 59.9575 60.7699 60.4889 60.7995 60.4889C60.8291 60.4889 60.8521 59.9575 60.8521 59.3011C60.8521 58.6447 60.8291 58.1133 60.7995 58.1133Z" fill="#263238"/>
<path d="M59.6923 58.1133C59.6627 58.1133 59.6396 58.6447 59.6396 59.3011C59.6396 59.9575 59.6627 60.4889 59.6923 60.4889C59.7219 60.4889 59.7449 59.9575 59.7449 59.3011C59.7449 58.6447 59.7219 58.1133 59.6923 58.1133Z" fill="#263238"/>
<path d="M58.5851 58.1133C58.5555 58.1133 58.5325 58.6447 58.5325 59.3011C58.5325 59.9575 58.5555 60.4889 58.5851 60.4889C58.6147 60.4889 58.6378 59.9575 58.6378 59.3011C58.6378 58.6447 58.6147 58.1133 58.5851 58.1133Z" fill="#263238"/>
<g opacity="0.3">
<path d="M70.2691 58.0742C66.477 58.5892 62.2949 58.6073 58.5094 58.0775L70.2691 58.0742Z" fill="black"/>
</g>
<path d="M58.312 58.08C58.312 58.1096 61.0266 58.1326 64.3745 58.1326C67.7224 58.1326 70.4386 58.1096 70.4386 58.08C70.4386 58.0504 67.7241 58.0273 64.3745 58.0273C61.0249 58.0273 58.312 58.0504 58.312 58.08Z" fill="#263238"/>
<path d="M58.0438 62.9297H70.1918V60.48H58.0438V62.9297Z" fill="#16855C"/>
<path d="M69.4104 60.5234C69.3808 60.5234 69.3577 61.0548 69.3577 61.7112C69.3577 62.3677 69.3808 62.8991 69.4104 62.8991C69.44 62.8991 69.463 62.3677 69.463 61.7112C69.463 61.0548 69.44 60.5234 69.4104 60.5234Z" fill="#263238"/>
<path d="M68.2834 60.5234C68.2538 60.5234 68.2308 61.0548 68.2308 61.7112C68.2308 62.3677 68.2538 62.8991 68.2834 62.8991C68.313 62.8991 68.3361 62.3677 68.3361 61.7112C68.3361 61.0548 68.313 60.5234 68.2834 60.5234Z" fill="#263238"/>
<path d="M67.1713 60.5234C67.1417 60.5234 67.1186 61.0548 67.1186 61.7112C67.1186 62.3677 67.1417 62.8991 67.1713 62.8991C67.2009 62.8991 67.2239 62.3677 67.2239 61.7112C67.2239 61.0548 67.2009 60.5234 67.1713 60.5234Z" fill="#263238"/>
<path d="M66.0641 60.5234C66.0345 60.5234 66.0115 61.0548 66.0115 61.7112C66.0115 62.3677 66.0345 62.8991 66.0641 62.8991C66.0937 62.8991 66.1168 62.3677 66.1168 61.7112C66.1168 61.0548 66.0937 60.5234 66.0641 60.5234Z" fill="#263238"/>
<path d="M64.9569 60.5234C64.9272 60.5234 64.9042 61.0548 64.9042 61.7112C64.9042 62.3677 64.9272 62.8991 64.9569 62.8991C64.9865 62.8991 65.0095 62.3677 65.0095 61.7112C65.0095 61.0548 64.9865 60.5234 64.9569 60.5234Z" fill="#263238"/>
<path d="M63.8497 60.5234C63.8201 60.5234 63.797 61.0548 63.797 61.7112C63.797 62.3677 63.8201 62.8991 63.8497 62.8991C63.8793 62.8991 63.9023 62.3677 63.9023 61.7112C63.9023 61.0548 63.8793 60.5234 63.8497 60.5234Z" fill="#263238"/>
<path d="M62.7425 60.5234C62.7129 60.5234 62.6898 61.0548 62.6898 61.7112C62.6898 62.3677 62.7129 62.8991 62.7425 62.8991C62.7721 62.8991 62.7951 62.3677 62.7951 61.7112C62.7951 61.0548 62.7721 60.5234 62.7425 60.5234Z" fill="#263238"/>
<path d="M61.6336 60.5234C61.604 60.5234 61.581 61.0548 61.581 61.7112C61.581 62.3677 61.604 62.8991 61.6336 62.8991C61.6632 62.8991 61.6863 62.3677 61.6863 61.7112C61.6863 61.0548 61.6632 60.5234 61.6336 60.5234Z" fill="#263238"/>
<path d="M60.5264 60.5234C60.4968 60.5234 60.4738 61.0548 60.4738 61.7112C60.4738 62.3677 60.4968 62.8991 60.5264 62.8991C60.556 62.8991 60.5791 62.3677 60.5791 61.7112C60.5791 61.0548 60.556 60.5234 60.5264 60.5234Z" fill="#263238"/>
<path d="M59.4192 60.5234C59.3896 60.5234 59.3666 61.0548 59.3666 61.7112C59.3666 62.3677 59.3896 62.8991 59.4192 62.8991C59.4488 62.8991 59.4719 62.3677 59.4719 61.7112C59.4719 61.0548 59.4488 60.5234 59.4192 60.5234Z" fill="#263238"/>
<path d="M58.312 60.5234C58.2824 60.5234 58.2594 61.0548 58.2594 61.7112C58.2594 62.3677 58.2824 62.8991 58.312 62.8991C58.3416 62.8991 58.3647 62.3677 58.3647 61.7112C58.3647 61.0548 58.3416 60.5234 58.312 60.5234Z" fill="#263238"/>
<g opacity="0.3">
<path d="M69.996 60.4844C66.2039 60.9993 62.0219 61.0174 58.2363 60.4877L69.996 60.4844Z" fill="black"/>
</g>
<path d="M58.0406 60.4901C58.0406 60.5198 60.7551 60.5428 64.1031 60.5428C67.451 60.5428 70.1672 60.5198 70.1672 60.4901C70.1672 60.4605 67.4526 60.4375 64.1031 60.4375C60.7535 60.4375 58.0406 60.4605 58.0406 60.4901Z" fill="#263238"/>
<path d="M59.1955 65.3008H71.3434V62.8511H59.1955V65.3008Z" fill="#16855C"/>
<path d="M70.5636 62.8945C70.534 62.8945 70.511 63.4259 70.511 64.0823C70.511 64.7388 70.534 65.2702 70.5636 65.2702C70.5932 65.2702 70.6162 64.7388 70.6162 64.0823C70.6162 63.4259 70.5932 62.8945 70.5636 62.8945Z" fill="#263238"/>
<path d="M69.4367 62.8945C69.4071 62.8945 69.384 63.4259 69.384 64.0823C69.384 64.7388 69.4071 65.2702 69.4367 65.2702C69.4663 65.2702 69.4893 64.7388 69.4893 64.0823C69.4893 63.4259 69.4663 62.8945 69.4367 62.8945Z" fill="#263238"/>
<path d="M68.3246 62.8945C68.2949 62.8945 68.2719 63.4259 68.2719 64.0823C68.2719 64.7388 68.2949 65.2702 68.3246 65.2702C68.3542 65.2702 68.3772 64.7388 68.3772 64.0823C68.3772 63.4259 68.3542 62.8945 68.3246 62.8945Z" fill="#263238"/>
<path d="M67.2174 62.8945C67.1877 62.8945 67.1647 63.4259 67.1647 64.0823C67.1647 64.7388 67.1877 65.2702 67.2174 65.2702C67.247 65.2702 67.27 64.7388 67.27 64.0823C67.27 63.4259 67.247 62.8945 67.2174 62.8945Z" fill="#263238"/>
<path d="M66.1101 62.8945C66.0805 62.8945 66.0575 63.4259 66.0575 64.0823C66.0575 64.7388 66.0805 65.2702 66.1101 65.2702C66.1398 65.2702 66.1628 64.7388 66.1628 64.0823C66.1628 63.4259 66.1398 62.8945 66.1101 62.8945Z" fill="#263238"/>
<path d="M65.0029 62.8945C64.9733 62.8945 64.9503 63.4259 64.9503 64.0823C64.9503 64.7388 64.9733 65.2702 65.0029 65.2702C65.0325 65.2702 65.0556 64.7388 65.0556 64.0823C65.0556 63.4259 65.0325 62.8945 65.0029 62.8945Z" fill="#263238"/>
<path d="M63.8958 62.8945C63.8661 62.8945 63.8431 63.4259 63.8431 64.0823C63.8431 64.7388 63.8661 65.2702 63.8958 65.2702C63.9254 65.2702 63.9484 64.7388 63.9484 64.0823C63.9484 63.4259 63.9254 62.8945 63.8958 62.8945Z" fill="#263238"/>
<path d="M62.7885 62.8945C62.7589 62.8945 62.7359 63.4259 62.7359 64.0823C62.7359 64.7388 62.7589 65.2702 62.7885 65.2702C62.8182 65.2702 62.8412 64.7388 62.8412 64.0823C62.8412 63.4259 62.8182 62.8945 62.7885 62.8945Z" fill="#263238"/>
<path d="M61.6813 62.8945C61.6517 62.8945 61.6287 63.4259 61.6287 64.0823C61.6287 64.7388 61.6517 65.2702 61.6813 65.2702C61.711 65.2702 61.734 64.7388 61.734 64.0823C61.734 63.4259 61.711 62.8945 61.6813 62.8945Z" fill="#263238"/>
<path d="M60.5741 62.8945C60.5445 62.8945 60.5215 63.4259 60.5215 64.0823C60.5215 64.7388 60.5445 65.2702 60.5741 65.2702C60.6037 65.2702 60.6267 64.7388 60.6267 64.0823C60.6267 63.4259 60.6037 62.8945 60.5741 62.8945Z" fill="#263238"/>
<path d="M59.4653 62.8945C59.4357 62.8945 59.4127 63.4259 59.4127 64.0823C59.4127 64.7388 59.4357 65.2702 59.4653 65.2702C59.4949 65.2702 59.518 64.7388 59.518 64.0823C59.518 63.4259 59.4949 62.8945 59.4653 62.8945Z" fill="#263238"/>
<g opacity="0.3">
<path d="M71.1493 62.8555C67.3572 63.3704 63.1752 63.3885 59.3896 62.8588L71.1493 62.8555Z" fill="black"/>
</g>
<path d="M59.1938 62.8612C59.1938 62.8909 61.9084 62.9139 65.2563 62.9139C68.6042 62.9139 71.3204 62.8909 71.3204 62.8612C71.3204 62.8316 68.6059 62.8086 65.2563 62.8086C61.9067 62.8086 59.1938 62.8316 59.1938 62.8612Z" fill="#263238"/>
<path d="M57.7741 67.6406H69.9221V65.2847H57.7741V67.6406Z" fill="#16855C"/>
<path d="M69.1406 65.3242C69.111 65.3242 69.088 65.8359 69.088 66.466C69.088 67.0961 69.111 67.6077 69.1406 67.6077C69.1702 67.6077 69.1933 67.0961 69.1933 66.466C69.1933 65.8359 69.1702 65.3242 69.1406 65.3242Z" fill="#263238"/>
<path d="M68.0136 65.3242C67.984 65.3242 67.961 65.8359 67.961 66.466C67.961 67.0961 67.984 67.6077 68.0136 67.6077C68.0433 67.6077 68.0663 67.0961 68.0663 66.466C68.0663 65.8359 68.0433 65.3242 68.0136 65.3242Z" fill="#263238"/>
<path d="M66.9015 65.3242C66.8719 65.3242 66.8489 65.8359 66.8489 66.466C66.8489 67.0961 66.8719 67.6077 66.9015 67.6077C66.9311 67.6077 66.9542 67.0961 66.9542 66.466C66.9542 65.8359 66.9311 65.3242 66.9015 65.3242Z" fill="#263238"/>
<path d="M65.7943 65.3242C65.7647 65.3242 65.7417 65.8359 65.7417 66.466C65.7417 67.0961 65.7647 67.6077 65.7943 67.6077C65.8239 67.6077 65.847 67.0961 65.847 66.466C65.847 65.8359 65.8239 65.3242 65.7943 65.3242Z" fill="#263238"/>
<path d="M64.6871 65.3242C64.6575 65.3242 64.6345 65.8359 64.6345 66.466C64.6345 67.0961 64.6575 67.6077 64.6871 67.6077C64.7167 67.6077 64.7397 67.0961 64.7397 66.466C64.7397 65.8359 64.7167 65.3242 64.6871 65.3242Z" fill="#263238"/>
<path d="M63.5799 65.3242C63.5503 65.3242 63.5273 65.8359 63.5273 66.466C63.5273 67.0961 63.5503 67.6077 63.5799 67.6077C63.6095 67.6077 63.6326 67.0961 63.6326 66.466C63.6326 65.8359 63.6095 65.3242 63.5799 65.3242Z" fill="#263238"/>
<path d="M62.4727 65.3242C62.4431 65.3242 62.4201 65.8359 62.4201 66.466C62.4201 67.0961 62.4431 67.6077 62.4727 67.6077C62.5023 67.6077 62.5254 67.0961 62.5254 66.466C62.5254 65.8359 62.5023 65.3242 62.4727 65.3242Z" fill="#263238"/>
<path d="M61.3655 65.3242C61.3359 65.3242 61.3129 65.8359 61.3129 66.466C61.3129 67.0961 61.3359 67.6077 61.3655 67.6077C61.3951 67.6077 61.4182 67.0961 61.4182 66.466C61.4182 65.8359 61.3951 65.3242 61.3655 65.3242Z" fill="#263238"/>
<path d="M60.2583 65.3242C60.2287 65.3242 60.2057 65.8359 60.2057 66.466C60.2057 67.0961 60.2287 67.6077 60.2583 67.6077C60.2879 67.6077 60.311 67.0961 60.311 66.466C60.311 65.8359 60.2879 65.3242 60.2583 65.3242Z" fill="#263238"/>
<path d="M59.1495 65.3242C59.1199 65.3242 59.0968 65.8359 59.0968 66.466C59.0968 67.0961 59.1199 67.6077 59.1495 67.6077C59.1791 67.6077 59.2021 67.0961 59.2021 66.466C59.2021 65.8359 59.1791 65.3242 59.1495 65.3242Z" fill="#263238"/>
<path d="M58.0423 65.3242C58.0127 65.3242 57.9896 65.8359 57.9896 66.466C57.9896 67.0961 58.0127 67.6077 58.0423 67.6077C58.0719 67.6077 58.0949 67.0961 58.0949 66.466C58.0949 65.8359 58.0719 65.3242 58.0423 65.3242Z" fill="#263238"/>
<g opacity="0.3">
<path d="M69.7263 65.2852C65.9342 65.9432 61.7522 65.9663 57.9666 65.2884L69.7263 65.2852Z" fill="black"/>
</g>
<path d="M57.7708 65.2909C57.7708 65.3205 60.4853 65.3436 63.8333 65.3436C67.1812 65.3436 69.8974 65.3205 69.8974 65.2909C69.8974 65.2613 67.1828 65.2383 63.8333 65.2383C60.4837 65.2383 57.7708 65.2613 57.7708 65.2909Z" fill="#263238"/>
<path d="M58.5555 69.9961H70.7035V67.6402H58.5555V69.9961Z" fill="#16855C"/>
<path d="M69.9221 67.6797C69.8924 67.6797 69.8694 68.1913 69.8694 68.8214C69.8694 69.4515 69.8924 69.9632 69.9221 69.9632C69.9517 69.9632 69.9747 69.4515 69.9747 68.8214C69.9747 68.1913 69.9517 67.6797 69.9221 67.6797Z" fill="#263238"/>
<path d="M68.7951 67.6797C68.7655 67.6797 68.7424 68.1913 68.7424 68.8214C68.7424 69.4515 68.7655 69.9632 68.7951 69.9632C68.8247 69.9632 68.8477 69.4515 68.8477 68.8214C68.8477 68.1913 68.8247 67.6797 68.7951 67.6797Z" fill="#263238"/>
<path d="M67.683 67.6797C67.6534 67.6797 67.6303 68.1913 67.6303 68.8214C67.6303 69.4515 67.6534 69.9632 67.683 69.9632C67.7126 69.9632 67.7356 69.4515 67.7356 68.8214C67.7356 68.1913 67.7126 67.6797 67.683 67.6797Z" fill="#263238"/>
<path d="M66.5741 67.6797C66.5445 67.6797 66.5215 68.1913 66.5215 68.8214C66.5215 69.4515 66.5445 69.9632 66.5741 69.9632C66.6037 69.9632 66.6267 69.4515 66.6267 68.8214C66.6267 68.1913 66.6037 67.6797 66.5741 67.6797Z" fill="#263238"/>
<path d="M65.4669 67.6797C65.4373 67.6797 65.4142 68.1913 65.4142 68.8214C65.4142 69.4515 65.4373 69.9632 65.4669 69.9632C65.4965 69.9632 65.5195 69.4515 65.5195 68.8214C65.5195 68.1913 65.4965 67.6797 65.4669 67.6797Z" fill="#263238"/>
<path d="M64.3597 67.6797C64.3301 67.6797 64.3071 68.1913 64.3071 68.8214C64.3071 69.4515 64.3301 69.9632 64.3597 69.9632C64.3894 69.9632 64.4124 69.4515 64.4124 68.8214C64.4124 68.1913 64.3894 67.6797 64.3597 67.6797Z" fill="#263238"/>
<path d="M63.2525 67.6797C63.2229 67.6797 63.1999 68.1913 63.1999 68.8214C63.1999 69.4515 63.2229 69.9632 63.2525 69.9632C63.2821 69.9632 63.3051 69.4515 63.3051 68.8214C63.3051 68.1913 63.2821 67.6797 63.2525 67.6797Z" fill="#263238"/>
<path d="M62.1453 67.6797C62.1157 67.6797 62.0927 68.1913 62.0927 68.8214C62.0927 69.4515 62.1157 69.9632 62.1453 69.9632C62.1749 69.9632 62.1979 69.4515 62.1979 68.8214C62.1979 68.1913 62.1749 67.6797 62.1453 67.6797Z" fill="#263238"/>
<path d="M61.0381 67.6797C61.0085 67.6797 60.9855 68.1913 60.9855 68.8214C60.9855 69.4515 61.0085 69.9632 61.0381 69.9632C61.0677 69.9632 61.0908 69.4515 61.0908 68.8214C61.0908 68.1913 61.0677 67.6797 61.0381 67.6797Z" fill="#263238"/>
<path d="M59.9309 67.6797C59.9013 67.6797 59.8783 68.1913 59.8783 68.8214C59.8783 69.4515 59.9013 69.9632 59.9309 69.9632C59.9605 69.9632 59.9836 69.4515 59.9836 68.8214C59.9836 68.1913 59.9605 67.6797 59.9309 67.6797Z" fill="#263238"/>
<path d="M58.8237 67.6797C58.7941 67.6797 58.7711 68.1913 58.7711 68.8214C58.7711 69.4515 58.7941 69.9632 58.8237 69.9632C58.8533 69.9632 58.8764 69.4515 58.8764 68.8214C58.8764 68.1913 58.8533 67.6797 58.8237 67.6797Z" fill="#263238"/>
<g opacity="0.3">
<path d="M70.5077 67.6406C66.7156 68.3859 62.5336 68.4106 58.748 67.6439L70.5077 67.6406Z" fill="black"/>
</g>
<path d="M58.5506 67.6464C58.5506 67.676 61.2651 67.699 64.6131 67.699C67.961 67.699 70.6772 67.676 70.6772 67.6464C70.6772 67.6168 67.9626 67.5938 64.6131 67.5938C61.2635 67.5938 58.5506 67.6168 58.5506 67.6464Z" fill="#263238"/>
<path d="M57.8613 72.3242H70.0093V69.9683H57.8613V72.3242Z" fill="#16855C"/>
<path d="M69.2278 70.0039C69.1982 70.0039 69.1752 70.5156 69.1752 71.1457C69.1752 71.7758 69.1982 72.2874 69.2278 72.2874C69.2574 72.2874 69.2805 71.7758 69.2805 71.1457C69.2805 70.5156 69.2574 70.0039 69.2278 70.0039Z" fill="#263238"/>
<path d="M68.1009 70.0039C68.0712 70.0039 68.0482 70.5156 68.0482 71.1457C68.0482 71.7758 68.0712 72.2874 68.1009 72.2874C68.1305 72.2874 68.1535 71.7758 68.1535 71.1457C68.1535 70.5156 68.1305 70.0039 68.1009 70.0039Z" fill="#263238"/>
<path d="M66.9887 70.0039C66.9591 70.0039 66.936 70.5156 66.936 71.1457C66.936 71.7758 66.9591 72.2874 66.9887 72.2874C67.0183 72.2874 67.0413 71.7758 67.0413 71.1457C67.0413 70.5156 67.0183 70.0039 66.9887 70.0039Z" fill="#263238"/>
<path d="M65.8815 70.0039C65.8519 70.0039 65.8289 70.5156 65.8289 71.1457C65.8289 71.7758 65.8519 72.2874 65.8815 72.2874C65.9111 72.2874 65.9342 71.7758 65.9342 71.1457C65.9342 70.5156 65.9111 70.0039 65.8815 70.0039Z" fill="#263238"/>
<path d="M64.7743 70.0039C64.7447 70.0039 64.7216 70.5156 64.7216 71.1457C64.7216 71.7758 64.7447 72.2874 64.7743 72.2874C64.8039 72.2874 64.8269 71.7758 64.8269 71.1457C64.8269 70.5156 64.8039 70.0039 64.7743 70.0039Z" fill="#263238"/>
<path d="M63.6671 70.0039C63.6375 70.0039 63.6145 70.5156 63.6145 71.1457C63.6145 71.7758 63.6375 72.2874 63.6671 72.2874C63.6968 72.2874 63.7198 71.7758 63.7198 71.1457C63.7198 70.5156 63.6968 70.0039 63.6671 70.0039Z" fill="#263238"/>
<path d="M62.5583 70.0039C62.5287 70.0039 62.5056 70.5156 62.5056 71.1457C62.5056 71.7758 62.5287 72.2874 62.5583 72.2874C62.5879 72.2874 62.6109 71.7758 62.6109 71.1457C62.6109 70.5156 62.5879 70.0039 62.5583 70.0039Z" fill="#263238"/>
<path d="M61.4511 70.0039C61.4215 70.0039 61.3984 70.5156 61.3984 71.1457C61.3984 71.7758 61.4215 72.2874 61.4511 72.2874C61.4807 72.2874 61.5037 71.7758 61.5037 71.1457C61.5037 70.5156 61.4807 70.0039 61.4511 70.0039Z" fill="#263238"/>
<path d="M60.3439 70.0039C60.3143 70.0039 60.2913 70.5156 60.2913 71.1457C60.2913 71.7758 60.3143 72.2874 60.3439 72.2874C60.3735 72.2874 60.3966 71.7758 60.3966 71.1457C60.3966 70.5156 60.3735 70.0039 60.3439 70.0039Z" fill="#263238"/>
<path d="M59.2367 70.0039C59.2071 70.0039 59.1841 70.5156 59.1841 71.1457C59.1841 71.7758 59.2071 72.2874 59.2367 72.2874C59.2663 72.2874 59.2893 71.7758 59.2893 71.1457C59.2893 70.5156 59.2663 70.0039 59.2367 70.0039Z" fill="#263238"/>
<path d="M58.1295 70.0039C58.0999 70.0039 58.0768 70.5156 58.0768 71.1457C58.0768 71.7758 58.0999 72.2874 58.1295 72.2874C58.1591 72.2874 58.1821 71.7758 58.1821 71.1457C58.1821 70.5156 58.1591 70.0039 58.1295 70.0039Z" fill="#263238"/>
<g opacity="0.3">
<path d="M69.8135 69.9688C66.0213 70.6268 61.8393 70.6499 58.0538 69.972L69.8135 69.9688Z" fill="black"/>
</g>
<path d="M57.8564 69.9745C57.8564 70.0041 60.5709 70.0272 63.9188 70.0272C67.2667 70.0272 69.9829 70.0041 69.9829 69.9745C69.9829 69.9449 67.2684 69.9219 63.9188 69.9219C60.5692 69.9219 57.8564 69.9449 57.8564 69.9745Z" fill="#263238"/>
<path d="M70.0092 72.3181C70.0092 72.3181 70.006 72.305 70.006 72.2786C70.006 72.2474 70.0043 72.2095 70.0027 72.1602C70.0027 72.05 69.9994 71.897 69.9961 71.7012C69.9928 71.2965 69.9895 70.7174 69.9846 69.9951V69.9688H70.0109C70.2215 69.9688 70.4452 69.9672 70.6805 69.9655L70.6509 69.9951C70.6492 69.3075 70.6459 68.5095 70.6443 67.6376L70.6805 67.6738C70.4353 67.6738 70.1705 67.6738 69.899 67.6738H69.8612V67.636C69.8612 66.9072 69.8612 66.1175 69.8595 65.2982V65.2587H69.899C70.1573 65.2587 70.4337 65.2587 70.7117 65.2587C70.9174 65.2587 71.1214 65.2587 71.3221 65.2587L71.2826 65.2982C71.2826 64.4262 71.2826 63.5888 71.2842 62.8041L71.3221 62.8419C70.9223 62.8419 70.5373 62.8419 70.1688 62.8403H70.1326V62.8041C70.1359 61.9519 70.1376 61.182 70.1392 60.5189V60.491H70.1672C70.2741 60.491 70.3712 60.491 70.465 60.491L70.4386 60.5173C70.4353 59.7589 70.4337 59.1485 70.432 58.7241C70.432 58.5184 70.4337 58.3572 70.4337 58.242C70.4337 58.191 70.4353 58.1499 70.4353 58.117C70.4353 58.089 70.437 58.0742 70.4386 58.0742C70.4386 58.0742 70.4419 58.089 70.4436 58.117C70.4436 58.1499 70.4469 58.191 70.4485 58.242C70.4518 58.3572 70.4551 58.5184 70.46 58.7241C70.4666 59.1485 70.4781 59.7589 70.4896 60.5173V60.5436H70.4633C70.3695 60.5436 70.2725 60.5436 70.1655 60.5436L70.1935 60.5157C70.1951 61.1787 70.1984 61.947 70.2001 62.8008L70.1655 62.7663C70.5341 62.7663 70.919 62.7663 71.3188 62.7646H71.3566V62.8024C71.3566 63.5872 71.3566 64.4262 71.3583 65.2965V65.336H71.3188C71.1181 65.336 70.9141 65.336 70.7084 65.336C70.4304 65.336 70.154 65.336 69.8957 65.336L69.9352 65.2965C69.9352 66.1175 69.9352 66.9055 69.9336 67.6343L69.8957 67.5965C70.1672 67.5965 70.432 67.5965 70.6772 67.5965H70.7134V67.6327C70.7101 68.5046 70.7084 69.3025 70.7068 69.9902V70.0198H70.6772C70.4419 70.0198 70.2182 70.0182 70.0076 70.0165L70.0339 69.9902C70.029 70.7124 70.024 71.2915 70.0224 71.6962C70.0191 71.892 70.0175 72.045 70.0158 72.1552C70.0158 72.2046 70.0125 72.2424 70.0125 72.2737C70.0125 72.3 70.0109 72.3132 70.0092 72.3132V72.3181Z" fill="#263238"/>
<path d="M26.4823 6.94401C26.9446 10.0155 24.824 12.8814 21.7459 13.347C18.6678 13.811 15.7953 11.6969 15.333 8.62538C14.8707 5.55384 16.9913 2.68795 20.0694 2.22401C23.1476 1.76007 26.02 3.87412 26.4823 6.94565V6.94401Z" fill="#F5F5F5"/>
<path d="M25.1563 7.1428C25.5084 9.48388 23.8928 11.6687 21.5468 12.0224C19.2008 12.3761 17.0127 10.7655 16.659 8.42439C16.3069 6.08331 17.9225 3.89852 20.2685 3.5448C22.6145 3.19109 24.8026 4.80172 25.1563 7.1428Z" fill="#EBEBEB"/>
<path d="M25.1349 7.01034C25.1086 7.01527 25.0626 6.83101 24.9458 6.51679C24.8273 6.2042 24.6282 5.75507 24.2597 5.28784C24.0755 5.05587 23.8517 4.81897 23.5803 4.60016C23.3088 4.38464 22.9946 4.18228 22.6392 4.02435C22.4615 3.94538 22.274 3.87464 22.0782 3.82035C21.8824 3.76441 21.6784 3.71999 21.4695 3.69367C21.2606 3.66735 21.045 3.65254 20.8262 3.65912C20.6074 3.6657 20.387 3.68709 20.1665 3.72657C19.9461 3.7677 19.7322 3.82528 19.5249 3.89767C19.3176 3.96841 19.1218 4.0589 18.9359 4.15761C18.7484 4.25632 18.574 4.36983 18.4111 4.49158C18.2466 4.61168 18.0969 4.74493 17.9587 4.88148C17.6807 5.15458 17.4586 5.45565 17.2825 5.75342C17.1081 6.05285 16.9815 6.35391 16.891 6.63688C16.7117 7.20447 16.6853 7.69308 16.6853 8.0287C16.687 8.36431 16.7084 8.55351 16.6837 8.5568C16.6656 8.56009 16.5998 8.37912 16.557 8.03528C16.5175 7.69308 16.5077 7.17979 16.6672 6.57272C16.7479 6.27001 16.868 5.94591 17.044 5.62017C17.2217 5.29607 17.4503 4.96868 17.7432 4.66926C17.888 4.51955 18.0475 4.37477 18.2219 4.24151C18.3963 4.10825 18.5822 3.98322 18.7829 3.87464C18.9836 3.76606 19.1942 3.66735 19.4163 3.59002C19.6384 3.51105 19.8704 3.45018 20.1073 3.40412C20.3458 3.36134 20.5844 3.33831 20.8197 3.33338C21.0549 3.3268 21.2869 3.34489 21.5139 3.37615C21.7393 3.40576 21.9581 3.45676 22.1687 3.52093C22.3793 3.5818 22.5783 3.66241 22.7675 3.75125C23.1459 3.92728 23.4766 4.15267 23.7579 4.39287C24.0376 4.63471 24.2663 4.89464 24.4473 5.14965C24.8108 5.6613 24.9852 6.14498 25.0691 6.47895C25.1514 6.81621 25.1547 7.00869 25.1366 7.01198L25.1349 7.01034Z" fill="#E0E0E0"/>
<path d="M21.7689 10.2461L21.8907 10.9848L21.2309 11.0934L21.1125 10.3744C20.4528 10.4435 19.7931 10.3415 19.3834 10.1194L19.6121 9.25571C19.9823 9.4449 20.4857 9.54526 20.9694 9.51235L20.7867 8.41173C20.025 8.3558 19.1679 8.24722 19.0116 7.30289C18.8964 6.60369 19.3044 5.92094 20.3261 5.62975L20.2044 4.89764L20.8641 4.78906L20.9825 5.508C21.4843 5.46523 21.9861 5.51787 22.3875 5.68897L22.1917 6.55433C21.8232 6.41943 21.4629 6.36349 21.1256 6.3783L21.3116 7.49866C22.0716 7.54802 22.9156 7.65989 23.0702 8.58941C23.1838 9.27545 22.7807 9.95161 21.7673 10.2477L21.7689 10.2461ZM20.6272 7.44108L20.4725 6.50498C20.1369 6.64153 20.03 6.8554 20.0662 7.07421C20.104 7.30453 20.3228 7.39831 20.6288 7.44108H20.6272ZM22.0239 8.84277C21.9861 8.61244 21.7738 8.51867 21.4744 8.46602L21.6258 9.3758C21.9433 9.24913 22.0601 9.05335 22.0256 8.84277H22.0239Z" fill="#E0E0E0"/>
<path d="M11.8025 54.3251C12.1875 56.8833 10.4222 59.2688 7.85906 59.6554C5.29589 60.042 2.90545 58.2817 2.52048 55.7235C2.13551 53.1652 3.90078 50.7797 6.46396 50.3931C9.02714 50.0065 11.4176 51.7668 11.8042 54.3234L11.8025 54.3251Z" fill="#F5F5F5"/>
<path d="M10.6986 54.4895C10.9931 56.4391 9.64736 58.257 7.69289 58.5515C5.74007 58.846 3.91722 57.5051 3.62438 55.5556C3.33154 53.6061 4.67564 51.7882 6.63011 51.4937C8.58293 51.1992 10.4058 52.54 10.6986 54.4895Z" fill="#EBEBEB"/>
<path d="M10.6805 54.3813C10.6591 54.3846 10.6213 54.2316 10.5226 53.97C10.4239 53.71 10.2577 53.3366 9.95171 52.9467C9.79871 52.7526 9.61116 52.5568 9.38577 52.3742C9.16039 52.1948 8.8988 52.0254 8.60103 51.8954C8.45296 51.8296 8.29667 51.7704 8.1338 51.726C7.97092 51.6799 7.80147 51.6421 7.62708 51.6207C7.4527 51.5993 7.27337 51.5861 7.0924 51.5927C6.91143 51.5976 6.72717 51.6157 6.54291 51.6486C6.35866 51.6832 6.18098 51.7309 6.00988 51.7901C5.83714 51.8494 5.67426 51.925 5.51962 52.0056C5.36333 52.0879 5.21855 52.1833 5.082 52.2837C4.94545 52.384 4.82042 52.4943 4.70526 52.6078C4.47493 52.8348 4.28903 53.0849 4.14096 53.3333C3.99454 53.5834 3.88925 53.8334 3.81522 54.0687C3.66551 54.5409 3.64412 54.9489 3.64412 55.2269C3.64412 55.5066 3.66386 55.6629 3.64248 55.6678C3.62602 55.6711 3.57338 55.5197 3.53718 55.2335C3.50428 54.9489 3.49606 54.5211 3.62931 54.016C3.69677 53.7643 3.79712 53.4945 3.94354 53.2231C4.09161 52.9533 4.28245 52.6802 4.52593 52.4317C4.64603 52.3067 4.77929 52.1866 4.92407 52.0764C5.06884 51.9662 5.22349 51.8609 5.39129 51.772C5.55746 51.6815 5.73349 51.5993 5.91939 51.5351C6.10365 51.4693 6.29778 51.4183 6.49521 51.3805C6.69427 51.3459 6.89169 51.3262 7.08747 51.3213C7.28324 51.3163 7.47737 51.3311 7.66492 51.3558C7.85247 51.3805 8.03509 51.4233 8.20947 51.4759C8.38386 51.5269 8.55003 51.5927 8.70796 51.6667C9.02384 51.8132 9.29858 52.0007 9.53219 52.2014C9.76416 52.4038 9.955 52.6193 10.1064 52.8315C10.4091 53.2576 10.5538 53.6607 10.6246 53.9387C10.6937 54.2184 10.6953 54.3796 10.6805 54.3813Z" fill="#E0E0E0"/>
<path d="M7.87885 57.0736L7.98085 57.6889L7.43136 57.7794L7.33265 57.1805C6.78316 57.2381 6.23367 57.1542 5.89312 56.9683L6.08396 56.2493C6.39161 56.4073 6.81113 56.4895 7.21255 56.4632L7.06119 55.5469C6.4278 55.4991 5.7138 55.4087 5.58383 54.6239C5.48676 54.0415 5.82731 53.4723 6.67787 53.2304L6.57751 52.6217L7.127 52.5312L7.22571 53.1301C7.64359 53.0955 8.06146 53.1383 8.39543 53.2798L8.23256 54.0004C7.92655 53.8869 7.62549 53.8408 7.34581 53.854L7.50046 54.7868C8.13385 54.8279 8.83634 54.9217 8.96466 55.6949C9.05843 56.2658 8.72446 56.8284 7.87885 57.0752V57.0736ZM6.92794 54.7391L6.79797 53.9593C6.51829 54.0728 6.42945 54.2521 6.45906 54.4331C6.49032 54.6256 6.67293 54.7029 6.92629 54.7391H6.92794ZM8.09107 55.9055C8.05981 55.713 7.88214 55.6357 7.63371 55.5913L7.75875 56.3481C8.02362 56.2428 8.12069 56.0799 8.09107 55.9039V55.9055Z" fill="#E0E0E0"/>
<path d="M74.6135 72.9256C74.6135 72.9486 57.9101 72.9684 37.3092 72.9684C16.7084 72.9684 0 72.9486 0 72.9256C0 72.9026 16.7001 72.8828 37.3092 72.8828C57.9183 72.8828 74.6135 72.9026 74.6135 72.9256Z" fill="#263238"/>
<path d="M52.0648 72.8733L29.7793 72.7697C27.0993 72.7582 24.9359 70.575 24.9474 67.8951L25.1843 12.025C25.1958 9.34335 27.379 7.1783 30.0606 7.19147L52.3461 7.29511C55.0261 7.30827 57.1895 9.48977 57.178 12.1698L56.9411 68.0398C56.9296 70.7215 54.7464 72.8865 52.0648 72.8733Z" fill="#263238"/>
<path d="M52.3132 9.22313L47.993 9.20339L35.3745 9.1458L33.8544 9.13922L30.0722 9.12113C28.1934 9.1129 26.665 10.6281 26.6568 12.5069L26.4265 67.0394C26.4182 68.9166 27.9334 70.4449 29.8106 70.4532L52.0517 70.5552C53.9305 70.5634 55.4588 69.0482 55.467 67.1694L55.6974 12.6369C55.7056 10.7597 54.1904 9.23135 52.3132 9.22313Z" fill="#FAFAFA"/>
<path d="M52.4794 14.182C52.4794 14.335 52.3543 14.4601 52.1997 14.4601C52.0467 14.4601 51.9217 14.335 51.9217 14.1804C51.9217 14.0274 52.0467 13.9023 52.2013 13.9023C52.3543 13.9023 52.4794 14.0274 52.4794 14.182Z" fill="#263238"/>
<path d="M52.4745 15.182C52.4745 15.335 52.3495 15.4601 52.1948 15.4601C52.0418 15.4601 51.9168 15.335 51.9168 15.1804C51.9168 15.0274 52.0418 14.9023 52.1965 14.9023C52.3495 14.9023 52.4745 15.0274 52.4745 15.182Z" fill="#263238"/>
<path d="M52.4712 16.182C52.4712 16.335 52.3462 16.4601 52.1915 16.4601C52.0385 16.4601 51.9135 16.335 51.9135 16.1804C51.9135 16.0274 52.0385 15.9023 52.1932 15.9023C52.3462 15.9023 52.4712 16.0274 52.4712 16.182Z" fill="#263238"/>
<path d="M53.4583 23.6836H31.1662C30.7755 23.6836 30.4587 24.0003 30.4587 24.391V38.0163C30.4587 38.407 30.7755 38.7238 31.1662 38.7238H53.4583C53.849 38.7238 54.1657 38.407 54.1657 38.0163V24.391C54.1657 24.0003 53.849 23.6836 53.4583 23.6836Z" fill="#EBEBEB"/>
<path d="M52.8068 22.707H30.5147C30.124 22.707 29.8073 23.0238 29.8073 23.4145V37.0398C29.8073 37.4305 30.124 37.7472 30.5147 37.7472H52.8068C53.1975 37.7472 53.5142 37.4305 53.5142 37.0398V23.4145C53.5142 23.0238 53.1975 22.707 52.8068 22.707Z" fill="#E0E0E0"/>
<path d="M52.0549 21.8945H29.7628C29.3721 21.8945 29.0554 22.2113 29.0554 22.602V36.2273C29.0554 36.618 29.3721 36.9347 29.7628 36.9347H52.0549C52.4456 36.9347 52.7624 36.618 52.7624 36.2273V22.602C52.7624 22.2113 52.4456 21.8945 52.0549 21.8945Z" fill="#16855C"/>
<path d="M32.9595 25.3312C32.9595 25.5237 32.8065 25.6356 32.5136 25.6356H31.9378V24.5234H32.4824C32.7604 24.5234 32.9035 24.6402 32.9035 24.813C32.9035 24.9249 32.8459 25.0104 32.7555 25.0581C32.8788 25.0976 32.9595 25.193 32.9595 25.3329V25.3312ZM32.1945 24.7159V24.9775H32.4511C32.5761 24.9775 32.6452 24.9331 32.6452 24.8459C32.6452 24.7587 32.5761 24.7159 32.4511 24.7159H32.1945ZM32.6995 25.3049C32.6995 25.2111 32.6288 25.1667 32.4939 25.1667H32.1928V25.4414H32.4939C32.6271 25.4414 32.6995 25.4003 32.6995 25.3049Z" fill="white"/>
<path d="M33.8857 25.397H33.3691L33.2704 25.6356H33.0072L33.5024 24.5234H33.7574L34.2542 25.6356H33.9844L33.8857 25.397ZM33.8051 25.2012L33.629 24.7751L33.453 25.2012H33.8067H33.8051Z" fill="white"/>
<path d="M35.3911 24.5234V25.6356H35.1788L34.6244 24.9594V25.6356H34.3694V24.5234H34.5833L35.1361 25.1996V24.5234H35.3911Z" fill="white"/>
<path d="M36.059 25.198L35.9093 25.3543V25.6356H35.6526V24.5234H35.9093V25.0433L36.4028 24.5234H36.6891L36.2284 25.0186L36.717 25.6356H36.416L36.0606 25.198H36.059Z" fill="white"/>
<path d="M32.7505 29.9605H32.5465V30.2287H32.4412V29.9605H31.8654V29.8848L32.4066 29.207H32.5234L32.0003 29.8667H32.4445V29.6298H32.5465V29.8667H32.7505V29.9605Z" fill="white"/>
<path d="M33.5007 29.9358C33.5007 30.1069 33.3773 30.2386 33.1305 30.2386C32.9824 30.2386 32.841 30.1876 32.762 30.1069L32.813 30.023C32.8788 30.0921 32.9973 30.1415 33.1305 30.1415C33.3 30.1415 33.3937 30.0625 33.3937 29.9358C33.3937 29.8092 33.3082 29.7335 33.1174 29.7335H33.045V29.6562L33.3279 29.3008H32.8048V29.207H33.4612V29.2811L33.1716 29.6446C33.3905 29.6562 33.5007 29.7713 33.5007 29.9358Z" fill="white"/>
<path d="M34.3265 29.9293C34.3265 30.1037 34.2048 30.2386 33.9564 30.2386C33.8083 30.2386 33.6685 30.1876 33.5895 30.1069L33.6405 30.023C33.7063 30.0921 33.8231 30.1415 33.9547 30.1415C34.1291 30.1415 34.2196 30.0576 34.2196 29.9326C34.2196 29.8009 34.1374 29.7187 33.8774 29.7187H33.6603L33.7129 29.207H34.2723V29.3008H33.805L33.7705 29.6266H33.9021C34.2097 29.6266 34.3265 29.7483 34.3265 29.9293Z" fill="white"/>
<path d="M35.2265 29.9231C35.2265 30.1139 35.0768 30.2373 34.8777 30.2373C34.6063 30.2373 34.4582 30.0498 34.4582 29.7273C34.4582 29.3802 34.6474 29.1992 34.9254 29.1992C35.0175 29.1992 35.1031 29.2157 35.1673 29.2552L35.1245 29.3391C35.0718 29.3045 35.0027 29.2913 34.9254 29.2913C34.705 29.2913 34.5635 29.4328 34.5635 29.7109C34.5635 29.7339 34.5635 29.7635 34.5684 29.7948C34.6194 29.6829 34.7395 29.6204 34.881 29.6204C35.0834 29.6204 35.2248 29.7405 35.2248 29.9264L35.2265 29.9231ZM35.1228 29.9264C35.1228 29.7915 35.0241 29.7059 34.8662 29.7059C34.7083 29.7059 34.603 29.803 34.603 29.9297C34.603 30.0415 34.6967 30.1485 34.8728 30.1485C35.0208 30.1485 35.1228 30.0629 35.1228 29.9264Z" fill="white"/>
<path d="M37.4343 30.2276L37.1908 29.9068L36.9457 30.2276H36.8289L37.1332 29.8344L36.8437 29.4609H36.9605L37.1908 29.762L37.4212 29.4609H37.5347L37.2451 29.8344L37.5511 30.2276H37.4327H37.4343Z" fill="white"/>
<path d="M38.2141 30.2276L37.9706 29.9068L37.7255 30.2276H37.6087L37.9131 29.8344L37.6235 29.4609H37.7403L37.9706 29.762L38.201 29.4609H38.3145L38.0249 29.8344L38.3309 30.2276H38.2125H38.2141Z" fill="white"/>
<path d="M38.9923 30.2276L38.7488 29.9068L38.5037 30.2276H38.3869L38.6912 29.8344L38.4017 29.4609H38.5185L38.7488 29.762L38.9791 29.4609H39.0926L38.8031 29.8344L39.1091 30.2276H38.9906H38.9923Z" fill="white"/>
<path d="M39.7721 30.2276L39.5286 29.9068L39.2835 30.2276H39.1667L39.471 29.8344L39.1815 29.4609H39.2983L39.5286 29.762L39.7589 29.4609H39.8724L39.5829 29.8344L39.8889 30.2276H39.7704H39.7721Z" fill="white"/>
<path d="M42.462 30.2276L42.2185 29.9068L41.9733 30.2276H41.8565L42.1609 29.8344L41.8713 29.4609H41.9882L42.2185 29.762L42.4488 29.4609H42.5623L42.2728 29.8344L42.5788 30.2276H42.4603H42.462Z" fill="white"/>
<path d="M43.2418 30.2276L42.9983 29.9068L42.7532 30.2276H42.6364L42.9407 29.8344L42.6512 29.4609H42.768L42.9983 29.762L43.2286 29.4609H43.3421L43.0526 29.8344L43.3586 30.2276H43.2401H43.2418Z" fill="white"/>
<path d="M44.0216 30.2276L43.7781 29.9068L43.5329 30.2276H43.4161L43.7205 29.8344L43.4309 29.4609H43.5478L43.7781 29.762L44.0084 29.4609H44.1219L43.8324 29.8344L44.1384 30.2276H44.0199H44.0216Z" fill="white"/>
<path d="M44.7998 30.2276L44.5563 29.9068L44.3111 30.2276H44.1943L44.4987 29.8344L44.2091 29.4609H44.3259L44.5563 29.762L44.7866 29.4609H44.9001L44.6106 29.8344L44.9166 30.2276H44.7981H44.7998Z" fill="white"/>
<path d="M47.2165 29.207V30.2287H47.1112V29.3008H46.871V29.207H47.2165Z" fill="white"/>
<path d="M48.1362 29.9358C48.1362 30.1069 48.0128 30.2386 47.766 30.2386C47.6179 30.2386 47.4765 30.1876 47.3975 30.1069L47.4485 30.023C47.5143 30.0921 47.6327 30.1415 47.766 30.1415C47.9355 30.1415 48.0292 30.0625 48.0292 29.9358C48.0292 29.8092 47.9437 29.7335 47.7528 29.7335H47.6805V29.6562L47.9634 29.3008H47.4403V29.207H48.0967V29.2811L47.8071 29.6446C48.0259 29.6562 48.1362 29.7713 48.1362 29.9358Z" fill="white"/>
<path d="M49.1512 29.9605H48.9472V30.2287H48.8419V29.9605H48.2661V29.8848L48.8074 29.207H48.9242L48.401 29.8667H48.8452V29.6298H48.9472V29.8667H49.1512V29.9605Z" fill="white"/>
<path d="M49.9392 30.1353V30.2291H49.2219V30.1551L49.6464 29.7388C49.7615 29.6253 49.7829 29.5562 49.7829 29.4871C49.7829 29.3687 49.7007 29.2963 49.5444 29.2963C49.4243 29.2963 49.3322 29.3325 49.2664 29.4098L49.1923 29.3456C49.2713 29.2519 49.398 29.1992 49.5543 29.1992C49.7615 29.1992 49.8932 29.3045 49.8932 29.4756C49.8932 29.5727 49.8619 29.6615 49.7254 29.7948L49.3782 30.137H49.9409L49.9392 30.1353Z" fill="white"/>
<path d="M31.339 32.3494C31.339 32.2029 31.4525 32.0977 31.6038 32.0977C31.6877 32.0977 31.7585 32.1289 31.8045 32.1832L31.7322 32.2507C31.6993 32.2128 31.6581 32.1931 31.6104 32.1931C31.5199 32.1931 31.4541 32.2572 31.4541 32.3494C31.4541 32.4415 31.5183 32.5057 31.6104 32.5057C31.6598 32.5057 31.7009 32.4859 31.7322 32.4481L31.8045 32.5155C31.7585 32.5715 31.6877 32.6027 31.6038 32.6027C31.4525 32.6027 31.3406 32.4974 31.3406 32.351L31.339 32.3494Z" fill="white"/>
<path d="M32.1928 32.4888H31.9658L31.923 32.5924H31.8078L32.025 32.1055H32.1369L32.354 32.5924H32.2356L32.1928 32.4888ZM32.1566 32.4032L32.0793 32.2173L32.002 32.4032H32.1566Z" fill="white"/>
<path d="M32.716 32.5924L32.6222 32.4559H32.5186V32.5924H32.4051V32.1055H32.6156C32.7456 32.1055 32.8279 32.1729 32.8279 32.2831C32.8279 32.3555 32.7917 32.4098 32.7275 32.4378L32.8377 32.5941H32.716V32.5924ZM32.6107 32.1976H32.5186V32.3671H32.6107C32.6798 32.3671 32.7144 32.3358 32.7144 32.2815C32.7144 32.2272 32.6798 32.196 32.6107 32.196V32.1976Z" fill="white"/>
<path d="M32.8805 32.5451L32.9183 32.4596C32.9594 32.4892 33.0203 32.5106 33.0795 32.5106C33.147 32.5106 33.1733 32.4876 33.1733 32.4579C33.1733 32.3675 32.8903 32.43 32.8903 32.249C32.8903 32.1668 32.9578 32.0977 33.096 32.0977C33.1569 32.0977 33.2194 32.1125 33.2654 32.1404L33.2309 32.226C33.1848 32.1997 33.1388 32.1881 33.096 32.1881C33.0285 32.1881 33.0039 32.2128 33.0039 32.2441C33.0039 32.3346 33.2868 32.272 33.2868 32.4514C33.2868 32.5336 33.2194 32.6027 33.0795 32.6027C33.0022 32.6027 32.9249 32.5797 32.8805 32.5468V32.5451Z" fill="white"/>
<path d="M34.0074 32.1055V32.5924H33.8939V32.3934H33.6718V32.5924H33.5583V32.1055H33.6718V32.298H33.8939V32.1055H34.0074Z" fill="white"/>
<path d="M34.093 32.3494C34.093 32.2046 34.2065 32.0977 34.3595 32.0977C34.5125 32.0977 34.626 32.2046 34.626 32.3494C34.626 32.4941 34.5125 32.6011 34.3595 32.6011C34.2065 32.6011 34.093 32.4941 34.093 32.3494ZM34.5125 32.3494C34.5125 32.2572 34.4467 32.1931 34.3595 32.1931C34.2723 32.1931 34.2065 32.2572 34.2065 32.3494C34.2065 32.4415 34.2723 32.5057 34.3595 32.5057C34.4467 32.5057 34.5125 32.4415 34.5125 32.3494Z" fill="white"/>
<path d="M34.7132 32.1055H34.8267V32.5003H35.0719V32.5924H34.7149V32.1055H34.7132Z" fill="white"/>
<path d="M35.1344 32.1055H35.3565C35.516 32.1055 35.6246 32.2009 35.6246 32.349C35.6246 32.497 35.516 32.5924 35.3565 32.5924H35.1344V32.1055ZM35.3499 32.5003C35.447 32.5003 35.5095 32.4427 35.5095 32.349C35.5095 32.2552 35.4453 32.1976 35.3499 32.1976H35.2462V32.5003H35.3499Z" fill="white"/>
<path d="M36.0869 32.502V32.5924H35.7102V32.1055H36.0787V32.196H35.822V32.3012H36.0491V32.3884H35.822V32.502H36.0869Z" fill="white"/>
<path d="M36.4883 32.5924L36.3946 32.4559H36.2909V32.5924H36.179V32.1055H36.3896C36.5196 32.1055 36.6019 32.1729 36.6019 32.2831C36.6019 32.3555 36.5657 32.4098 36.5015 32.4378L36.6117 32.5941H36.49L36.4883 32.5924ZM36.383 32.1976H36.2909V32.3671H36.383C36.4521 32.3671 36.4867 32.3358 36.4867 32.2815C36.4867 32.2272 36.4521 32.196 36.383 32.196V32.1976Z" fill="white"/>
<path d="M38.196 33.8047H31.4887C31.3442 33.8047 31.2271 33.9218 31.2271 34.0663V34.1683C31.2271 34.3127 31.3442 34.4299 31.4887 34.4299H38.196C38.3405 34.4299 38.4576 34.3127 38.4576 34.1683V34.0663C38.4576 33.9218 38.3405 33.8047 38.196 33.8047Z" fill="white"/>
<path d="M50.1482 33.8047H46.6539C46.5094 33.8047 46.3923 33.9218 46.3923 34.0663V34.1683C46.3923 34.3127 46.5094 34.4299 46.6539 34.4299H50.1482C50.2927 34.4299 50.4098 34.3127 50.4098 34.1683V34.0663C50.4098 33.9218 50.2927 33.8047 50.1482 33.8047Z" fill="white"/>
<g opacity="0.2">
<path d="M51.976 21.8945H29.8402C29.4058 21.8945 29.0554 22.2466 29.0554 22.6793V26.6507C30.4538 27.6263 32.3754 27.7974 34.0798 27.4404C36.0885 27.0209 37.9081 25.9927 39.7803 25.152C41.6525 24.3096 43.7073 23.6335 45.7309 23.9806C47.6393 24.308 49.2664 25.4975 50.9922 26.3776C51.5499 26.6622 52.1504 26.9123 52.764 27.0916V22.6809C52.764 22.2466 52.4119 21.8962 51.9793 21.8962L51.976 21.8945Z" fill="white"/>
</g>
<path d="M34.2608 42.7969H30.9951C30.1973 42.7969 29.5506 43.4436 29.5506 44.2413V47.507C29.5506 48.3048 30.1973 48.9515 30.9951 48.9515H34.2608C35.0585 48.9515 35.7052 48.3048 35.7052 47.507V44.2413C35.7052 43.4436 35.0585 42.7969 34.2608 42.7969Z" fill="#16855C"/>
<path d="M33.2342 46.8151H31.89C31.8539 46.8151 31.8226 46.7905 31.8127 46.7543L31.3159 44.7751H30.8487C30.8042 44.7751 30.7697 44.7389 30.7697 44.6962C30.7697 44.6534 30.8059 44.6172 30.8487 44.6172H31.3768C31.4129 44.6172 31.4442 44.6419 31.4541 44.6781L31.9509 46.6572H33.2342C33.2786 46.6572 33.3131 46.6934 33.3131 46.7362C33.3131 46.7789 33.2769 46.8151 33.2342 46.8151Z" fill="white"/>
<path d="M32.1451 47.4487C32.2841 47.4487 32.3968 47.336 32.3968 47.197C32.3968 47.058 32.2841 46.9453 32.1451 46.9453C32.006 46.9453 31.8933 47.058 31.8933 47.197C31.8933 47.336 32.006 47.4487 32.1451 47.4487Z" fill="#16855C"/>
<path d="M32.1451 47.5286C31.9625 47.5286 31.8144 47.3805 31.8144 47.1979C31.8144 47.0153 31.9625 46.8672 32.1451 46.8672C32.3277 46.8672 32.4757 47.0153 32.4757 47.1979C32.4757 47.3805 32.3277 47.5286 32.1451 47.5286ZM32.1451 47.0251C32.0497 47.0251 31.9723 47.1024 31.9723 47.1979C31.9723 47.2933 32.0497 47.3706 32.1451 47.3706C32.2405 47.3706 32.3178 47.2933 32.3178 47.1979C32.3178 47.1024 32.2405 47.0251 32.1451 47.0251Z" fill="white"/>
<path d="M33.5435 47.4487C33.6825 47.4487 33.7952 47.336 33.7952 47.197C33.7952 47.058 33.6825 46.9453 33.5435 46.9453C33.4045 46.9453 33.2918 47.058 33.2918 47.197C33.2918 47.336 33.4045 47.4487 33.5435 47.4487Z" fill="#16855C"/>
<path d="M33.5435 47.5286C33.3609 47.5286 33.2128 47.3805 33.2128 47.1979C33.2128 47.0153 33.3609 46.8672 33.5435 46.8672C33.7261 46.8672 33.8742 47.0153 33.8742 47.1979C33.8742 47.3805 33.7261 47.5286 33.5435 47.5286ZM33.5435 47.0251C33.4481 47.0251 33.3707 47.1024 33.3707 47.1979C33.3707 47.2933 33.4481 47.3706 33.5435 47.3706C33.6389 47.3706 33.7162 47.2933 33.7162 47.1979C33.7162 47.1024 33.6389 47.0251 33.5435 47.0251Z" fill="white"/>
<path d="M33.7606 46.449H31.844C31.7996 46.449 31.7651 46.4128 31.7651 46.37C31.7651 46.3273 31.8012 46.2911 31.844 46.2911H33.6932L33.9038 45.1049C33.4415 45.1049 31.5051 45.1049 31.487 45.1049C31.4426 45.1049 31.4081 45.0687 31.4081 45.0243C31.4081 44.9799 31.4442 44.9453 31.487 44.9453C31.4903 44.9453 31.7683 44.9453 32.1434 44.9453C32.8871 44.9453 33.9976 44.9453 33.9976 44.9453C34.0206 44.9453 34.0436 44.9552 34.0584 44.9733C34.0732 44.9914 34.0798 45.0144 34.0765 45.0374L33.838 46.3815C33.8314 46.4194 33.7985 46.4474 33.759 46.4474L33.7606 46.449Z" fill="white"/>
<path d="M49.6102 43.875H38.3655C38.0229 43.875 37.7452 44.1527 37.7452 44.4952V44.7404C37.7452 45.0829 38.0229 45.3606 38.3655 45.3606H49.6102C49.9528 45.3606 50.2305 45.0829 50.2305 44.7404V44.4952C50.2305 44.1527 49.9528 43.875 49.6102 43.875Z" fill="#E0E0E0"/>
<path d="M43.4359 46.7969H38.3655C38.0229 46.7969 37.7452 47.0746 37.7452 47.4171V47.6622C37.7452 48.0048 38.0229 48.2825 38.3655 48.2825H43.4359C43.7784 48.2825 44.0561 48.0048 44.0561 47.6622V47.4171C44.0561 47.0746 43.7784 46.7969 43.4359 46.7969Z" fill="#E0E0E0"/>
<path d="M55.4177 40.4764C55.4177 40.4994 48.9209 40.5191 40.9089 40.5191C32.8969 40.5191 26.3985 40.4994 26.3985 40.4764C26.3985 40.4533 32.8936 40.4336 40.9089 40.4336C48.9242 40.4336 55.4177 40.4533 55.4177 40.4764Z" fill="#E0E0E0"/>
<path d="M47.8581 51.418H34.2657C32.7929 51.418 31.5989 52.6119 31.5989 54.0848V55.1328C31.5989 56.6056 32.7929 57.7996 34.2657 57.7996H47.8581C49.331 57.7996 50.5249 56.6056 50.5249 55.1328V54.0848C50.5249 52.6119 49.331 51.418 47.8581 51.418Z" fill="#16855C"/>
<path d="M40.6901 54.3067C40.6901 54.6275 40.4482 54.8266 40.0633 54.8266H39.8181V55.1951H39.42V53.7852H40.0649C40.4499 53.7852 40.6917 53.9842 40.6917 54.3067H40.6901ZM40.287 54.3067C40.287 54.1751 40.2048 54.0994 40.0402 54.0994H39.8181V54.5123H40.0402C40.2048 54.5123 40.287 54.4366 40.287 54.3067Z" fill="white"/>
<path d="M41.7562 54.922H41.1606L41.0504 55.1951H40.644L41.2659 53.7852H41.6591L42.2826 55.1951H41.8681L41.7578 54.922H41.7562ZM41.6394 54.6275L41.4584 54.1767L41.2774 54.6275H41.6394Z" fill="white"/>
<path d="M43.0608 54.69V55.1951H42.6627V54.6834L42.1247 53.7852H42.5459L42.8798 54.3445L43.2138 53.7852H43.6004L43.0608 54.69Z" fill="white"/>
<path d="M31.1251 15.9138C31.2816 15.2534 30.873 14.5911 30.2126 14.4346C29.5522 14.2782 28.8899 14.6867 28.7334 15.3471C28.5769 16.0076 28.9855 16.6698 29.6459 16.8263C30.3063 16.9828 30.9686 16.5743 31.1251 15.9138Z" fill="#16855C"/>
<path d="M45.0597 14.9961H36.7581C36.5092 14.9961 36.3074 15.1979 36.3074 15.4469V15.6229C36.3074 15.8719 36.5092 16.0737 36.7581 16.0737H45.0597C45.3087 16.0737 45.5105 15.8719 45.5105 15.6229V15.4469C45.5105 15.1979 45.3087 14.9961 45.0597 14.9961Z" fill="#E0E0E0"/>
<path d="M51.387 59.6406H32.6008V60.8959H51.387V59.6406Z" fill="#263238"/>
<path d="M33.4891 60.2656C33.6536 60.3199 35.8548 60.3199 35.8548 64.6665C35.8548 69.013 35.7446 74.4026 38.0544 74.5671C40.3643 74.7316 52.5204 74.5671 52.5204 74.5671V63.6613C52.5204 61.8433 51.0529 60.3676 49.235 60.3561L33.4891 60.2656Z" fill="#FAFAFA"/>
<path d="M33.4892 60.2644C33.7244 60.2644 37.0049 60.2743 42.6264 60.2924C44.0446 60.2973 45.596 60.3039 47.2625 60.3088C47.6788 60.3105 48.1032 60.3121 48.5343 60.3154C48.962 60.3253 49.4046 60.2924 49.8471 60.3796C50.2864 60.4635 50.7174 60.6378 51.0974 60.8961C51.4775 61.1561 51.8082 61.4999 52.0566 61.9013C52.305 62.3028 52.4712 62.7634 52.532 63.2438C52.5616 63.484 52.5616 63.7291 52.56 63.9693C52.56 64.2112 52.56 64.4546 52.56 64.6998C52.56 65.6787 52.56 66.6773 52.56 67.694C52.56 69.7274 52.56 71.8349 52.56 73.9917C52.56 74.1875 52.56 74.3833 52.56 74.5642V74.607H52.5172C48.2661 74.658 44.2223 74.6975 40.5486 74.6679C40.0896 74.6646 39.6355 74.6564 39.188 74.6465C38.7389 74.63 38.3013 74.635 37.8604 74.5741C37.6416 74.5264 37.4376 74.4277 37.2648 74.2944C37.0954 74.1546 36.9555 73.9884 36.8371 73.8091C36.6068 73.4488 36.4603 73.0523 36.3468 72.6591C36.1231 71.8694 36.026 71.083 35.9553 70.3279C35.8878 69.5728 35.8582 68.8456 35.8418 68.153C35.8056 66.7661 35.8335 65.5125 35.8171 64.4135C35.7957 63.3178 35.6262 62.3686 35.2857 61.6743C35.1195 61.3255 34.9073 61.0524 34.6984 60.8435C34.4828 60.6395 34.2624 60.5145 34.0781 60.4289C33.703 60.2759 33.4776 60.2726 33.4842 60.2611C33.5089 60.2644 33.55 60.271 33.6405 60.2841C33.7425 60.3039 33.8972 60.3351 34.0864 60.4125C34.2723 60.4947 34.4976 60.6198 34.7165 60.8238C34.9287 61.0327 35.1475 61.3074 35.3169 61.6579C35.6641 62.3571 35.8401 63.3113 35.8648 64.4102C35.8862 65.5108 35.8615 66.7645 35.901 68.1481C35.9207 68.8407 35.9503 69.5662 36.0194 70.318C36.0902 71.0699 36.1905 71.853 36.4126 72.6344C36.5261 73.0227 36.6709 73.4143 36.8963 73.7647C37.0115 73.9374 37.1464 74.0987 37.3092 74.2319C37.4754 74.3586 37.6679 74.4524 37.8752 74.4968C38.2963 74.5527 38.7438 74.5494 39.1897 74.5642C39.6372 74.5725 40.0896 74.5807 40.5486 74.584C44.2206 74.6087 48.2644 74.5675 52.5156 74.5165L52.4728 74.5593V73.9868C52.4728 71.83 52.4728 69.7241 52.4728 67.6891C52.4728 66.6723 52.4728 65.6737 52.4728 64.6948C52.4728 64.4497 52.4728 64.2062 52.4728 63.9644C52.4728 63.7209 52.4728 63.4823 52.4448 63.2487C52.3873 62.7799 52.2244 62.3307 51.9825 61.9375C51.7407 61.5443 51.4182 61.2087 51.0464 60.9537C50.6746 60.7004 50.2551 60.5293 49.8241 60.447C49.3947 60.3615 48.9554 60.3911 48.5277 60.3812C48.0999 60.3779 47.6771 60.3746 47.2625 60.373C45.6042 60.3598 44.0594 60.3483 42.6495 60.3368C37.0082 60.2891 33.7162 60.2595 33.4809 60.2578L33.4892 60.2644Z" fill="#263238"/>
<path d="M38.1105 74.566C38.1105 74.566 40.0123 74.566 40.4203 71.761C40.9056 68.418 40.4203 65.4912 43.0049 65.381C45.5894 65.2708 52.5205 65.381 52.5205 65.381V74.566H38.1105Z" fill="#E0E0E0"/>
<path d="M42.6808 65.4137C42.6808 65.4137 44.7652 65.1604 44.7652 68.6268C44.7652 72.0931 44.8195 74.3832 47.131 74.6399C49.4408 74.8965 63.6321 74.6399 63.6321 74.6399C63.6321 74.6399 61.3765 73.5771 61.212 70.4414C61.0475 67.3057 60.3878 65.394 58.1322 65.3315C55.8767 65.2706 42.6808 65.4137 42.6808 65.4137Z" fill="#FAFAFA"/>
<path d="M42.6808 65.4162C42.7054 65.4162 42.7416 65.4129 42.8206 65.4096C42.916 65.4079 43.0526 65.4046 43.2302 65.4013C43.5938 65.3964 44.1252 65.3882 44.8096 65.3767C46.185 65.3619 48.1707 65.3405 50.6269 65.3125C51.8559 65.3043 53.2016 65.2944 54.6477 65.2845C55.3716 65.2845 56.1185 65.2829 56.8901 65.2812C57.2751 65.2829 57.6666 65.2845 58.0631 65.2928C58.4613 65.3092 58.8709 65.3586 59.2542 65.5214C59.6343 65.6876 59.9699 65.9607 60.2216 66.2996C60.4749 66.6385 60.6559 67.0301 60.7925 67.4364C61.0491 68.2557 61.1643 69.1277 61.2268 70.0128C61.2416 70.2349 61.2531 70.457 61.2778 70.6774L61.3107 71.0097L61.3732 71.3388L61.4045 71.5033L61.4489 71.6662L61.541 71.9903C61.6233 72.2008 61.6957 72.4147 61.8026 72.6154C62.1991 73.4265 62.8374 74.157 63.6518 74.6028L63.7965 74.6818L63.6353 74.6851C63.5119 74.6867 63.377 74.69 63.2421 74.6916C59.4335 74.7542 55.8059 74.7953 52.5057 74.7953C50.8556 74.792 49.2878 74.7871 47.8203 74.7245C47.4534 74.6999 47.0898 74.6916 46.741 74.6077C46.3939 74.5238 46.0649 74.3675 45.8049 74.1372C45.545 73.9085 45.3558 73.6157 45.2258 73.3146C45.0926 73.0119 45.0087 72.701 44.9478 72.3933C44.8294 71.778 44.7915 71.1808 44.7701 70.6198C44.7487 70.0572 44.7471 69.5274 44.7471 69.0322C44.7487 68.7838 44.7471 68.5453 44.7356 68.3166C44.729 68.2014 44.7306 68.0896 44.7191 67.9793C44.706 67.8691 44.6928 67.7622 44.6796 67.6569C44.6731 67.6042 44.6665 67.5532 44.6599 67.5006C44.6484 67.4496 44.6369 67.4002 44.627 67.3509C44.6056 67.2522 44.5826 67.1551 44.5612 67.0613C44.5299 66.9708 44.5003 66.882 44.4707 66.7948C44.4559 66.752 44.4411 66.7093 44.4263 66.6665C44.4065 66.627 44.3868 66.5875 44.3687 66.548C44.2272 66.2305 44.0265 65.987 43.8225 65.8159C43.6201 65.6415 43.4112 65.5445 43.2352 65.4918C43.0608 65.4359 42.921 65.4211 42.8272 65.4162C42.7811 65.4129 42.7449 65.4129 42.7202 65.4145C42.7038 65.4145 42.6939 65.4145 42.684 65.4145C42.684 65.4145 42.6956 65.4112 42.7202 65.4096C42.7433 65.4079 42.7795 65.4063 42.8272 65.4079C42.921 65.4079 43.0624 65.4211 43.2401 65.4754C43.4178 65.5247 43.63 65.6218 43.8373 65.7962C44.0446 65.9673 44.2519 66.2124 44.3967 66.5332C44.7224 67.1633 44.7981 68.0435 44.7932 69.0306C44.7964 69.5258 44.7997 70.0555 44.8228 70.6165C44.8475 71.1776 44.8853 71.7715 45.0054 72.3802C45.0663 72.6845 45.1502 72.9922 45.2818 73.2883C45.4101 73.5844 45.5944 73.8658 45.8477 74.0862C46.0978 74.31 46.4169 74.458 46.7559 74.5403C47.0964 74.6209 47.4583 74.6291 47.8236 74.6522C49.2878 74.7114 50.8573 74.713 52.5057 74.7147C55.8059 74.7114 59.4335 74.667 63.2421 74.6044C63.377 74.6028 63.5119 74.5995 63.6353 74.5979L63.6172 74.6801C62.7765 74.2195 62.1349 73.4808 61.7286 72.6533C61.62 72.4493 61.546 72.2305 61.4637 72.0166L61.3699 71.6876L61.3239 71.523L61.2926 71.3552L61.2301 71.0213L61.1972 70.684C61.1725 70.4603 61.161 70.2382 61.1462 70.0177C61.0853 69.1359 60.9718 68.2689 60.7184 67.4611C60.5852 67.0597 60.4075 66.6764 60.1607 66.3473C59.9156 66.0183 59.5931 65.7551 59.2263 65.5938C58.8561 65.4359 58.458 65.3865 58.0648 65.3701C57.6699 65.3619 57.2784 65.3586 56.8934 65.3569C56.1235 65.3569 55.3749 65.3569 54.6527 65.3569C53.2066 65.3635 51.8608 65.3684 50.6319 65.375C48.1756 65.3898 46.1899 65.403 44.8145 65.4112C44.1302 65.4145 43.5971 65.4178 43.2352 65.4194C43.0559 65.4194 42.9193 65.4194 42.8239 65.4194C42.7449 65.4194 42.7087 65.4178 42.684 65.4162H42.6808Z" fill="#263238"/>
<path d="M43.2303 65.4067C43.2303 65.4165 43.0641 65.4001 42.7696 65.4412C42.4801 65.4823 42.0457 65.609 41.664 65.9792C41.2758 66.3395 40.9879 66.9301 40.8431 67.6128C40.6934 68.3005 40.6852 69.0787 40.6506 69.8931C40.6161 70.7074 40.5634 71.4905 40.3857 72.1815C40.3002 72.527 40.1735 72.8428 40.0452 73.1308C39.9136 73.4187 39.7672 73.677 39.5961 73.8875C39.4266 74.0981 39.2292 74.2544 39.04 74.3564C38.8492 74.4584 38.6682 74.5061 38.5218 74.5357C38.3737 74.5588 38.2569 74.5703 38.1779 74.567C38.099 74.567 38.0578 74.567 38.0578 74.5637C38.0578 74.5604 38.099 74.5555 38.1779 74.5505C38.2569 74.5472 38.3704 74.5308 38.5168 74.5028C38.66 74.4683 38.836 74.4173 39.0186 74.3136C39.1996 74.21 39.3871 74.057 39.55 73.8481C39.7129 73.6408 39.8544 73.3858 39.981 73.0995C40.1061 72.8132 40.2278 72.5007 40.3101 72.1601C40.4812 71.4774 40.5322 70.7008 40.5667 69.8881C40.6029 69.0754 40.6128 68.2923 40.7691 67.5947C40.9204 66.9005 41.2215 66.2984 41.6262 65.9331C42.0243 65.5564 42.4751 65.4363 42.7696 65.405C42.8436 65.3952 42.9111 65.3902 42.9687 65.3919C43.0263 65.3902 43.0756 65.3902 43.1151 65.3919C43.1941 65.3968 43.2352 65.4001 43.2352 65.4034L43.2303 65.4067Z" fill="#263238"/>
<path d="M50.1531 62.785C50.1531 62.808 47.4879 62.8277 44.2009 62.8277C40.9138 62.8277 38.2487 62.808 38.2487 62.785C38.2487 62.7619 40.9138 62.7422 44.2009 62.7422C47.4879 62.7422 50.1531 62.7619 50.1531 62.785Z" fill="#E0E0E0"/>
<path d="M50.3983 64.5545C50.3983 64.5775 47.8219 64.5973 44.6435 64.5973C41.465 64.5973 38.887 64.5775 38.887 64.5545C38.887 64.5315 41.4633 64.5117 44.6435 64.5117C47.8236 64.5117 50.3983 64.5315 50.3983 64.5545Z" fill="#E0E0E0"/>
<path d="M58.5156 67.9959C58.5156 68.0189 55.8504 68.0387 52.5633 68.0387C49.2763 68.0387 46.6111 68.0189 46.6111 67.9959C46.6111 67.9729 49.2763 67.9531 52.5633 67.9531C55.8504 67.9531 58.5156 67.9729 58.5156 67.9959Z" fill="#E0E0E0"/>
<path d="M58.6636 70.0662C58.6636 70.0892 56.2189 70.109 53.2033 70.109C50.1877 70.109 47.743 70.0892 47.743 70.0662C47.743 70.0432 50.1877 70.0234 53.2033 70.0234C56.2189 70.0234 58.6636 70.0432 58.6636 70.0662Z" fill="#E0E0E0"/>
<path d="M48.7152 23.9805H47.557C47.2708 23.9805 47.0388 24.2125 47.0388 24.4987V25.6569C47.0388 25.9431 47.2708 26.1751 47.557 26.1751H48.7152C49.0015 26.1751 49.2335 25.9431 49.2335 25.6569V24.4987C49.2335 24.2125 49.0015 23.9805 48.7152 23.9805Z" fill="white"/>
<path d="M8.16333 21.5711L7.07587 21.4395C6.38655 21.9002 5.55244 22.1618 4.64924 22.1387C2.52039 22.0861 0.74854 20.3883 0.598829 18.2627C0.426086 15.8081 2.39865 13.7303 4.87628 13.7944C6.98045 13.8487 8.7375 15.5054 8.91847 17.603C9.00731 18.6444 8.71117 19.6183 8.15182 20.3965H8.15346L8.16333 21.5695V21.5711Z" fill="white"/>
<path d="M8.16335 21.5724C8.16335 21.5724 8.1617 21.5445 8.16006 21.4935C8.16006 21.4392 8.15677 21.3635 8.15512 21.2664C8.15183 21.0657 8.14525 20.7745 8.13867 20.3978L8.16335 20.4093C8.16335 20.4093 8.16335 20.4093 8.1617 20.4093C8.15512 20.4142 8.14525 20.4142 8.14032 20.4076C8.13538 20.4027 8.13538 20.3945 8.14032 20.3896C8.43645 19.9684 8.76548 19.3449 8.87242 18.5305C8.92671 18.1258 8.92013 17.6783 8.83787 17.2127C8.75068 16.7488 8.57464 16.27 8.29825 15.8176C8.02022 15.3685 7.64018 14.949 7.17131 14.6117C6.70243 14.2761 6.14637 14.0145 5.53601 13.9043C4.92894 13.7908 4.27416 13.8138 3.64406 13.9865C3.01231 14.156 2.41511 14.4998 1.92156 14.9671C1.66492 15.1974 1.45927 15.4738 1.27007 15.7518C1.18617 15.8982 1.09898 16.043 1.02823 16.1927L0.929523 16.423L0.880168 16.5382L0.843974 16.6567C0.635037 17.2835 0.587327 17.9432 0.672876 18.5618C0.755135 19.1836 0.996975 19.7545 1.31614 20.2398C1.63695 20.7252 2.0466 21.1233 2.4875 21.4194C2.9317 21.7139 3.40715 21.908 3.86945 22.0133C3.98625 22.0331 4.10142 22.0545 4.21493 22.0742C4.32845 22.0907 4.44197 22.094 4.55219 22.1038C4.77265 22.1203 4.98652 22.1104 5.19052 22.0923C6.00982 22.0117 6.64321 21.704 7.06931 21.426C7.0726 21.4244 7.07589 21.4227 7.07918 21.4244C7.42466 21.4704 7.69447 21.505 7.88038 21.5297C7.97086 21.5428 8.03996 21.551 8.09096 21.5593C8.13867 21.5659 8.16499 21.5708 8.16499 21.5708C8.16499 21.5708 8.14196 21.5708 8.0959 21.5659C8.04654 21.5609 7.97744 21.5527 7.8886 21.5445C7.69941 21.5231 7.42631 21.4935 7.07589 21.4556H7.08576C6.66131 21.7402 6.02462 22.0561 5.19546 22.1433C4.98981 22.163 4.77265 22.1762 4.5489 22.1598C4.43703 22.1499 4.32187 22.1482 4.20835 22.1318C4.09319 22.112 3.97638 22.0923 3.85793 22.0726C3.38741 21.9689 2.90538 21.7748 2.45295 21.477C2.00218 21.1776 1.58759 20.7745 1.25856 20.2826C0.932814 19.7907 0.684393 19.2083 0.600489 18.5766C0.513295 17.9465 0.559359 17.2769 0.773232 16.6369L0.811071 16.5168L0.860426 16.4C0.89333 16.3227 0.927878 16.2437 0.960782 16.1664C1.03317 16.0134 1.12201 15.8653 1.20756 15.7173C1.40004 15.4326 1.61062 15.153 1.87056 14.9177C2.37234 14.4406 2.9827 14.0918 3.62596 13.9191C4.26758 13.7431 4.93223 13.7217 5.55081 13.8385C6.17269 13.9503 6.73698 14.2185 7.21244 14.5607C7.68789 14.9045 8.07286 15.3306 8.35254 15.788C8.63058 16.247 8.80826 16.734 8.8938 17.2045C8.97606 17.6767 8.97935 18.1291 8.92177 18.5387C8.80826 19.363 8.46935 19.9898 8.16664 20.4093L8.14525 20.3879H8.1469C8.15348 20.383 8.16335 20.383 8.16828 20.3896C8.16993 20.3928 8.17157 20.3961 8.17157 20.3994C8.17157 20.7795 8.17157 21.0739 8.17157 21.2763C8.17157 21.3717 8.17157 21.4458 8.17157 21.5C8.17157 21.5494 8.16993 21.5741 8.16993 21.5741L8.16335 21.5724Z" fill="#263238"/>
<path d="M2.9169 18.225L3.44007 17.6656L4.51436 18.5573L6.4968 16.5156L7.01832 17.0404L4.47323 19.6036L2.9169 18.225Z" fill="#16855C"/>
<path d="M12.1216 16.2457C12.3734 14.6186 13.831 13.4588 15.4712 13.5788L15.6341 13.5904C17.3845 13.8207 18.1677 15.4379 17.888 17.1818L17.2776 23.3709L17.248 24.6509L13.0775 25.0292L13.1663 22.3279C13.1663 22.3279 11.4948 21.9413 11.5968 20.25C11.6462 19.4324 11.8847 17.7592 12.1184 16.2457H12.1216Z" fill="#FFBF9D"/>
<path d="M13.1548 22.3229C13.1548 22.3229 14.2291 22.466 15.417 21.8359C15.417 21.8359 14.8296 23.0567 13.1532 22.7803V22.3229H13.1548Z" fill="#FF9A6C"/>
<path d="M12.7765 17.9315C12.7633 18.0582 12.8587 18.175 12.992 18.1914C13.1236 18.2079 13.242 18.119 13.2568 17.9924C13.27 17.8657 13.1746 17.7489 13.043 17.7324C12.9097 17.716 12.7913 17.8048 12.7781 17.9315H12.7765Z" fill="#263238"/>
<path d="M12.4244 17.101C12.4523 17.1339 12.6448 17.0122 12.9048 17.0319C13.1647 17.0484 13.3457 17.1948 13.3753 17.1652C13.3901 17.152 13.3638 17.0928 13.2848 17.027C13.2075 16.9612 13.0726 16.8921 12.9097 16.8805C12.7485 16.869 12.607 16.92 12.5247 16.9743C12.4408 17.0303 12.4096 17.0845 12.4227 17.0994L12.4244 17.101Z" fill="#263238"/>
<path d="M15.2096 18.162C15.1965 18.2886 15.2919 18.4055 15.4252 18.4219C15.5568 18.4384 15.6752 18.3495 15.69 18.2228C15.7032 18.0962 15.6078 17.9794 15.4745 17.9629C15.3413 17.9464 15.2228 18.0353 15.2096 18.162Z" fill="#263238"/>
<path d="M14.9727 17.3315C15.0007 17.3644 15.1932 17.2426 15.4531 17.2624C15.7131 17.2788 15.894 17.4252 15.9237 17.3956C15.9385 17.3825 15.9121 17.3232 15.8332 17.2574C15.7558 17.1916 15.6209 17.1225 15.4597 17.111C15.2985 17.0995 15.157 17.1505 15.0747 17.2048C14.9908 17.2607 14.9596 17.315 14.9727 17.3298V17.3315Z" fill="#263238"/>
<path d="M13.8903 19.1906C13.8919 19.1758 13.734 19.1363 13.474 19.0836C13.4082 19.0721 13.3457 19.054 13.3391 19.0079C13.3276 18.9586 13.3605 18.8895 13.3983 18.8138C13.4724 18.6575 13.5497 18.4947 13.632 18.3236C13.9561 17.6244 14.1963 17.0469 14.1683 17.0354C14.1403 17.0222 13.8541 17.5783 13.53 18.2775C13.451 18.4502 13.377 18.6148 13.3046 18.771C13.2733 18.8451 13.224 18.9273 13.2519 19.0293C13.2667 19.0803 13.3128 19.1198 13.3539 19.1346C13.3951 19.1511 13.4329 19.1544 13.4658 19.1593C13.7274 19.1922 13.8919 19.2054 13.8935 19.1906H13.8903Z" fill="#263238"/>
<path d="M14.642 19.4258C14.5993 19.4209 14.5795 19.7022 14.3229 19.8848C14.0679 20.0675 13.7685 20.0148 13.7635 20.0543C13.7586 20.0724 13.826 20.1135 13.9527 20.1267C14.0761 20.1399 14.262 20.1135 14.4183 20.0017C14.5746 19.8898 14.6503 19.7302 14.6684 19.615C14.6881 19.4982 14.6618 19.4258 14.642 19.4258Z" fill="#263238"/>
<path d="M14.981 16.3093C15.0007 16.3817 15.264 16.3669 15.565 16.4261C15.8677 16.4788 16.1079 16.5857 16.1524 16.5265C16.1721 16.4969 16.1343 16.4278 16.0405 16.3521C15.9467 16.2764 15.7953 16.2007 15.6127 16.1662C15.4318 16.1333 15.2623 16.1497 15.1472 16.1859C15.032 16.2221 14.9711 16.2748 14.981 16.3093Z" fill="#263238"/>
<path d="M12.5741 16.3525C12.6152 16.415 12.7995 16.3673 13.015 16.3788C13.2305 16.3837 13.4098 16.4479 13.4559 16.3887C13.4756 16.3607 13.4526 16.2982 13.3769 16.2373C13.3029 16.1764 13.1746 16.1205 13.0265 16.1139C12.8784 16.1073 12.7468 16.1518 12.6662 16.2077C12.5856 16.2636 12.556 16.3212 12.5741 16.3525Z" fill="#263238"/>
<path d="M17.4965 18.8069C17.5261 18.547 17.7663 18.3578 18.0246 18.4006C18.3372 18.4532 18.6761 18.6572 18.607 19.3071C18.4852 20.4603 17.3533 20.1 17.355 20.0671C17.355 20.0441 17.4422 19.2873 17.4965 18.8053V18.8069Z" fill="#FFBF9D"/>
<path d="M17.6511 19.6597C17.6511 19.6597 17.6692 19.6762 17.7021 19.6943C17.7333 19.7124 17.7893 19.7288 17.8518 19.7124C17.9785 19.6811 18.1018 19.4985 18.1282 19.2912C18.1413 19.1859 18.1298 19.0839 18.1018 18.9984C18.0755 18.9095 18.0278 18.8454 17.9669 18.8289C17.9077 18.8092 17.86 18.8404 17.8419 18.8717C17.8238 18.903 17.8287 18.926 17.8222 18.9276C17.8189 18.9309 17.7991 18.9063 17.8139 18.8585C17.8205 18.8355 17.837 18.8108 17.8666 18.7911C17.8962 18.7713 17.939 18.7648 17.9801 18.773C18.0689 18.7878 18.1397 18.8783 18.1709 18.9737C18.2071 19.0691 18.2219 19.1843 18.2071 19.3027C18.1759 19.5347 18.0344 19.7387 17.8617 19.77C17.7777 19.7831 17.7136 19.7502 17.6807 19.7206C17.6478 19.6877 17.6445 19.6614 17.6494 19.6597H17.6511Z" fill="#FF9A6C"/>
<path d="M18.421 17.6308C18.3256 17.9615 18.3602 18.511 18.064 18.4353C17.4784 18.2873 17.6182 19.4899 17.3369 19.3714C17.0588 19.2546 16.8137 18.9124 16.7973 18.1738C16.7759 17.2344 17.1526 16.5566 16.7825 15.4823C16.534 15.0512 16.0931 14.7567 15.5963 14.7452C15.0994 14.7337 14.6191 14.9854 14.3509 15.4049C14.2982 15.0775 14.1387 14.584 13.8475 14.4261C13.5563 14.2681 13.1664 14.2862 12.9147 14.5034C12.6629 14.7205 12.5938 15.1335 12.7929 15.4C12.6597 15.4428 12.5001 15.3868 12.4244 15.2667C12.4129 15.4197 12.4672 15.576 12.5708 15.6879C12.4507 15.6583 12.3438 15.5826 12.273 15.4806C12.3027 15.6155 12.3306 15.7521 12.3602 15.887C11.8667 15.9001 11.383 15.4214 11.2448 14.9953C11.0375 14.3504 11.1971 13.6989 11.5574 13.1247C11.9177 12.5506 12.5642 12.1458 13.242 12.1524C13.9199 12.159 14.4891 12.4798 14.7507 13.105C15.1916 12.794 16.0833 12.6855 16.5735 12.9092C17.0638 13.1329 17.4208 13.6281 17.4751 14.1645C17.7827 14.0345 18.1512 14.1349 18.4095 14.3454C18.4309 14.3635 18.4523 14.3816 18.472 14.3997C18.8274 14.7271 18.9722 15.2256 18.8817 15.6994C18.8455 15.887 18.7813 16.0827 18.7419 16.2325C18.6283 16.6816 18.4194 17.6276 18.4194 17.6276L18.421 17.6308Z" fill="#263238"/>
<path d="M12.3454 15.238C12.3454 15.238 12.3306 15.2281 12.3059 15.2067C12.2813 15.1853 12.2467 15.1508 12.2089 15.0998C12.1315 15.0011 12.0411 14.8349 12.0147 14.6095C11.9868 14.3891 12.0378 14.0962 12.2451 13.8692C12.4425 13.6455 12.7765 13.4859 13.1269 13.5369C13.2996 13.5616 13.4592 13.6307 13.5941 13.7195C13.7307 13.81 13.8458 13.9186 13.9379 14.0354C14.1271 14.2657 14.2357 14.5191 14.2917 14.7346C14.3476 14.9517 14.3542 15.136 14.3492 15.261C14.3443 15.3235 14.341 15.3713 14.3344 15.4042C14.3295 15.4371 14.3262 15.4535 14.3246 15.4535C14.3098 15.4535 14.3739 15.1738 14.2571 14.7444C14.1979 14.5339 14.0877 14.2887 13.9018 14.065C13.7191 13.8445 13.4493 13.6356 13.1186 13.5879C12.788 13.5402 12.4688 13.6899 12.2796 13.9021C12.0822 14.1143 12.0279 14.3924 12.0509 14.6062C12.0723 14.8251 12.1546 14.9896 12.2253 15.0899C12.2961 15.1903 12.3504 15.2347 12.3454 15.2396V15.238Z" fill="#07271D"/>
<path d="M12.12 15.7562C12.12 15.7562 12.1069 15.7381 12.0855 15.7003C12.0641 15.6624 12.0328 15.6065 11.995 15.5341C11.921 15.3877 11.8074 15.1754 11.7235 14.8908C11.6824 14.7493 11.6512 14.5865 11.6479 14.4121C11.6446 14.2377 11.6693 14.0469 11.7482 13.8642C11.8255 13.6816 11.9637 13.5122 12.1447 13.3937C12.3257 13.2753 12.5428 13.1996 12.7715 13.1864C13.0002 13.1716 13.2239 13.216 13.4247 13.2901C13.6254 13.3658 13.8047 13.4727 13.9593 13.5944C14.2703 13.8363 14.4743 14.1505 14.5434 14.4417C14.6158 14.7329 14.5697 14.983 14.5088 15.136C14.4792 15.2133 14.4447 15.2692 14.4233 15.3054C14.3986 15.3416 14.3838 15.3597 14.3821 15.3581C14.3772 15.3548 14.4364 15.2824 14.4907 15.1294C14.5434 14.978 14.5829 14.7329 14.5088 14.4516C14.4364 14.1702 14.2357 13.8675 13.9314 13.6323C13.6303 13.3987 13.2207 13.2111 12.7765 13.2374C12.556 13.2506 12.3471 13.323 12.1727 13.4365C11.9999 13.55 11.8667 13.7096 11.7926 13.884C11.717 14.0584 11.6906 14.2426 11.6923 14.4137C11.6923 14.5848 11.7219 14.7428 11.7614 14.8842C11.8404 15.1656 11.9473 15.3811 12.0164 15.5292C12.0493 15.5999 12.0773 15.6558 12.0986 15.7003C12.1167 15.7397 12.1266 15.7611 12.125 15.7611L12.12 15.7562Z" fill="#07271D"/>
<path d="M18.013 16.8819C18.013 16.8819 18.12 16.7948 18.2598 16.6286C18.3996 16.4641 18.5609 16.2008 18.6283 15.8751C18.6958 15.5494 18.653 15.2434 18.5905 15.0377C18.528 14.8288 18.4556 14.712 18.4655 14.707C18.4687 14.707 18.4885 14.7334 18.5197 14.786C18.551 14.8403 18.5905 14.9209 18.6267 15.0262C18.7007 15.2351 18.7501 15.5494 18.681 15.885C18.6119 16.2206 18.4391 16.4904 18.2894 16.6516C18.2137 16.7339 18.1463 16.7931 18.0969 16.8293C18.0476 16.8671 18.018 16.8836 18.0163 16.8803L18.013 16.8819Z" fill="#07271D"/>
<path d="M16.9618 16.8517C16.9618 16.8517 17.0194 16.8253 17.1115 16.7628C17.2003 16.7003 17.3237 16.5901 17.4027 16.4124L17.4521 16.3022L17.4405 16.4223C17.4257 16.5851 17.4093 16.7727 17.3912 16.975L17.3533 16.952C17.4899 16.8599 17.6215 16.7348 17.7301 16.5818C17.8683 16.3894 17.9522 16.1755 17.9884 15.9731C18.0229 15.7708 18.0131 15.5832 17.9851 15.4302C17.9259 15.1226 17.8107 14.9581 17.8222 14.9531C17.8222 14.9531 17.8304 14.9614 17.8436 14.9811C17.8568 15.0008 17.8732 15.0304 17.8946 15.0699C17.9357 15.1489 17.9867 15.2674 18.0196 15.4236C18.0525 15.5783 18.0673 15.7724 18.0344 15.9814C17.9999 16.1903 17.9143 16.4124 17.7712 16.6115C17.6593 16.7678 17.5212 16.8977 17.3797 16.9915L17.3369 17.0195L17.3418 16.9685C17.3632 16.7661 17.383 16.5786 17.4011 16.4173L17.4389 16.4272C17.3517 16.6131 17.2201 16.7217 17.123 16.7809C17.0753 16.8105 17.0342 16.8286 17.0062 16.8385C16.9782 16.8484 16.9634 16.8517 16.9618 16.85V16.8517Z" fill="#07271D"/>
<path d="M16.641 14.4204C16.6311 14.427 16.5817 14.2559 16.3744 14.0864C16.2708 14.0042 16.1293 13.9268 15.9582 13.8939C15.7888 13.8594 15.5913 13.8742 15.4021 13.9449C15.2129 14.0157 15.0534 14.1292 14.9366 14.2592C14.8181 14.3875 14.7391 14.5273 14.6865 14.6491C14.5812 14.8942 14.5713 15.0653 14.5598 15.062C14.5565 15.062 14.5565 15.0192 14.568 14.9452C14.5796 14.8695 14.6026 14.7626 14.6519 14.6359C14.7029 14.5092 14.7803 14.3644 14.9004 14.2279C15.0205 14.0913 15.1866 13.9712 15.3824 13.8972C15.5798 13.8248 15.7871 13.81 15.9648 13.8495C16.1441 13.8873 16.2905 13.9729 16.3942 14.0617C16.4978 14.1522 16.562 14.2443 16.5965 14.3118C16.613 14.3463 16.6262 14.3727 16.6311 14.3924C16.6377 14.4122 16.641 14.422 16.6393 14.422L16.641 14.4204Z" fill="#07271D"/>
<path d="M16.3711 13.538C16.3662 13.5478 16.2593 13.4623 16.052 13.4146C15.8496 13.3652 15.542 13.3734 15.259 13.5264C14.976 13.6811 14.7951 13.9262 14.698 14.1105C14.5976 14.2964 14.5664 14.4263 14.5565 14.4247C14.5532 14.4247 14.5581 14.3902 14.5746 14.3326C14.5911 14.275 14.619 14.1911 14.6667 14.094C14.7589 13.9015 14.9415 13.6432 15.236 13.482C15.5321 13.3208 15.8545 13.3208 16.0618 13.38C16.1671 13.4096 16.2461 13.4475 16.2971 13.4804C16.3481 13.5133 16.3728 13.5347 16.3711 13.538Z" fill="#07271D"/>
<path d="M12.658 68.0193L12.7748 71.183C12.7748 71.183 9.59799 72.3642 9.5618 72.9499L15.7049 72.945L15.7263 68.0078L12.658 68.0193Z" fill="#263238"/>
<path d="M14.6733 70.9136C14.7917 70.9465 14.874 71.0797 14.8477 71.1998C14.8197 71.3199 14.6848 71.4055 14.5664 71.3742C14.4463 71.3446 14.3426 71.1867 14.3837 71.0699C14.4249 70.9531 14.5894 70.8626 14.698 70.9202" fill="#E0E0E0"/>
<path d="M15.7048 72.9438L15.6867 72.4453L9.80357 72.6362C9.80357 72.6362 9.53047 72.7546 9.56173 72.9487L15.7048 72.9438Z" fill="#263238"/>
<path d="M12.6744 71.1517C12.6744 71.1813 12.8257 71.1944 12.9738 71.2915C13.1235 71.3836 13.2008 71.5136 13.2272 71.5021C13.2551 71.4955 13.2107 71.3162 13.0297 71.2043C12.8504 71.0892 12.6694 71.1254 12.6744 71.1533V71.1517Z" fill="white"/>
<path d="M12.0295 71.4173C12.0229 71.4469 12.1529 71.4979 12.2549 71.6246C12.3602 71.7479 12.3865 71.8861 12.4161 71.8845C12.4441 71.8894 12.4655 71.7134 12.3355 71.5588C12.2072 71.4025 12.0312 71.3893 12.0295 71.4189V71.4173Z" fill="white"/>
<path d="M11.6643 72.1886C11.6923 72.1952 11.7334 72.0455 11.6561 71.881C11.5804 71.7165 11.4389 71.6523 11.4258 71.677C11.4093 71.7017 11.4998 71.7905 11.5607 71.9254C11.6248 72.0603 11.6331 72.1853 11.6643 72.1886Z" fill="white"/>
<path d="M12.7271 70.4282C12.7402 70.4562 12.8768 70.4134 13.0462 70.4249C13.2157 70.4331 13.3473 70.4891 13.3638 70.4644C13.3819 70.443 13.2519 70.3311 13.0528 70.3213C12.8538 70.3098 12.7123 70.4052 12.7271 70.4282Z" fill="white"/>
<path d="M19.7059 68.3086L19.951 72.132L19.2732 75.2117C19.2239 75.4338 19.3736 75.651 19.599 75.6839C19.724 75.702 19.8507 75.6609 19.9395 75.5687C20.5005 74.9847 22.5537 72.8262 22.5208 72.5466C22.4813 72.2241 22.5307 68.4978 22.5307 68.4978L19.7092 68.3102L19.7059 68.3086Z" fill="#263238"/>
<path d="M19.5973 75.6847L22.5076 72.2891L22.5142 72.4519C22.5191 72.5918 22.4764 72.73 22.3892 72.8402C22.1572 73.1363 21.5008 73.9375 19.9477 75.5695C19.8573 75.665 19.7256 75.7077 19.5957 75.6847H19.5973Z" fill="#263238"/>
<g opacity="0.6">
<path d="M21.6719 71.0845C21.5781 71.1553 21.5535 71.3017 21.6193 71.3971C21.6851 71.4925 21.8348 71.5205 21.9286 71.4514C22.0223 71.3823 22.0585 71.2079 21.9829 71.1207C21.9055 71.0335 21.7295 71.0105 21.6555 71.0993" fill="white"/>
</g>
<path d="M20.4035 73.9745C20.3821 73.986 20.2883 73.7886 20.0564 73.6899C19.8277 73.5846 19.6187 73.6471 19.6122 73.624C19.6089 73.6142 19.6549 73.5829 19.7454 73.5665C19.8343 73.55 19.9642 73.5566 20.0909 73.6125C20.2176 73.6685 20.3114 73.7606 20.3574 73.8363C20.4051 73.9136 20.4134 73.9695 20.4035 73.9728V73.9745Z" fill="white"/>
<path d="M20.1518 74.4998C20.1337 74.5179 20.007 74.3978 19.8063 74.3484C19.6072 74.2958 19.4378 74.3385 19.4312 74.3155C19.4197 74.2958 19.6006 74.2069 19.8277 74.2662C20.0563 74.3221 20.1715 74.4866 20.1534 74.4981L20.1518 74.4998Z" fill="white"/>
<path d="M20.8839 73.2962C20.8674 73.3143 20.6716 73.13 20.3656 73.028C20.0629 72.9211 19.7948 72.9441 19.7931 72.9194C19.7865 72.8997 20.0679 72.8339 20.3936 72.9491C20.7193 73.0609 20.902 73.2863 20.8839 73.2978V73.2962Z" fill="white"/>
<path d="M20.9069 72.1304C20.897 72.1535 20.6831 72.0745 20.4067 72.0762C20.1303 72.0745 19.9165 72.1518 19.9066 72.1288C19.8951 72.1107 20.1106 71.989 20.4067 71.9923C20.7029 71.9923 20.9184 72.1124 20.9069 72.1321V72.1304Z" fill="white"/>
<path d="M20.8642 71.0046C20.8526 71.0277 20.6355 70.9092 20.3459 70.9339C20.0547 70.952 19.8573 71.1033 19.8441 71.082C19.8376 71.0737 19.8771 71.0244 19.9642 70.9701C20.0498 70.9158 20.1847 70.8615 20.341 70.85C20.4973 70.8385 20.6388 70.8714 20.7309 70.9125C20.8247 70.9536 20.8707 70.9964 20.8658 71.0046H20.8642Z" fill="white"/>
<path d="M20.3426 70.7181C20.3426 70.7181 20.3278 70.6672 20.3311 70.5734C20.336 70.4796 20.3574 70.343 20.4298 70.19C20.4676 70.1177 20.5071 70.0239 20.6124 69.9696C20.665 69.9416 20.744 69.9482 20.7917 69.9976C20.8394 70.0453 20.8559 70.1078 20.8592 70.1687C20.8658 70.4121 20.6667 70.6556 20.3952 70.7017C20.1221 70.7428 19.8671 70.5964 19.7503 70.3908C19.724 70.3381 19.7059 70.2707 19.7322 70.2049C19.7586 70.139 19.8359 70.1094 19.8902 70.116C20.0053 70.1275 20.0794 70.19 20.1485 70.2361C20.285 70.3365 20.3706 70.4451 20.4216 70.5224C20.4726 70.6013 20.4907 70.6507 20.4857 70.6523C20.4726 70.6622 20.3821 70.4681 20.1139 70.2838C20.0465 70.241 19.9691 70.1884 19.8869 70.1835C19.8474 70.1818 19.8128 70.1983 19.7997 70.2312C19.7865 70.2624 19.7964 70.3101 19.8194 70.3529C19.9181 70.5207 20.1517 70.654 20.3821 70.6161C20.6108 70.58 20.7868 70.3644 20.7835 70.1703C20.7835 70.1226 20.767 70.0765 20.7407 70.0502C20.7144 70.0239 20.6766 70.0173 20.642 70.0338C20.568 70.0667 20.5219 70.1489 20.4841 70.218C20.3344 70.5059 20.3607 70.7231 20.3426 70.7198V70.7181Z" fill="white"/>
<path d="M9.96651 41.2734C9.96651 41.2734 9.4598 43.065 9.57825 45.2662C9.62431 46.1168 12.3586 70.717 12.3586 70.717L15.8381 70.4045L15.236 47.405L15.3824 47.5349C15.3824 47.5349 17.4553 57.2118 17.5919 58.7402C17.7153 60.1156 19.3703 71.1612 19.3703 71.1612L22.7462 71L21.9812 57.0374L20.9579 44.3614L20.5483 40.668L9.96815 41.2734H9.96651Z" fill="#263238"/>
<path d="M15.9039 45.4211C15.9039 45.4211 15.848 45.4573 15.741 45.5083C15.6325 45.556 15.4729 45.63 15.2574 45.6646C15.1504 45.681 15.0287 45.6843 14.9004 45.6596C14.7737 45.6349 14.6388 45.5774 14.5318 45.4721C14.4249 45.3668 14.3558 45.222 14.3147 45.0706C14.2719 44.9193 14.2505 44.7614 14.2209 44.6018C14.1123 43.9618 14.0416 43.3761 14.0037 42.9533C13.984 42.7411 13.9725 42.57 13.9659 42.4515C13.9593 42.3331 13.9593 42.2673 13.9659 42.2656C13.9708 42.2656 13.9824 42.3298 13.9988 42.4482C14.0153 42.5831 14.0366 42.7493 14.063 42.9467C14.1173 43.3679 14.1962 43.9486 14.3048 44.5886C14.3607 44.9045 14.3953 45.2253 14.5878 45.4178C14.7803 45.607 15.0517 45.6316 15.2524 45.607C15.4597 45.5806 15.6209 45.5165 15.7312 45.4786C15.843 45.4375 15.9039 45.4161 15.9072 45.4211H15.9039Z" fill="#07271D"/>
<path d="M14.8083 42.3968C14.8083 42.3968 14.8346 42.377 14.8889 42.3754C14.9432 42.3721 15.0238 42.3902 15.1044 42.4494C15.1801 42.5086 15.2607 42.6123 15.2607 42.7521C15.264 42.8936 15.1505 43.0301 15.0057 43.0795C14.8626 43.1322 14.6882 43.096 14.6026 42.9824C14.5154 42.8722 14.5138 42.7422 14.5368 42.6485C14.5615 42.5531 14.6141 42.4872 14.6586 42.456C14.703 42.4231 14.7342 42.4198 14.7342 42.4231C14.7441 42.4346 14.624 42.4856 14.5927 42.66C14.5796 42.7422 14.5895 42.8525 14.6602 42.9331C14.7277 43.0153 14.8593 43.0433 14.9794 43.0005C15.0995 42.9594 15.185 42.8558 15.1867 42.7488C15.1916 42.6419 15.1307 42.5481 15.0698 42.4922C14.9366 42.3754 14.8099 42.4099 14.8116 42.3951L14.8083 42.3968Z" fill="#07271D"/>
<path d="M20.9069 44.1338C20.9069 44.1338 20.8608 44.1454 20.7752 44.1519C20.6897 44.1585 20.5647 44.1585 20.4117 44.147C20.1057 44.1256 19.6829 44.0417 19.2518 43.8492C18.8224 43.6551 18.4769 43.3952 18.2581 43.1796C18.1479 43.0727 18.0656 42.9806 18.013 42.9115C17.9604 42.844 17.934 42.8045 17.939 42.8013C17.9505 42.7914 18.0706 42.9378 18.2976 43.1369C18.523 43.3376 18.8652 43.5844 19.2847 43.7735C19.7059 43.9611 20.1172 44.0532 20.4166 44.0878C20.7177 44.124 20.9052 44.1174 20.9069 44.1322V44.1338Z" fill="#07271D"/>
<path d="M11.5294 42.3906C11.5376 42.3956 11.4685 42.5502 11.3188 42.7805C11.1708 43.0109 10.9355 43.3119 10.6279 43.5982C10.3202 43.8828 10.0027 44.095 9.76085 44.2266C9.52065 44.3582 9.35943 44.4158 9.35614 44.4076C9.3512 44.3961 9.50091 44.3188 9.73124 44.1773C9.96156 44.0358 10.2692 43.8186 10.5719 43.539C10.8746 43.2576 11.1115 42.9681 11.2711 42.7493C11.4307 42.5305 11.5179 42.3857 11.5294 42.3923V42.3906Z" fill="#07271D"/>
<path d="M8.07786 28.5C7.55963 30.0086 7.61721 29.8803 6.6515 34.3864C6.47382 35.2172 6.78804 36.5186 7.53824 36.92C8.28844 37.3214 9.62103 36.8805 10.0669 36.1566L10.7858 29.3538L8.07951 28.5H8.07786Z" fill="#FFBF9D"/>
<path d="M20.5483 36.6755L20.5285 33.0906L20.5433 32.7386L24.1808 31.8897C24.1808 31.8897 23.4668 29.5371 22.812 27.0084C22.4336 25.5492 21.1751 24.8138 20.8707 24.6558L20.8049 24.6229L17.304 23.1406C16.5965 23.8958 15.5667 24.4995 14.5746 24.21C14.0317 24.0521 13.4757 23.6506 13.1351 23.2278L10.7743 24.0372C10.1689 24.2593 9.52724 24.6822 9.14227 25.36C8.64872 26.2335 7.071 30.2379 7.04303 30.3284L9.96486 30.5916C9.96486 30.5916 9.44663 40.0695 9.62924 41.764C9.62924 41.764 10.3383 42.2542 12.1299 42.3398C15.7608 42.5109 21.1652 42.2526 21.1652 42.2526C21.0813 41.7047 20.9924 40.7917 20.9414 40.3294L20.5466 36.6755H20.5483Z" fill="#16855C"/>
<path d="M10.0636 27.0625C10.0784 27.0625 10.0011 29.323 9.89084 32.1115C9.78061 34.9001 9.67861 37.1589 9.6638 37.1589C9.649 37.1589 9.72632 34.8985 9.83655 32.1099C9.94677 29.323 10.0488 27.0625 10.0636 27.0641V27.0625Z" fill="#263238"/>
<path d="M20.1484 27.6914C20.1221 27.6914 20.1962 29.6985 20.313 32.1712C20.4298 34.6439 20.5449 36.6477 20.5713 36.6477C20.5976 36.6477 20.5235 34.6406 20.4067 32.1679C20.2899 29.6952 20.1748 27.6914 20.1484 27.6931V27.6914Z" fill="#263238"/>
<path d="M24.1972 33.5961C24.0788 32.7061 23.9801 31.9197 23.9801 31.9197L21.0714 32.5959L21.1965 33.0647L18.9475 30.7812L18.5921 30.8125L17.4603 31.9905C17.4603 31.9905 18.4474 34.0749 19.0215 34.886C19.7684 35.9422 20.9415 37.5511 22.5488 37.4162C24.0344 37.2912 24.4111 35.1952 24.1989 33.5994L24.1972 33.5961Z" fill="#FFBF9D"/>
<path d="M22.6212 34.1301C22.6393 34.1137 22.3728 33.8241 21.9812 33.5428C21.5913 33.2598 21.2327 33.1003 21.2211 33.1233C21.208 33.148 21.5419 33.3421 21.9253 33.6201C22.3102 33.8965 22.5998 34.1515 22.6195 34.1318L22.6212 34.1301Z" fill="#FF9A6C"/>
<path d="M15.0204 27.7991L16.0191 27.2891L17.3155 27.7004L17.9587 28.2926L18.9458 30.7801L19.7372 31.782L18.3404 33.6016L17.4569 31.9893C17.4569 31.9893 16.7067 31.6619 16.4073 31.1881C16.1079 30.716 15.973 30.4577 15.973 30.4577C15.973 30.4577 15.5403 30.2504 15.4597 30.0497C15.3791 29.8506 15.3824 29.6943 15.3824 29.6943L15.6012 29.3751C15.6012 29.3751 15.5798 29.0774 15.667 28.9671C15.7542 28.8569 15.8397 28.8306 15.8397 28.8306C15.8397 28.8306 15.7756 28.5608 15.8759 28.4637C15.9763 28.3667 16.4748 28.189 16.4748 28.189L16.0388 27.9406C16.0388 27.9406 15.0714 28.24 15.0172 27.7974L15.0204 27.7991Z" fill="#FFBF9D"/>
<path d="M16.5044 28.7029C16.5044 28.7161 16.3514 28.7194 16.1688 28.7589C15.9862 28.7967 15.8447 28.8559 15.8381 28.8444C15.8332 28.8346 15.9698 28.7572 16.159 28.7177C16.3481 28.6766 16.5044 28.6931 16.5044 28.7046V28.7029Z" fill="#FF9A6C"/>
<path d="M16.2034 29.2629C16.2034 29.2761 16.0718 29.2745 15.9138 29.2991C15.7559 29.3222 15.6308 29.3617 15.6276 29.3501C15.6226 29.3403 15.7444 29.281 15.9089 29.258C16.0718 29.2333 16.205 29.2531 16.205 29.2629H16.2034Z" fill="#FF9A6C"/>
<path d="M15.7805 30.1362C15.769 30.1362 15.7608 30.0786 15.7624 30.0095C15.7624 29.9387 15.774 29.8828 15.7871 29.8828C15.7986 29.8828 15.8069 29.9404 15.8052 30.0095C15.8052 30.0802 15.7937 30.1362 15.7805 30.1362Z" fill="#FF9A6C"/>
<path d="M15.973 30.4027C15.9615 30.4027 15.9681 30.281 15.8809 30.1724C15.797 30.0605 15.6769 30.0391 15.6802 30.0276C15.6802 30.0227 15.7114 30.0194 15.7591 30.0342C15.8069 30.049 15.8677 30.0852 15.9154 30.1461C15.9632 30.2069 15.9845 30.2744 15.9862 30.3237C15.9895 30.3731 15.978 30.4027 15.973 30.4027Z" fill="#FF9A6C"/>
<path d="M16.7545 29.6078C16.743 29.6127 16.7002 29.5025 16.5801 29.4367C16.4617 29.3676 16.3448 29.3906 16.3432 29.3774C16.3432 29.3725 16.3695 29.3593 16.4172 29.3561C16.4649 29.3528 16.534 29.3626 16.5998 29.4005C16.6657 29.4367 16.7101 29.491 16.7331 29.5337C16.7561 29.5765 16.7578 29.6078 16.7528 29.6094L16.7545 29.6078Z" fill="#FF9A6C"/>
<path d="M17.2102 29.0535C17.1987 29.0585 17.1592 28.9548 17.0506 28.8874C16.9437 28.8166 16.8335 28.8248 16.8318 28.8117C16.8318 28.8067 16.8581 28.7969 16.9042 28.7969C16.9503 28.7969 17.0144 28.8133 17.0737 28.8512C17.1329 28.889 17.174 28.94 17.1938 28.9811C17.2135 29.0223 17.2151 29.0519 17.2102 29.0519V29.0535Z" fill="#FF9A6C"/>
<path d="M17.5146 28.7824C17.5146 28.7824 17.5113 28.7479 17.5047 28.6969C17.4981 28.6459 17.4784 28.5768 17.4323 28.5142C17.3863 28.4517 17.3254 28.4122 17.2777 28.3909C17.23 28.3695 17.1971 28.3629 17.1987 28.3563C17.1987 28.3514 17.2349 28.3464 17.2892 28.3629C17.3435 28.3777 17.4142 28.4172 17.4669 28.4879C17.5195 28.5587 17.536 28.6393 17.536 28.6952C17.536 28.7511 17.5212 28.784 17.5162 28.7824H17.5146Z" fill="#FF9A6C"/>
<path d="M17.0918 28.131C17.0918 28.1458 16.8828 28.1491 16.6311 28.1885C16.3794 28.228 16.1886 28.3152 16.1836 28.3037C16.1787 28.2955 16.3646 28.1869 16.6245 28.1458C16.7529 28.1244 16.8713 28.1211 16.9552 28.1211C17.0408 28.1211 17.0918 28.126 17.0918 28.131Z" fill="#FF9A6C"/>
<g opacity="0.3">
<path d="M14.2456 33.7485C14.2094 33.459 14.1666 33.1579 13.9988 32.9193C13.706 32.5064 13.1318 32.4192 12.6267 32.4439C12.1217 32.4686 11.5985 32.5673 11.123 32.3945L9.70654 36.6029C10.233 36.4746 10.7019 36.1324 10.9865 35.6717C11.1313 35.4365 11.2366 35.1634 11.4554 34.9955C11.7564 34.7636 12.1759 34.7981 12.556 34.7932C12.9541 34.7883 13.3506 34.7307 13.7339 34.6204C13.8968 34.5727 14.0646 34.5102 14.165 34.3737C14.2933 34.1993 14.2719 33.9607 14.2439 33.7469L14.2456 33.7485Z" fill="black"/>
</g>
<path d="M10.5949 28.8211L11.0358 33.5049C11.0605 33.7649 11.1608 33.9458 11.3254 34.0446L14.1666 33.9837C14.2817 33.8784 14.4084 33.5444 14.3837 33.1874L14.0695 28.7043C14.0514 28.4345 13.9494 28.2404 13.8277 28.2371L10.8351 28.168C10.6821 28.1647 10.5637 28.4872 10.5949 28.8211Z" fill="#263238"/>
<path d="M10.182 29.7647C10.0619 29.6265 10.0784 29.4011 10.1919 29.2564C10.3054 29.1116 10.4946 29.0425 10.6788 29.0392C10.8631 29.0359 11.0424 29.0935 11.2119 29.1626C11.4225 29.2481 11.6232 29.3551 11.8124 29.4801C11.9456 29.5689 12.0838 29.6825 12.1069 29.8404C12.1299 29.9983 11.9539 30.1744 11.8173 30.0921C11.9966 30.1727 12.1743 30.3685 12.199 30.5676C12.2237 30.7683 12.1134 30.8736 11.9193 30.9262C12.0657 30.9871 12.1546 31.1746 12.0838 31.3145C12.0098 31.4625 11.8009 31.4987 11.6479 31.4362C11.4949 31.3737 11.383 31.2404 11.2777 31.1105C11.383 31.303 11.3748 31.6106 11.3287 31.8245C10.9059 31.6682 10.488 31.1977 10.613 30.7502C10.4074 30.5873 10.3136 30.2533 10.4436 30.0247C10.2725 29.9671 10.0833 29.7006 10.1014 29.5196" fill="#FFBF9D"/>
<path d="M10.1343 29.3555L10.0997 31.3576L9.57987 32.1391L7.19766 34.268C7.19766 34.268 7.55137 37.1618 8.62567 36.8459C9.69997 36.5301 9.96155 36.3244 10.5966 35.1563C10.9371 34.5312 11.1461 33.5145 11.3435 32.9304C11.4587 32.5882 11.3567 31.486 11.3567 31.486L10.1327 29.3555H10.1343Z" fill="#FFBF9D"/>
<path d="M11.9127 30.927C11.9127 30.927 11.8419 30.8727 11.7317 30.7822C11.6215 30.6934 11.4603 30.5716 11.2513 30.5223C11.1477 30.4976 11.044 30.4959 10.9552 30.5157C10.8664 30.5354 10.7907 30.5766 10.7364 30.6193C10.6262 30.7065 10.5998 30.7987 10.5916 30.7937C10.59 30.7937 10.5916 30.7707 10.6097 30.7328C10.6262 30.695 10.6591 30.644 10.715 30.5947C10.7709 30.5453 10.8483 30.4992 10.9453 30.4746C11.0407 30.4499 11.1526 30.4515 11.2628 30.4778C11.4849 30.5305 11.6478 30.6638 11.7548 30.7592C11.8617 30.8579 11.9193 30.9253 11.9143 30.9303L11.9127 30.927Z" fill="#FF9A6C"/>
<path d="M11.8848 30.1129C11.8848 30.1129 11.7959 30.0832 11.6627 30.0141C11.5952 29.9812 11.5179 29.9401 11.4258 29.9039C11.3353 29.8694 11.23 29.8398 11.1198 29.8167C11.0095 29.7953 10.9026 29.7904 10.8072 29.8069C10.7134 29.8233 10.6328 29.8595 10.5736 29.9023C10.4535 29.9878 10.4271 30.0832 10.4189 30.0783C10.4173 30.0783 10.4189 30.0536 10.4387 30.0141C10.4567 29.9763 10.4929 29.922 10.5538 29.8743C10.6147 29.8266 10.6986 29.7822 10.7989 29.7624C10.8993 29.7427 11.0128 29.7476 11.128 29.769C11.2415 29.792 11.3468 29.8233 11.4406 29.8611C11.5343 29.9006 11.6117 29.945 11.6775 29.9812C11.8058 30.0569 11.8864 30.103 11.8831 30.1096L11.8848 30.1129Z" fill="#FF9A6C"/>
<path d="M7.45593 35.4175C7.47567 35.4159 7.35064 35.1329 7.42631 34.6723C7.46415 34.4452 7.55299 34.1787 7.70764 33.9155C7.86064 33.6506 8.08109 33.3907 8.33609 33.1439C8.59274 32.8971 8.85597 32.68 9.09123 32.4776C9.32649 32.2753 9.53213 32.0828 9.69336 31.91C9.85294 31.7373 9.96975 31.5826 10.0405 31.4724C10.1129 31.3622 10.1425 31.2947 10.1392 31.2931C10.1343 31.2898 10.0931 31.3507 10.0158 31.4543C9.93685 31.558 9.81675 31.7044 9.65388 31.8706C9.49101 32.0367 9.28207 32.2226 9.04516 32.4217C8.80826 32.6208 8.54174 32.8363 8.28345 33.0863C8.02516 33.3364 7.80141 33.6029 7.64677 33.8777C7.49212 34.1524 7.40493 34.4271 7.37367 34.6624C7.34241 34.8993 7.36215 35.0934 7.39176 35.2218C7.40822 35.2859 7.42138 35.3353 7.43618 35.3682C7.44935 35.4011 7.45593 35.4175 7.45922 35.4159L7.45593 35.4175Z" fill="#FF9A6C"/>
</g>
<defs>
<clipPath id="clip0_3227_4306">
<rect width="74.6135" height="76.285" fill="white"/>
</clipPath>
</defs>
</svg>
