<svg width="91" height="93" viewBox="0 0 91 93" fill="none" xmlns="http://www.w3.org/2000/svg">
<g clip-path="url(#clip0_3227_4915)">
<path d="M21.409 5.83742L14.239 0.223513C13.7782 -0.13724 13.1123 -0.0561781 12.7515 0.404569L0.854057 15.5998C0.493305 16.0606 0.574366 16.7265 1.03511 17.0873L8.2051 22.7012C8.66584 23.0619 9.3318 22.9809 9.69255 22.5201L21.59 7.32488C21.9508 6.86413 21.8697 6.19817 21.409 5.83742Z" fill="#F5F5F5"/>
<path d="M8.44706 20.6632C8.43638 20.6765 7.27274 19.7851 5.84755 18.6695C4.42235 17.5539 3.27739 16.6385 3.28807 16.6251C3.29874 16.6118 4.46239 17.5032 5.88758 18.6188C7.31277 19.7344 8.45773 20.6499 8.44706 20.6632Z" fill="#E1E1E1"/>
<path d="M19.2321 6.2921C19.2214 6.30545 18.0578 5.41403 16.6326 4.29843C15.2074 3.18283 14.0625 2.2674 14.0731 2.25405C14.0838 2.24071 15.2475 3.13212 16.6726 4.24772C18.0978 5.36332 19.2428 6.27876 19.2321 6.2921Z" fill="#E1E1E1"/>
<path d="M5.72207 18.487C5.70872 18.4763 8.16945 15.3056 11.2227 11.409C14.2759 7.50976 16.7606 4.35779 16.774 4.37114C16.7873 4.38181 14.3266 7.5498 11.2734 11.4491C8.22283 15.3457 5.73541 18.4976 5.72207 18.487Z" fill="#E1E1E1"/>
<path d="M12.5305 5.34272L13.179 4.47266L13.9984 5.08383C14.2386 5.26265 14.2893 5.6016 14.1104 5.8418C13.9316 6.082 13.5927 6.13271 13.3525 5.9539L12.5331 5.34272H12.5305Z" fill="#ECECEC"/>
<path d="M13.323 4.58144L12.6745 5.4515L11.8552 4.84032C11.6149 4.66151 11.5642 4.32255 11.7431 4.08235C11.9219 3.84215 12.2608 3.79144 12.501 3.97026L13.3204 4.58144H13.323Z" fill="#E1E1E1"/>
<path d="M16.726 8.54584L17.3746 7.67578L18.1939 8.28696C18.4341 8.46578 18.4848 8.80473 18.306 9.04493C18.1272 9.28513 17.7883 9.33584 17.5481 9.15702L16.7287 8.54584H16.726Z" fill="#ECECEC"/>
<path d="M17.5187 7.78456L16.8702 8.65463L16.0508 8.04345C15.8106 7.86463 15.7599 7.52568 15.9387 7.28548C16.1176 7.04528 16.4565 6.99457 16.6967 7.17338L17.5161 7.78456H17.5187Z" fill="#E1E1E1"/>
<path d="M10.7101 7.73725L11.3587 6.86719L12.178 7.47837C12.4182 7.65718 12.4689 7.99613 12.2901 8.23633C12.1113 8.47654 11.7724 8.52724 11.5322 8.34843L10.7128 7.73725H10.7101Z" fill="#ECECEC"/>
<path d="M11.5029 6.97597L10.8544 7.84603L10.035 7.23485C9.79482 7.05604 9.74411 6.71709 9.92293 6.47688C10.1017 6.23668 10.4407 6.18597 10.6809 6.36479L11.5002 6.97597H11.5029Z" fill="#E1E1E1"/>
<path d="M15.0019 11.0146L15.6504 10.1445L16.4698 10.7557C16.71 10.9345 16.7607 11.2735 16.5819 11.5137C16.4031 11.7539 16.0641 11.8046 15.8239 11.6258L15.0046 11.0146H15.0019Z" fill="#ECECEC"/>
<path d="M15.7973 10.2533L15.1488 11.1234L14.3294 10.5122C14.0892 10.3334 14.0385 9.99443 14.2173 9.75423C14.3961 9.51403 14.7351 9.46332 14.9753 9.64213L15.7947 10.2533H15.7973Z" fill="#E1E1E1"/>
<path d="M8.89001 10.1357L9.53856 9.26562L10.3579 9.8768C10.5981 10.0556 10.6488 10.3946 10.47 10.6348C10.2912 10.875 9.95224 10.9257 9.71204 10.7469L8.89268 10.1357H8.89001Z" fill="#ECECEC"/>
<path d="M9.68532 9.37441L9.03678 10.2445L8.21742 9.63329C7.97722 9.45447 7.92651 9.11552 8.10533 8.87532C8.28415 8.63512 8.6231 8.58441 8.8633 8.76323L9.68265 9.37441H9.68532Z" fill="#E1E1E1"/>
<path d="M13.2803 13.4833L13.9288 12.6133L14.7482 13.2245C14.9884 13.4033 15.0391 13.7422 14.8603 13.9824C14.6815 14.2226 14.3425 14.2733 14.1023 14.0945L13.283 13.4833H13.2803Z" fill="#ECECEC"/>
<path d="M14.073 12.7221L13.4245 13.5921L12.6052 12.9809C12.3649 12.8021 12.3142 12.4632 12.4931 12.223C12.6719 11.9828 13.0108 11.9321 13.251 12.1109L14.0704 12.7221H14.073Z" fill="#E1E1E1"/>
<path d="M6.82693 12.5966L7.47548 11.7266L8.29483 12.3377C8.53503 12.5166 8.58574 12.8555 8.40692 13.0957C8.22811 13.3359 7.88916 13.3866 7.64896 13.2078L6.8296 12.5966H6.82693Z" fill="#ECECEC"/>
<path d="M7.6223 11.8353L6.97376 12.7054L6.15441 12.0942C5.9142 11.9154 5.8635 11.5765 6.04231 11.3363C6.22113 11.0961 6.56008 11.0453 6.80028 11.2242L7.61963 11.8353H7.6223Z" fill="#E1E1E1"/>
<path d="M11.2523 15.8974L11.9008 15.0273L12.7202 15.6385C12.9604 15.8173 13.0111 16.1563 12.8322 16.3965C12.6534 16.6367 12.3145 16.6874 12.0743 16.5086L11.2549 15.8974H11.2523Z" fill="#ECECEC"/>
<path d="M12.0476 15.1361L11.399 16.0062L10.5797 15.395C10.3395 15.2162 10.2888 14.8772 10.4676 14.637C10.6464 14.3968 10.9853 14.3461 11.2255 14.5249L12.0449 15.1361H12.0476Z" fill="#E1E1E1"/>
<path d="M5.00421 15.3701L5.65275 14.5L6.47211 15.1112C6.71231 15.29 6.76302 15.6289 6.5842 15.8691C6.40538 16.1093 6.06643 16.1601 5.82623 15.9812L5.00688 15.3701H5.00421Z" fill="#ECECEC"/>
<path d="M5.79955 14.6088L5.151 15.4788L4.33165 14.8677C4.09145 14.6888 4.04074 14.3499 4.21956 14.1097C4.39837 13.8695 4.73732 13.8188 4.97753 13.9976L5.79688 14.6088H5.79955Z" fill="#E1E1E1"/>
<path d="M9.21558 18.5068L9.86412 17.6367L10.6835 18.2479C10.9237 18.4267 10.9744 18.7657 10.7956 19.0059C10.6168 19.2461 10.2778 19.2968 10.0376 19.118L9.21825 18.5068H9.21558Z" fill="#ECECEC"/>
<path d="M10.0083 17.7455L9.35971 18.6156L8.54036 18.0044C8.30016 17.8256 8.24945 17.4866 8.42827 17.2464C8.60708 17.0062 8.94603 16.9555 9.18624 17.1343L10.0056 17.7455H10.0083Z" fill="#E1E1E1"/>
<path d="M80.2581 28.0848L67.2094 32.5295C66.6555 32.7181 66.3594 33.3201 66.5481 33.8741L75.65 60.5954C75.8387 61.1493 76.4407 61.4454 76.9946 61.2567L90.0432 56.8121C90.5972 56.6234 90.8933 56.0214 90.7046 55.4675L81.6027 28.7461C81.414 28.1922 80.812 27.8961 80.2581 28.0848Z" fill="#ECECEC"/>
<path d="M73.1733 36.2224C73.3815 36.8309 73.0559 37.4902 72.4474 37.6983C71.8389 37.9065 71.1796 37.5809 70.9715 36.9724C70.7633 36.3639 71.0889 35.7047 71.6974 35.4965C72.3059 35.2883 72.9651 35.6139 73.1733 36.2224Z" fill="#FAFAFA"/>
<path d="M79.576 34.0427C79.7842 34.6512 79.4586 35.3105 78.8501 35.5186C78.2416 35.7268 77.5823 35.4012 77.3742 34.7927C77.166 34.1842 77.4916 33.525 78.1001 33.3168C78.7086 33.1086 79.3678 33.4342 79.576 34.0427Z" fill="#FAFAFA"/>
<path d="M75.2016 42.1756C75.4098 42.7841 75.0842 43.4433 74.4757 43.6515C73.8672 43.8596 73.208 43.534 72.9998 42.9255C72.7916 42.317 73.1172 41.6578 73.7257 41.4496C74.3342 41.2414 74.9935 41.567 75.2016 42.1756Z" fill="#FAFAFA"/>
<path d="M81.6017 39.9959C81.8098 40.6044 81.4842 41.2636 80.8757 41.4718C80.2672 41.6799 79.608 41.3543 79.3998 40.7458C79.1916 40.1373 79.5172 39.4781 80.1257 39.2699C80.7343 39.0617 81.3935 39.3874 81.6017 39.9959Z" fill="#FAFAFA"/>
<path d="M77.23 48.1248C77.4382 48.7333 77.1125 49.3925 76.504 49.6007C75.8955 49.8088 75.2363 49.4832 75.0281 48.8747C74.82 48.2662 75.1456 47.607 75.7541 47.3988C76.3626 47.1907 77.0218 47.5163 77.23 48.1248Z" fill="#FAFAFA"/>
<path d="M83.6301 45.9451C83.8383 46.5536 83.5127 47.2128 82.9042 47.421C82.2956 47.6292 81.6364 47.3036 81.4282 46.695C81.2201 46.0865 81.5457 45.4273 82.1542 45.2191C82.7627 45.011 83.4219 45.3366 83.6301 45.9451Z" fill="#FAFAFA"/>
<path d="M79.2558 54.0779C79.4639 54.6864 79.1383 55.3456 78.5298 55.5538C77.9213 55.762 77.2621 55.4364 77.0539 54.8279C76.8457 54.2193 77.1714 53.5601 77.7799 53.352C78.3884 53.1438 79.0476 53.4694 79.2558 54.0779Z" fill="#FAFAFA"/>
<path d="M85.6556 51.8982C85.8637 52.5067 85.5381 53.1659 84.9296 53.3741C84.3211 53.5823 83.6619 53.2567 83.4537 52.6482C83.2456 52.0397 83.5712 51.3804 84.1797 51.1723C84.7882 50.9641 85.4474 51.2897 85.6556 51.8982Z" fill="#FAFAFA"/>
<path d="M72.5513 35.6018C72.5754 35.6124 72.3699 36.0581 72.0976 36.5973C71.8254 37.1364 71.5852 37.5634 71.5612 37.5527C71.5372 37.542 71.7427 37.0963 72.0149 36.5572C72.2871 36.0181 72.5273 35.5911 72.5513 35.6018Z" fill="#E1E1E1"/>
<path d="M78.8179 33.4143C78.842 33.4249 78.6365 33.8733 78.3642 34.4098C78.092 34.9489 77.8518 35.3759 77.8278 35.3652C77.8038 35.3545 78.0093 34.9088 78.2815 34.3697C78.5537 33.8306 78.7939 33.4036 78.8179 33.4143Z" fill="#E1E1E1"/>
<path d="M74.636 41.551C74.66 41.5616 74.4785 42.0287 74.233 42.5972C73.9874 43.1657 73.7686 43.6167 73.7472 43.606C73.7259 43.5953 73.9047 43.1283 74.1502 42.5598C74.3957 41.9913 74.6146 41.5403 74.636 41.551Z" fill="#E1E1E1"/>
<path d="M80.9611 39.3557C80.9851 39.3637 80.8303 39.8227 80.6141 40.3752C80.3979 40.9303 80.2058 41.3707 80.1817 41.36C80.1577 41.352 80.3125 40.8956 80.5287 40.3405C80.7449 39.788 80.9371 39.345 80.9611 39.3557Z" fill="#E1E1E1"/>
<path d="M76.4747 47.4768C76.4988 47.4874 76.3333 47.9171 76.1064 48.4349C75.8796 48.9553 75.6767 49.3663 75.6554 49.3557C75.6314 49.345 75.7968 48.9153 76.0237 48.3975C76.2506 47.8798 76.4534 47.4661 76.4747 47.4768Z" fill="#E1E1E1"/>
<path d="M83.0296 45.3947C83.0509 45.4054 82.8534 45.8271 82.5839 46.3369C82.3143 46.844 82.0794 47.247 82.0581 47.2363C82.0367 47.2256 82.2342 46.8039 82.5038 46.2942C82.7734 45.7871 83.0082 45.3841 83.0296 45.3947Z" fill="#E1E1E1"/>
<path d="M78.6739 53.5119C78.6952 53.5253 78.4817 53.963 78.1935 54.4887C77.9052 55.0172 77.6543 55.4335 77.6303 55.4229C77.609 55.4095 77.8225 54.9718 78.1107 54.446C78.399 53.9176 78.6498 53.5012 78.6739 53.5119Z" fill="#E1E1E1"/>
<path d="M85.0605 51.1408C85.0846 51.1515 84.9031 51.6506 84.6549 52.2537C84.4067 52.8596 84.1878 53.3426 84.1638 53.332C84.1398 53.3213 84.3212 52.8249 84.5695 52.219C84.8177 51.6132 85.0365 51.1301 85.0605 51.1408Z" fill="#E1E1E1"/>
<path d="M87.3959 55.0859C87.4039 55.11 85.4422 55.8012 83.0162 56.6259C80.5902 57.4533 78.6152 58.1045 78.6072 58.0804C78.5992 58.0564 80.5581 57.3678 82.9868 56.5405C85.4129 55.7131 87.3879 55.0619 87.3959 55.0886V55.0859Z" fill="#E1E1E1"/>
<path d="M78.6979 31.1602C78.7059 31.1842 76.7442 31.8754 74.3182 32.7001C71.8922 33.5275 69.9172 34.1787 69.9092 34.1547C69.9012 34.1306 71.8601 33.4421 74.2888 32.6147C76.7149 31.7873 78.6899 31.1361 78.6979 31.1628V31.1602Z" fill="#E1E1E1"/>
<path d="M74.4275 33.8485C74.4275 33.8485 74.4036 33.8538 74.393 33.8485C74.3876 33.8485 74.385 33.8458 74.3797 33.8432L74.3744 33.8378L74.4621 33.8086C74.4674 33.8245 74.4515 33.8432 74.4275 33.8511C74.4036 33.8591 74.3797 33.8511 74.3744 33.8378L74.4621 33.8086C74.4621 33.8086 74.4621 33.8113 74.4621 33.8139V33.8192C74.4621 33.8192 74.4568 33.8272 74.4541 33.8325C74.4488 33.8405 74.4382 33.8458 74.4249 33.8511L74.4275 33.8485Z" fill="#E1E1E1"/>
<path d="M82.7039 56.6328C82.6798 56.6408 80.8249 51.2656 78.5644 44.6254C76.3012 37.9851 74.489 32.594 74.513 32.5859C74.537 32.5779 76.3892 37.9531 78.6525 44.5933C80.913 51.2336 82.7279 56.6221 82.7039 56.6301V56.6328Z" fill="#E1E1E1"/>
<path d="M79.2319 11.001L80.5958 12.7545C80.6491 12.8239 80.6358 12.92 80.5691 12.9734L78.8049 14.3452C78.2525 14.7749 77.4571 14.6761 77.0274 14.1236C76.5977 13.5712 76.6965 12.7759 77.249 12.3462L79.0131 10.9743C79.0825 10.921 79.1786 10.9343 79.2319 11.001Z" fill="#ECECEC"/>
<path d="M80.262 13.0138L78.8982 11.2603C78.8448 11.1909 78.8581 11.0948 78.9249 11.0415L80.689 9.66964C81.2415 9.23995 82.0368 9.3387 82.4665 9.89116C82.8962 10.4436 82.7974 11.239 82.245 11.6687L80.4808 13.0405C80.4114 13.0938 80.3154 13.0805 80.262 13.0138Z" fill="#E1E1E1"/>
<path d="M1.04092 52.6018L3.13067 53.3598C3.21074 53.3891 3.25344 53.4799 3.22408 53.5599L2.46078 55.6604C2.22058 56.3196 1.49463 56.6585 0.835415 56.4183C0.176196 56.1781 -0.162754 55.4522 0.077447 54.793L0.840753 52.6925C0.870111 52.6125 0.960854 52.5698 1.04092 52.5991V52.6018Z" fill="#ECECEC"/>
<path d="M2.98386 53.7606L0.894112 53.0027C0.814045 52.9733 0.771342 52.8826 0.8007 52.8025L1.56401 50.7021C1.80421 50.0455 2.53015 49.7039 3.1867 49.9441C3.84592 50.1843 4.18487 50.9102 3.94467 51.5695L3.18136 53.6699C3.152 53.7499 3.06126 53.7926 2.98119 53.7633L2.98386 53.7606Z" fill="#E1E1E1"/>
<path d="M88.7412 92.862C88.7412 92.8913 69.2716 92.9154 45.2621 92.9154C21.2527 92.9154 1.77771 92.8913 1.77771 92.862C1.77771 92.8326 21.242 92.8086 45.2621 92.8086C69.2822 92.8086 88.7412 92.8326 88.7412 92.862Z" fill="#07271D"/>
<path d="M72.1326 3.11719H23.1822C22.0487 3.11719 21.1299 4.03607 21.1299 5.16957V71.1395C21.1299 72.273 22.0487 73.1919 23.1822 73.1919H72.1326C73.2661 73.1919 74.185 72.273 74.185 71.1395V5.16957C74.185 4.03607 73.2661 3.11719 72.1326 3.11719Z" fill="#07271D"/>
<path d="M70.6325 6.42969H24.6821V68.3776H70.6325V6.42969Z" fill="white"/>
<path d="M70.6326 68.3763C70.6326 67.9546 70.6139 43.1071 70.5846 6.42838L70.6326 6.47642C56.8237 6.47642 41.1893 6.47909 24.6874 6.48176H24.6821L24.7355 6.42838C24.7328 29.5331 24.7275 50.9377 24.7248 68.3763L24.6821 68.3336C52.5107 68.3603 70.275 68.3763 70.6326 68.3763C70.275 68.3763 52.5107 68.3923 24.6821 68.419H24.6394V68.3763C24.6367 50.9377 24.6341 29.5331 24.6287 6.42838V6.375H24.6821H24.6874C41.1893 6.375 56.8237 6.37767 70.6326 6.38034H70.6806V6.42838C70.6513 43.1098 70.6326 67.9546 70.6326 68.3763Z" fill="#07271D"/>
<path d="M34.3541 16.8238L33.2812 15.2145H32.0989V16.8238H30.8125V11.043H33.2199C33.7109 11.043 34.1406 11.1284 34.5036 11.2992C34.8666 11.47 35.1468 11.7129 35.3416 12.0251C35.5365 12.3401 35.6352 12.711 35.6352 13.1407C35.6352 13.5704 35.5365 13.9414 35.3363 14.251C35.1388 14.5633 34.8559 14.8008 34.4902 14.9663L35.7366 16.8238H34.3541ZM34.0285 12.3934C33.8284 12.22 33.5321 12.1345 33.1478 12.1345H32.0989V14.1496H33.1478C33.5348 14.1496 33.8284 14.0615 34.0285 13.8853C34.2287 13.7092 34.3301 13.461 34.3301 13.1434C34.3301 12.8258 34.2287 12.5696 34.0285 12.3961V12.3934Z" fill="#16855C"/>
<path d="M37.1674 20.823L35.8943 18.9227L34.6453 20.823H33.2468L35.1951 18.0367L33.3428 15.3438H34.728L35.9397 17.1212L37.13 15.3438H38.4458L36.6096 17.9886L38.5739 20.8203H37.1674V20.823Z" fill="#16855C"/>
<path d="M54.6753 12.4258H46.7887V14.3767H54.6753V12.4258Z" fill="#E1E1E1"/>
<path d="M66.2395 13.6588C66.2395 13.6882 64.083 13.7122 61.4221 13.7122C58.7612 13.7122 56.6048 13.6882 56.6048 13.6588C56.6048 13.6295 58.7612 13.6055 61.4221 13.6055C64.083 13.6055 66.2395 13.6295 66.2395 13.6588Z" fill="#07271D"/>
<path d="M66.0581 15.9987C66.0581 16.028 61.7452 16.0521 56.4234 16.0521C51.1016 16.0521 46.7887 16.028 46.7887 15.9987C46.7887 15.9693 51.1016 15.9453 56.4234 15.9453C61.7452 15.9453 66.0581 15.9693 66.0581 15.9987Z" fill="#07271D"/>
<path d="M66.0581 18.2917C66.0581 18.321 61.7452 18.345 56.4234 18.345C51.1016 18.345 46.7887 18.321 46.7887 18.2917C46.7887 18.2623 51.1016 18.2383 56.4234 18.2383C61.7452 18.2383 66.0581 18.2623 66.0581 18.2917Z" fill="#07271D"/>
<path d="M69.0659 24.4049C69.0659 24.4343 59.4792 24.4583 47.6587 24.4583C35.8381 24.4583 26.2487 24.4343 26.2487 24.4049C26.2487 24.3756 35.8328 24.3516 47.6587 24.3516C59.4846 24.3516 69.0659 24.3756 69.0659 24.4049Z" fill="#07271D"/>
<path d="M69.0659 59.0378C69.0659 59.0671 59.4792 59.0911 47.6587 59.0911C35.8381 59.0911 26.2487 59.0671 26.2487 59.0378C26.2487 59.0084 35.8328 58.9844 47.6587 58.9844C59.4846 58.9844 69.0659 59.0084 69.0659 59.0378Z" fill="#07271D"/>
<path d="M42.9881 27.9141H29.7771V30.3908H42.9881V27.9141Z" fill="#E1E1E1"/>
<path d="M35.4965 62.5742H29.7771V65.051H35.4965V62.5742Z" fill="#E1E1E1"/>
<path d="M54.6966 62.5742H48.9771V65.051H54.6966V62.5742Z" fill="#E1E1E1"/>
<path d="M45.0779 64.2917C45.0779 64.321 43.2924 64.345 41.0905 64.345C38.8887 64.345 37.1005 64.321 37.1005 64.2917C37.1005 64.2623 38.886 64.2383 41.0905 64.2383C43.2951 64.2383 45.0779 64.2623 45.0779 64.2917Z" fill="#07271D"/>
<path d="M65.6124 64.2917C65.6124 64.321 63.8269 64.345 61.625 64.345C59.4232 64.345 57.635 64.321 57.635 64.2917C57.635 64.2623 59.4205 64.2383 61.625 64.2383C63.8296 64.2383 65.6124 64.2623 65.6124 64.2917Z" fill="#07271D"/>
<path d="M65.1373 34.1198C65.1373 34.1491 57.3121 34.1732 47.6613 34.1732C38.0106 34.1732 30.1827 34.1491 30.1827 34.1198C30.1827 34.0904 38.0079 34.0664 47.6613 34.0664C57.3147 34.0664 65.1373 34.0904 65.1373 34.1198Z" fill="#07271D"/>
<path d="M65.8179 36.9518C65.8179 36.9812 57.8405 37.0052 48.0003 37.0052C38.16 37.0052 30.1827 36.9812 30.1827 36.9518C30.1827 36.9225 38.16 36.8984 48.0003 36.8984C57.8405 36.8984 65.8179 36.9225 65.8179 36.9518Z" fill="#07271D"/>
<path d="M47.4559 39.7799C47.4559 39.8093 43.4979 39.8333 38.6165 39.8333C33.7351 39.8333 29.7744 39.8093 29.7744 39.7799C29.7744 39.7506 33.7324 39.7266 38.6165 39.7266C43.5006 39.7266 47.4559 39.7506 47.4559 39.7799Z" fill="#07271D"/>
<path d="M65.5565 50.0376C65.5565 50.0376 65.5164 50.0536 65.439 50.0776C65.3616 50.1017 65.2442 50.139 65.0921 50.1817C64.7851 50.2698 64.3341 50.3979 63.7336 50.4993C63.4347 50.55 63.0984 50.5901 62.7301 50.5927C62.3618 50.5954 61.9561 50.5661 61.5398 50.446C61.1234 50.3285 60.7017 50.1097 60.3334 49.7787C59.9758 49.4425 59.6849 48.9727 59.6075 48.4229C59.5728 48.1507 59.5941 47.8571 59.7089 47.5876C59.8237 47.3207 60.0185 47.0805 60.272 46.915C60.5229 46.7469 60.8485 46.6588 61.1634 46.7255C61.3209 46.7629 61.465 46.8403 61.5958 46.9363C61.7212 47.0404 61.8227 47.1712 61.9054 47.3127C62.0575 47.6036 62.1242 47.9372 62.1216 48.2708C62.1216 48.6044 62.0602 48.9434 61.9374 49.2663C61.6812 49.9015 61.2488 50.4913 60.6724 50.929C60.3868 51.1532 60.0665 51.332 59.7276 51.4842C59.3833 51.6176 59.0257 51.7404 58.6467 51.7804C58.273 51.8284 57.8834 51.8391 57.5017 51.7671C57.3095 51.7457 57.1227 51.679 56.9359 51.6283C56.7544 51.5536 56.5676 51.4895 56.3968 51.3907C56.0525 51.1986 55.7376 50.9424 55.4787 50.6328C55.2225 50.3232 55.0223 49.9549 54.9369 49.5519C54.8435 49.1542 54.8835 48.7085 55.081 48.3375C55.2705 47.9639 55.5854 47.6516 55.9778 47.4781C56.1726 47.3901 56.3914 47.35 56.605 47.3714C56.8185 47.3901 57.0266 47.4701 57.1975 47.5956C57.5471 47.8464 57.7419 48.2441 57.8407 48.6391C57.9394 49.0368 57.9528 49.4478 57.9074 49.8455C57.8674 50.2431 57.7793 50.6328 57.6458 51.0038C57.3843 51.743 56.9492 52.4156 56.3701 52.9067C55.7963 53.4058 55.065 53.686 54.3444 53.7367C53.6211 53.7928 52.8952 53.6033 52.3347 53.1976C51.7716 52.7919 51.3979 52.1968 51.2191 51.5802C51.0403 50.9637 51.0536 50.3045 51.2885 49.7494C51.3979 49.4691 51.5848 49.2236 51.8223 49.0528C51.9424 48.9674 52.0758 48.9033 52.2226 48.882C52.3667 48.8606 52.5189 48.8927 52.6416 48.962C52.8979 49.1062 53.0073 49.3944 53.0446 49.648C53.082 49.9095 53.0633 50.1657 53.0153 50.4059C52.9272 50.889 52.7804 51.3294 52.5989 51.7217C52.4201 52.114 52.2066 52.4583 51.9824 52.7519C51.7582 53.0455 51.5314 53.2963 51.3045 53.4992C50.8561 53.9102 50.4478 54.1531 50.1622 54.2972C50.0208 54.3746 49.906 54.4146 49.8313 54.4466C49.7566 54.4787 49.7165 54.492 49.7165 54.492C49.7165 54.492 49.7539 54.4707 49.8286 54.4386C49.9007 54.4039 50.0154 54.3586 50.1542 54.2785C50.4345 54.1317 50.8375 53.8835 51.2778 53.4698C51.4994 53.267 51.7235 53.0161 51.9424 52.7225C52.1612 52.429 52.3721 52.0873 52.5456 51.6977C52.7217 51.308 52.8658 50.8703 52.9486 50.3952C52.9966 50.1577 53.0099 49.9095 52.9753 49.6586C52.9406 49.4131 52.8338 49.1542 52.6069 49.0261C52.4948 48.962 52.3641 48.938 52.236 48.9567C52.1052 48.9754 51.9824 49.0368 51.8703 49.1142C51.6488 49.2743 51.47 49.5092 51.3686 49.7787C51.1444 50.3152 51.1337 50.9557 51.3099 51.5562C51.486 52.1567 51.8516 52.7332 52.3934 53.1229C52.9352 53.5125 53.6398 53.694 54.3417 53.6406C55.0437 53.5899 55.7509 53.3177 56.3087 52.832C56.8745 52.3542 57.2962 51.6977 57.5524 50.9717C57.6832 50.6088 57.7686 50.2271 57.8086 49.8374C57.854 49.4505 57.838 49.0501 57.7446 48.6685C57.6512 48.2895 57.4643 47.9158 57.1414 47.6863C56.8265 47.4514 56.3888 47.4141 56.0258 47.5822C55.6602 47.7424 55.3612 48.0386 55.1824 48.3909C54.9956 48.7432 54.9609 49.1542 55.049 49.5359C55.2171 50.3098 55.7936 50.9344 56.4555 51.3053C56.621 51.4014 56.8025 51.4628 56.9786 51.5375C57.1628 51.5856 57.3416 51.6523 57.5284 51.671C57.8994 51.7404 58.2757 51.7324 58.6413 51.6843C59.0096 51.6443 59.3593 51.5269 59.6955 51.3961C60.0265 51.2493 60.3414 51.0732 60.619 50.8543C61.1821 50.4273 61.6038 49.8535 61.8574 49.2343C61.9775 48.9247 62.0388 48.5964 62.0362 48.2735C62.0362 47.9505 61.9748 47.6329 61.8333 47.358C61.7586 47.2246 61.6625 47.1045 61.5478 47.0057C61.4277 46.9177 61.2942 46.8456 61.1528 46.8109C60.8645 46.7495 60.5629 46.8269 60.3254 46.9871C60.0852 47.1445 59.8984 47.3714 59.789 47.6223C59.6795 47.8758 59.6582 48.1534 59.6902 48.4149C59.7596 48.9434 60.0398 49.4024 60.3895 49.7307C60.7444 50.0536 61.1581 50.2725 61.5664 50.3899C61.9748 50.51 62.3751 50.5447 62.7408 50.5447C63.1064 50.5447 63.4427 50.5073 63.7389 50.4593C64.3341 50.3659 64.7905 50.2431 65.0974 50.1631C65.2495 50.123 65.3643 50.091 65.447 50.067C65.5271 50.0456 65.5671 50.0376 65.5671 50.0376H65.5565Z" fill="#07271D"/>
<path d="M55.3238 2.52344H39.9909V8.38435H55.3238V2.52344Z" fill="#E1E1E1"/>
<path d="M55.3237 8.38447C55.3237 8.38447 55.3237 8.3471 55.3211 8.27771C55.3211 8.20565 55.3211 8.10423 55.3184 7.97346C55.3184 7.7039 55.3131 7.31157 55.3104 6.80982C55.3051 5.7983 55.2997 4.33841 55.2917 2.52356L55.3291 2.56092C51.4965 2.56626 46.0413 2.5716 39.9962 2.57694L40.0496 2.52356C40.0496 4.57061 40.0496 6.55093 40.0496 8.38447L39.9989 8.33376C44.4266 8.34444 48.2538 8.35244 50.9761 8.35778C52.3372 8.36312 53.4235 8.36846 54.1734 8.37112C54.5444 8.37379 54.8327 8.37646 55.0328 8.37646C55.1289 8.37646 55.201 8.37646 55.257 8.37913C55.3077 8.37913 55.3344 8.3818 55.3344 8.3818C55.3344 8.3818 55.3104 8.3818 55.2624 8.38447C55.209 8.38447 55.1369 8.38447 55.0462 8.38714C54.8487 8.38714 54.5658 8.38981 54.1975 8.39248C53.4502 8.39514 52.3693 8.40048 51.0135 8.40582C48.2805 8.41116 44.4426 8.41916 40.0016 8.42984H39.9509V8.37913C39.9509 6.5456 39.9509 4.56527 39.9509 2.51822L40.0042 2.46484C46.0493 2.47018 51.5045 2.47819 55.3371 2.48086H55.3745V2.51822C55.3664 4.34108 55.3584 5.81165 55.3558 6.8285C55.3531 7.32758 55.3478 7.71724 55.3478 7.98413C55.3478 8.11224 55.3451 8.21099 55.3451 8.28305C55.3451 8.34977 55.3424 8.3818 55.3424 8.3818L55.3237 8.38447Z" fill="#07271D"/>
<path d="M73.6884 92.7718H63.7574C63.3144 92.7718 62.9541 92.4142 62.9514 91.9712L62.7112 65.1914H74.2542L74.4944 91.9578C74.4998 92.4062 74.1368 92.7718 73.6884 92.7718Z" fill="#16855C"/>
<g opacity="0.3">
<path d="M72.2285 71.1289V91.7515C72.2285 91.7515 73.8512 92.2906 73.9339 90.8681C74.014 89.4456 73.9686 71.1289 73.9686 71.1289H72.2285Z" fill="white"/>
</g>
<path d="M73.1598 63.8359H63.8053C63.4691 63.8359 63.1995 64.1082 63.1995 64.4418V65.0343H73.7683V64.4418C73.7683 64.1055 73.4961 63.8359 73.1625 63.8359H73.1598Z" fill="#FAFAFA"/>
<path d="M73.1598 63.8345C73.1598 63.8345 73.1945 63.8265 73.2612 63.8345C73.3279 63.8452 73.4294 63.8665 73.5388 63.9466C73.6455 64.024 73.7576 64.1655 73.7843 64.3656C73.795 64.5605 73.7897 64.7793 73.795 65.0302V65.0569H73.7683C71.8334 65.0729 68.0942 65.0836 63.808 65.0836C63.5998 65.0836 63.3943 65.0836 63.1995 65.0836H63.1461V65.0302C63.1461 64.8407 63.1461 64.6512 63.1461 64.4644C63.1381 64.2642 63.2288 64.0587 63.3836 63.9306C63.461 63.8665 63.5518 63.8212 63.6505 63.7972C63.7493 63.7705 63.848 63.7785 63.9361 63.7785C64.1176 63.7785 64.2991 63.7785 64.4752 63.7785C65.1878 63.7785 65.8764 63.7785 66.5303 63.7811C67.8353 63.7865 69.007 63.7891 69.9918 63.7918C70.9686 63.7998 71.7586 63.8052 72.3138 63.8078C72.5807 63.8132 72.7915 63.8158 72.9436 63.8185C73.0103 63.8185 73.0637 63.8212 73.1064 63.8238C73.1438 63.8238 73.1625 63.8265 73.1625 63.8292C73.1625 63.8318 73.1438 63.8318 73.1064 63.8345C73.0637 63.8345 73.0103 63.8372 72.9436 63.8399C72.7915 63.8399 72.5833 63.8452 72.3138 63.8505C71.7586 63.8532 70.9686 63.8612 69.9918 63.8665C69.007 63.8692 67.8353 63.8745 66.5303 63.8772C65.8764 63.8772 65.1905 63.8772 64.4752 63.8799C64.2964 63.8799 64.1176 63.8799 63.9361 63.8799C63.8427 63.8799 63.7546 63.8746 63.6772 63.8959C63.5971 63.9146 63.5197 63.9546 63.453 64.008C63.1594 64.2295 63.2769 64.6539 63.2528 65.0275L63.1995 64.9741C63.3916 64.9741 63.5998 64.9741 63.808 64.9741C68.0942 64.9741 71.8334 64.9848 73.7683 65.0008L73.7416 65.0275C73.7416 64.7793 73.7496 64.5524 73.7416 64.3683C73.7203 64.1815 73.6189 64.0454 73.5201 63.968C73.3119 63.8132 73.1518 63.8452 73.1598 63.8318V63.8345Z" fill="#07271D"/>
<path d="M74.9319 64.7461H62.0304C61.7342 64.7461 61.494 64.9863 61.494 65.2825V70.591C61.494 70.8873 61.7342 71.1274 62.0304 71.1274H74.9319C75.2282 71.1274 75.4684 70.8873 75.4684 70.591V65.2825C75.4684 64.9863 75.2282 64.7461 74.9319 64.7461Z" fill="#FAFAFA"/>
<path d="M74.9321 71.1301C74.9321 71.1301 74.9668 71.1301 75.0335 71.1141C75.0975 71.1007 75.1963 71.066 75.2924 70.9753C75.5299 70.7965 75.4338 70.3641 75.4498 69.8704C75.4472 68.8588 75.4392 67.4043 75.4338 65.6081C75.4338 65.496 75.4338 65.3839 75.4338 65.2692C75.4338 65.1624 75.3911 65.0557 75.3217 64.9703C75.2523 64.8875 75.1536 64.8235 75.0442 64.7995C74.9374 64.7781 74.8093 64.7914 74.6892 64.7888C74.1981 64.7888 73.6857 64.7888 73.1572 64.7914C72.0977 64.7914 70.9687 64.7941 69.7784 64.7968C67.3978 64.7968 64.7822 64.7995 62.0359 64.8021C61.8811 64.8021 61.729 64.8795 61.6409 65.0076C61.5956 65.069 61.5689 65.1437 61.5582 65.2185C61.5502 65.2905 61.5555 65.3839 61.5529 65.4667C61.5529 65.8056 61.5529 66.1419 61.5529 66.4782C61.5529 67.1481 61.5529 67.8073 61.5529 68.4532C61.5529 69.1017 61.5529 69.7369 61.5529 70.3588V70.591C61.5529 70.6604 61.5689 70.7324 61.5982 70.7938C61.6569 70.9219 61.769 71.0207 61.9025 71.058C61.9692 71.0794 62.0359 71.0794 62.1133 71.0794H62.3402C62.4896 71.0794 62.6418 71.0794 62.7886 71.0794C65.1692 71.0847 67.3097 71.0874 69.1112 71.0901C70.9074 71.0981 72.3619 71.1034 73.3734 71.1061C73.8725 71.1114 74.2622 71.1141 74.5317 71.1167C74.6598 71.1167 74.7613 71.1194 74.8333 71.1221C74.9 71.1221 74.9347 71.1274 74.9347 71.1274C74.9347 71.1274 74.9 71.1301 74.8333 71.1328C74.7613 71.1328 74.6598 71.1354 74.5317 71.1381C74.2622 71.1381 73.8725 71.1434 73.3734 71.1488C72.3619 71.1514 70.9074 71.1594 69.1112 71.1648C67.3097 71.1675 65.1665 71.1728 62.7886 71.1755C62.6391 71.1755 62.4896 71.1755 62.3402 71.1755H62.1133C62.0413 71.1755 61.9532 71.1755 61.8731 71.1514C61.713 71.1061 61.5742 70.986 61.5048 70.8338C61.4701 70.7564 61.4514 70.6737 61.4514 70.5883V70.3561C61.4514 69.7343 61.4514 69.0964 61.4514 68.4505C61.4514 67.802 61.4514 67.1427 61.4514 66.4755C61.4514 66.1419 61.4514 65.803 61.4514 65.464C61.4514 65.3786 61.4461 65.2985 61.4568 65.2025C61.4701 65.109 61.5048 65.021 61.5582 64.9436C61.6649 64.7888 61.8518 64.6927 62.0413 64.6954C64.7876 64.6954 67.4031 64.698 69.7837 64.7007C70.9741 64.7007 72.103 64.7034 73.1626 64.706C73.691 64.706 74.2035 64.706 74.6945 64.7087C74.8173 64.714 74.9347 64.698 75.0682 64.7247C75.1936 64.7514 75.3084 64.8261 75.3884 64.9222C75.4685 65.021 75.5139 65.1437 75.5166 65.2665C75.5166 65.3813 75.5166 65.496 75.5166 65.6081C75.5085 67.4043 75.5032 68.8615 75.5005 69.8704C75.5005 70.1212 75.4979 70.3454 75.4952 70.5403C75.5059 70.7404 75.4178 70.9032 75.3164 70.9913C75.215 71.082 75.1109 71.1141 75.0442 71.1248C74.9774 71.1354 74.9401 71.1301 74.9401 71.1301H74.9321Z" fill="#07271D"/>
<path d="M62.3055 71.0261C62.2762 71.0261 62.2521 69.6676 62.2521 67.9916C62.2521 66.3155 62.2762 64.957 62.3055 64.957C62.3349 64.957 62.3589 66.3155 62.3589 67.9916C62.3589 69.6676 62.3349 71.0261 62.3055 71.0261Z" fill="#07271D"/>
<path d="M63.3625 71.0261C63.3331 71.0261 63.3091 69.6676 63.3091 67.9916C63.3091 66.3155 63.3331 64.957 63.3625 64.957C63.3918 64.957 63.4158 66.3155 63.4158 67.9916C63.4158 69.6676 63.3918 71.0261 63.3625 71.0261Z" fill="#07271D"/>
<path d="M64.4193 71.0261C64.3899 71.0261 64.3659 69.6676 64.3659 67.9916C64.3659 66.3155 64.3899 64.957 64.4193 64.957C64.4486 64.957 64.4727 66.3155 64.4727 67.9916C64.4727 69.6676 64.4486 71.0261 64.4193 71.0261Z" fill="#07271D"/>
<path d="M65.4763 71.0261C65.4469 71.0261 65.4229 69.6676 65.4229 67.9916C65.4229 66.3155 65.4469 64.957 65.4763 64.957C65.5056 64.957 65.5297 66.3155 65.5297 67.9916C65.5297 69.6676 65.5056 71.0261 65.4763 71.0261Z" fill="#07271D"/>
<path d="M66.533 71.0261C66.5036 71.0261 66.4796 69.6676 66.4796 67.9916C66.4796 66.3155 66.5036 64.957 66.533 64.957C66.5623 64.957 66.5863 66.3155 66.5863 67.9916C66.5863 69.6676 66.5623 71.0261 66.533 71.0261Z" fill="#07271D"/>
<path d="M67.5899 71.0261C67.5605 71.0261 67.5365 69.6676 67.5365 67.9916C67.5365 66.3155 67.5605 64.957 67.5899 64.957C67.6193 64.957 67.6433 66.3155 67.6433 67.9916C67.6433 69.6676 67.6193 71.0261 67.5899 71.0261Z" fill="#07271D"/>
<path d="M68.6469 71.0261C68.6176 71.0261 68.5935 69.6676 68.5935 67.9916C68.5935 66.3155 68.6176 64.957 68.6469 64.957C68.6763 64.957 68.7003 66.3155 68.7003 67.9916C68.7003 69.6676 68.6763 71.0261 68.6469 71.0261Z" fill="#07271D"/>
<path d="M69.7037 71.0261C69.6744 71.0261 69.6503 69.6676 69.6503 67.9916C69.6503 66.3155 69.6744 64.957 69.7037 64.957C69.7331 64.957 69.7571 66.3155 69.7571 67.9916C69.7571 69.6676 69.7331 71.0261 69.7037 71.0261Z" fill="#07271D"/>
<path d="M70.7607 71.0261C70.7313 71.0261 70.7073 69.6676 70.7073 67.9916C70.7073 66.3155 70.7313 64.957 70.7607 64.957C70.79 64.957 70.8141 66.3155 70.8141 67.9916C70.8141 69.6676 70.79 71.0261 70.7607 71.0261Z" fill="#07271D"/>
<path d="M71.8175 71.0261C71.7881 71.0261 71.7641 69.6676 71.7641 67.9916C71.7641 66.3155 71.7881 64.957 71.8175 64.957C71.8468 64.957 71.8709 66.3155 71.8709 67.9916C71.8709 69.6676 71.8468 71.0261 71.8175 71.0261Z" fill="#07271D"/>
<path d="M72.8744 71.0261C72.845 71.0261 72.821 69.6676 72.821 67.9916C72.821 66.3155 72.845 64.957 72.8744 64.957C72.9037 64.957 72.9277 66.3155 72.9277 67.9916C72.9277 69.6676 72.9037 71.0261 72.8744 71.0261Z" fill="#07271D"/>
<path d="M73.9313 71.0261C73.902 71.0261 73.878 69.6676 73.878 67.9916C73.878 66.3155 73.902 64.957 73.9313 64.957C73.9607 64.957 73.9847 66.3155 73.9847 67.9916C73.9847 69.6676 73.9607 71.0261 73.9313 71.0261Z" fill="#07271D"/>
<path d="M74.9881 71.0261C74.9588 71.0261 74.9348 69.6676 74.9348 67.9916C74.9348 66.3155 74.9588 64.957 74.9881 64.957C75.0175 64.957 75.0415 66.3155 75.0415 67.9916C75.0415 69.6676 75.0175 71.0261 74.9881 71.0261Z" fill="#07271D"/>
<path d="M73.6084 75.9375H63.616V83.9389H73.6084V75.9375Z" fill="white"/>
<path d="M65.3321 78.4837L65.0999 78.1474H64.8437V78.4837H64.5635V77.2773H65.0866C65.1933 77.2773 65.2867 77.296 65.3641 77.3307C65.4415 77.3654 65.5029 77.4161 65.5456 77.4829C65.5883 77.5496 65.6097 77.627 65.6097 77.715C65.6097 77.8031 65.5883 77.8805 65.5456 77.9472C65.5029 78.0113 65.4415 78.062 65.3615 78.0967L65.631 78.4837H65.3321ZM65.2627 77.5602C65.22 77.5229 65.156 77.5069 65.0706 77.5069H64.8437V77.9286H65.0706C65.1533 77.9286 65.2174 77.9099 65.2627 77.8725C65.3054 77.8351 65.3295 77.7844 65.3295 77.7177C65.3295 77.651 65.3081 77.5976 65.2627 77.5629V77.5602Z" fill="#07271D"/>
<path d="M65.9407 79.3181L65.6658 78.9204L65.3936 79.3181H65.0894L65.511 78.7362L65.1107 78.1758H65.4096L65.6712 78.5468L65.9301 78.1758H66.2156L65.818 78.7282L66.245 79.3181H65.9407Z" fill="#07271D"/>
<path d="M72.8743 77.2734H67.1682V78.1408H72.8743V77.2734Z" fill="#E1E1E1"/>
<path d="M72.2285 80.2956C72.2285 80.3249 70.5631 80.3489 68.5053 80.3489C66.4476 80.3489 64.7822 80.3249 64.7822 80.2956C64.7822 80.2662 66.4476 80.2422 68.5053 80.2422C70.5631 80.2422 72.2285 80.2662 72.2285 80.2956Z" fill="#07271D"/>
<path d="M72.2285 81.2018C72.2285 81.2312 70.5631 81.2552 68.5053 81.2552C66.4476 81.2552 64.7822 81.2312 64.7822 81.2018C64.7822 81.1725 66.4476 81.1484 68.5053 81.1484C70.5631 81.1484 72.2285 81.1725 72.2285 81.2018Z" fill="#07271D"/>
<path d="M68.1025 82.3281H64.2459V83.0727H68.1025V82.3281Z" fill="#E1E1E1"/>
<path d="M73.3815 83.6947C73.3815 83.6947 73.3789 83.6439 73.3762 83.5532C73.3762 83.4571 73.3735 83.321 73.3709 83.1475C73.3709 82.7872 73.3655 82.2695 73.3602 81.6102C73.3548 80.2865 73.3468 78.3996 73.3362 76.1256L73.3789 76.1684C70.6432 76.1684 67.3471 76.1737 63.8002 76.1764C63.7868 76.187 63.8989 76.0776 63.8536 76.1256V76.6354C63.8536 76.8062 63.8536 76.9744 63.8536 77.1425C63.8536 77.4788 63.8536 77.8124 63.8536 78.1433C63.8536 78.8052 63.8536 79.4538 63.8536 80.089C63.8536 81.3594 63.8509 82.5684 63.8482 83.6973L63.8002 83.6493C66.6372 83.66 69.0232 83.668 70.7073 83.6733C71.548 83.6786 72.2126 83.684 72.6716 83.6866C72.8958 83.6866 73.0719 83.692 73.1947 83.692C73.2508 83.692 73.2961 83.692 73.3308 83.6947C73.3629 83.6947 73.3789 83.6947 73.3789 83.6973C73.3789 83.6973 73.3655 83.6973 73.3362 83.7C73.3015 83.7 73.2588 83.7 73.2054 83.7027C73.0826 83.7027 72.9118 83.7053 72.693 83.708C72.2366 83.7107 71.5747 83.716 70.7393 83.7213C69.0472 83.7267 66.6479 83.7347 63.8002 83.7454H63.7521V83.6973C63.7521 82.5684 63.7521 81.3594 63.7468 80.089C63.7468 79.4538 63.7468 78.8052 63.7468 78.1433C63.7468 77.8124 63.7468 77.4788 63.7468 77.1425C63.7468 76.9744 63.7468 76.8062 63.7468 76.6354V76.3819V76.2538V76.131C63.6988 76.1764 63.8109 76.0643 63.8002 76.0749C67.3471 76.0776 70.6406 76.0803 73.3789 76.0829H73.4242V76.1256C73.4136 78.4129 73.4082 80.3078 73.4002 81.6396C73.3949 82.2935 73.3922 82.8086 73.3895 83.1662C73.3895 83.337 73.3869 83.4705 73.3842 83.5639C73.3842 83.6546 73.3789 83.6973 73.3789 83.6973L73.3815 83.6947Z" fill="#07271D"/>
<path d="M63.3625 90.5892C63.3331 90.5892 63.3091 86.4124 63.3091 81.2614C63.3091 76.1104 63.3331 71.9336 63.3625 71.9336C63.3918 71.9336 63.4158 76.1104 63.4158 81.2614C63.4158 86.4124 63.3918 90.5892 63.3625 90.5892Z" fill="white"/>
<path d="M73.6165 92.3346C73.6165 92.364 71.436 92.388 68.7484 92.388C66.0608 92.388 63.8803 92.364 63.8803 92.3346C63.8803 92.3053 66.0608 92.2812 68.7484 92.2812C71.436 92.2812 73.6165 92.3053 73.6165 92.3346Z" fill="#07271D"/>
<path d="M83.5207 92.7581H75.4766C75.119 92.7581 74.8254 92.4699 74.8228 92.1096L74.6279 70.4141H83.9798L84.1746 92.0962C84.1773 92.4592 83.8837 92.7554 83.5207 92.7554V92.7581Z" fill="#16855C"/>
<g opacity="0.3">
<path d="M82.3384 75.2292V91.9339C82.3384 91.9339 83.6542 92.3716 83.7182 91.2186C83.7823 90.0657 83.7476 75.2266 83.7476 75.2266H82.3384V75.2292Z" fill="white"/>
</g>
<path d="M82.9789 69.3164H75.6315C75.2952 69.3164 75.0256 69.5886 75.0256 69.9222V70.2879H83.5874V69.9222C83.5874 69.586 83.3152 69.3164 82.9816 69.3164H82.9789Z" fill="#FAFAFA"/>
<path d="M82.979 69.3164C82.979 69.3164 83.0083 69.3111 83.067 69.3164C83.1231 69.3218 83.2112 69.3405 83.3099 69.3992C83.406 69.4579 83.5154 69.562 83.5741 69.7221C83.6035 69.7995 83.6142 69.8956 83.6115 69.989C83.6115 70.0824 83.6115 70.1838 83.6142 70.2879V70.3146H83.5875C82.0048 70.3306 79.0317 70.3413 75.6341 70.3413C75.426 70.3413 75.2205 70.3413 75.0283 70.3413H74.9749V70.2879C74.9776 70.1331 74.9669 69.9943 74.9829 69.8289C75.0043 69.6687 75.0897 69.5193 75.2125 69.4179C75.3352 69.3138 75.4954 69.2631 75.6502 69.2657C75.7943 69.2657 75.9384 69.2657 76.0798 69.2657C76.6483 69.2657 77.1954 69.2657 77.7132 69.2684C78.7514 69.2737 79.6802 69.2764 80.4648 69.2791C81.2388 69.2871 81.8634 69.2924 82.3091 69.2951C82.5199 69.3004 82.6854 69.3031 82.8081 69.3058C82.9229 69.3084 82.9816 69.3138 82.9816 69.3164C82.9816 69.3191 82.9229 69.3244 82.8081 69.3271C82.6854 69.3271 82.5199 69.3324 82.3091 69.3378C81.866 69.3405 81.2388 69.3485 80.4648 69.3538C79.6802 69.3565 78.7514 69.3618 77.7132 69.3645C77.1928 69.3645 76.6457 69.3645 76.0798 69.3671C75.9384 69.3671 75.7943 69.3671 75.6502 69.3671C75.514 69.3671 75.3833 69.4099 75.2792 69.4953C75.1751 69.5807 75.1057 69.7061 75.087 69.8422C75.0737 69.9757 75.0843 70.1385 75.0817 70.2852L75.0283 70.2319C75.2205 70.2319 75.4286 70.2319 75.6341 70.2319C79.0343 70.2319 82.0048 70.2425 83.5875 70.2586L83.5608 70.2852C83.5608 70.1785 83.5608 70.0797 83.5634 69.9863C83.5661 69.8903 83.5634 69.8102 83.5341 69.7328C83.4834 69.5807 83.3846 69.4792 83.2939 69.4205C83.1071 69.3031 82.9763 69.3271 82.979 69.3138V69.3164Z" fill="#07271D"/>
<path d="M84.4281 70.0586H74.1795C73.8832 70.0586 73.6431 70.2988 73.6431 70.595V74.6918C73.6431 74.9881 73.8832 75.2283 74.1795 75.2283H84.4281C84.7244 75.2283 84.9646 74.9881 84.9646 74.6918V70.595C84.9646 70.2988 84.7244 70.0586 84.4281 70.0586Z" fill="#FAFAFA"/>
<path d="M84.4283 75.2271C84.4283 75.2271 84.551 75.2405 84.7272 75.123C84.8126 75.0617 84.9007 74.9576 84.9353 74.8081C84.954 74.736 84.946 74.6506 84.946 74.5599C84.946 74.4692 84.946 74.3731 84.946 74.2717C84.9434 73.455 84.9354 72.2833 84.93 70.8368C84.93 70.746 84.93 70.6526 84.93 70.5646C84.9247 70.4791 84.8953 70.3937 84.8473 70.319C84.7485 70.1696 84.5724 70.0815 84.3802 70.0975C83.9852 70.0975 83.5715 70.0975 83.1472 70.1002C82.2931 70.1002 81.383 70.1028 80.4249 70.1055C78.506 70.1055 76.4002 70.1082 74.1877 70.1108C73.9341 70.1055 73.7046 70.327 73.7046 70.5779C73.7046 70.8501 73.7046 71.1224 73.7046 71.3892C73.7046 71.9284 73.7046 72.4595 73.7046 72.9799C73.7046 73.5003 73.7046 74.0154 73.7046 74.5172C73.7046 74.6453 73.6913 74.7654 73.7393 74.8695C73.782 74.9736 73.8594 75.0643 73.9555 75.1177C74.0569 75.1737 74.161 75.1818 74.2864 75.1791C74.4065 75.1791 74.5293 75.1791 74.6494 75.1791C76.5657 75.1844 78.2925 75.1871 79.7443 75.1898C81.1909 75.1978 82.3625 75.2031 83.1792 75.2058C83.5796 75.2111 83.8945 75.2138 84.1133 75.2164C84.2147 75.2164 84.2975 75.2191 84.3562 75.2218C84.4096 75.2218 84.4389 75.2245 84.4389 75.2271C84.4389 75.2298 84.4096 75.2298 84.3562 75.2325C84.2975 75.2325 84.2147 75.2351 84.1133 75.2378C83.8945 75.2378 83.5796 75.2431 83.1792 75.2485C82.3625 75.2511 81.1909 75.2592 79.7443 75.2645C78.2925 75.2672 76.5657 75.2725 74.6494 75.2752C74.5293 75.2752 74.4092 75.2752 74.2864 75.2752C74.1717 75.2805 74.0222 75.2698 73.9075 75.2031C73.79 75.1391 73.6966 75.0323 73.6459 74.9069C73.6192 74.8428 73.6059 74.7761 73.6059 74.7067V74.5172C73.6059 74.0154 73.6059 73.503 73.6059 72.9799C73.6059 72.4568 73.6059 71.9284 73.6059 71.3892C73.6059 71.1197 73.6059 70.8475 73.6059 70.5726C73.6059 70.2656 73.8861 69.9961 74.1957 70.0041C76.4082 70.0041 78.5166 70.0068 80.4329 70.0094C81.391 70.0094 82.3011 70.0121 83.1552 70.0148C83.5822 70.0148 83.9932 70.0148 84.3882 70.0174C84.5937 70.0014 84.8126 70.1055 84.9193 70.279C84.9754 70.3644 85.0074 70.4631 85.0127 70.5619C85.0154 70.658 85.0127 70.7487 85.0127 70.8394C85.0047 72.286 84.9994 73.4576 84.9967 74.2743C84.9967 74.3757 84.9967 74.4718 84.9967 74.5626C84.9967 74.6506 85.0021 74.7387 84.9807 74.8161C84.9407 74.9736 84.8446 75.0803 84.7539 75.1417C84.6631 75.2031 84.5804 75.2218 84.5243 75.2271C84.4683 75.2325 84.4416 75.2271 84.4416 75.2271H84.4283Z" fill="#07271D"/>
<path d="M74.2997 75.1427C74.2704 75.1427 74.2463 74.0431 74.2463 72.6846C74.2463 71.3261 74.2704 70.2266 74.2997 70.2266C74.3291 70.2266 74.3531 71.3261 74.3531 72.6846C74.3531 74.0431 74.3291 75.1427 74.2997 75.1427Z" fill="#07271D"/>
<path d="M75.1564 75.1427C75.127 75.1427 75.103 74.0431 75.103 72.6846C75.103 71.3261 75.127 70.2266 75.1564 70.2266C75.1857 70.2266 75.2098 71.3261 75.2098 72.6846C75.2098 74.0431 75.1857 75.1427 75.1564 75.1427Z" fill="#07271D"/>
<path d="M76.0132 75.1427C75.9838 75.1427 75.9598 74.0431 75.9598 72.6846C75.9598 71.3261 75.9838 70.2266 76.0132 70.2266C76.0425 70.2266 76.0665 71.3261 76.0665 72.6846C76.0665 74.0431 76.0425 75.1427 76.0132 75.1427Z" fill="#07271D"/>
<path d="M76.8699 75.1427C76.8406 75.1427 76.8166 74.0431 76.8166 72.6846C76.8166 71.3261 76.8406 70.2266 76.8699 70.2266C76.8993 70.2266 76.9233 71.3261 76.9233 72.6846C76.9233 74.0431 76.8993 75.1427 76.8699 75.1427Z" fill="#07271D"/>
<path d="M77.7264 75.1427C77.697 75.1427 77.673 74.0431 77.673 72.6846C77.673 71.3261 77.697 70.2266 77.7264 70.2266C77.7557 70.2266 77.7797 71.3261 77.7797 72.6846C77.7797 74.0431 77.7557 75.1427 77.7264 75.1427Z" fill="#07271D"/>
<path d="M78.5806 75.1427C78.5513 75.1427 78.5273 74.0431 78.5273 72.6846C78.5273 71.3261 78.5513 70.2266 78.5806 70.2266C78.61 70.2266 78.634 71.3261 78.634 72.6846C78.634 74.0431 78.61 75.1427 78.5806 75.1427Z" fill="#07271D"/>
<path d="M79.4374 75.1427C79.4081 75.1427 79.3841 74.0431 79.3841 72.6846C79.3841 71.3261 79.4081 70.2266 79.4374 70.2266C79.4668 70.2266 79.4908 71.3261 79.4908 72.6846C79.4908 74.0431 79.4668 75.1427 79.4374 75.1427Z" fill="#07271D"/>
<path d="M80.294 75.1427C80.2647 75.1427 80.2406 74.0431 80.2406 72.6846C80.2406 71.3261 80.2647 70.2266 80.294 70.2266C80.3234 70.2266 80.3474 71.3261 80.3474 72.6846C80.3474 74.0431 80.3234 75.1427 80.294 75.1427Z" fill="#07271D"/>
<path d="M81.1506 75.1427C81.1213 75.1427 81.0973 74.0431 81.0973 72.6846C81.0973 71.3261 81.1213 70.2266 81.1506 70.2266C81.18 70.2266 81.204 71.3261 81.204 72.6846C81.204 74.0431 81.18 75.1427 81.1506 75.1427Z" fill="#07271D"/>
<path d="M82.0049 75.1427C81.9756 75.1427 81.9515 74.0431 81.9515 72.6846C81.9515 71.3261 81.9756 70.2266 82.0049 70.2266C82.0343 70.2266 82.0583 71.3261 82.0583 72.6846C82.0583 74.0431 82.0343 75.1427 82.0049 75.1427Z" fill="#07271D"/>
<path d="M82.8615 75.1427C82.8321 75.1427 82.8081 74.0431 82.8081 72.6846C82.8081 71.3261 82.8321 70.2266 82.8615 70.2266C82.8908 70.2266 82.9149 71.3261 82.9149 72.6846C82.9149 74.0431 82.8908 75.1427 82.8615 75.1427Z" fill="#07271D"/>
<path d="M83.7181 75.1427C83.6887 75.1427 83.6647 74.0431 83.6647 72.6846C83.6647 71.3261 83.6887 70.2266 83.7181 70.2266C83.7475 70.2266 83.7715 71.3261 83.7715 72.6846C83.7715 74.0431 83.7475 75.1427 83.7181 75.1427Z" fill="#07271D"/>
<path d="M84.5749 75.1427C84.5456 75.1427 84.5215 74.0431 84.5215 72.6846C84.5215 71.3261 84.5456 70.2266 84.5749 70.2266C84.6043 70.2266 84.6283 71.3261 84.6283 72.6846C84.6283 74.0431 84.6043 75.1427 84.5749 75.1427Z" fill="#07271D"/>
<path d="M83.4567 79.1211H75.3619V85.6039H83.4567V79.1211Z" fill="white"/>
<path d="M76.7525 81.1839L76.563 80.9116H76.3548V81.1839H76.1279V80.207H76.5496C76.635 80.207 76.7124 80.2204 76.7738 80.2497C76.8379 80.2791 76.8859 80.3191 76.9206 80.3725C76.9553 80.4259 76.9713 80.4873 76.9713 80.562C76.9713 80.6367 76.9526 80.6981 76.9179 80.7488C76.8832 80.8022 76.8325 80.8422 76.7685 80.8689L76.9873 81.1839H76.7444H76.7525ZM76.6964 80.4339C76.6617 80.4045 76.6083 80.3912 76.5416 80.3912H76.3575V80.7328H76.5416C76.6083 80.7328 76.6617 80.7168 76.6964 80.6874C76.7311 80.6581 76.7498 80.6154 76.7498 80.562C76.7498 80.5086 76.7311 80.4659 76.6964 80.4366V80.4339Z" fill="#07271D"/>
<path d="M77.2462 81.857L77.022 81.5368L76.8032 81.857H76.5576L76.8993 81.3873L76.5737 80.9336H76.8165L77.03 81.2325L77.2382 80.9336H77.4704L77.1475 81.3793L77.4918 81.857H77.2436H77.2462Z" fill="#07271D"/>
<path d="M82.8616 80.207H78.2391V80.909H82.8616V80.207Z" fill="#E1E1E1"/>
<path d="M82.3383 82.651C82.3383 82.6804 80.9879 82.7044 79.3225 82.7044C77.6571 82.7044 76.3066 82.6804 76.3066 82.651C76.3066 82.6217 77.6571 82.5977 79.3225 82.5977C80.9879 82.5977 82.3383 82.6217 82.3383 82.651Z" fill="#07271D"/>
<path d="M82.3383 83.3854C82.3383 83.4148 80.9879 83.4388 79.3225 83.4388C77.6571 83.4388 76.3066 83.4148 76.3066 83.3854C76.3066 83.356 77.6571 83.332 79.3225 83.332C80.9879 83.332 82.3383 83.356 82.3383 83.3854Z" fill="#07271D"/>
<path d="M78.9942 84.2969H75.8716V84.9H78.9942V84.2969Z" fill="#E1E1E1"/>
<path d="M83.2726 85.4051C83.2726 85.4051 83.2699 85.3651 83.2672 85.2877C83.2672 85.2076 83.2645 85.0982 83.2619 84.9568C83.2619 84.6632 83.2565 84.2442 83.2512 83.7104C83.2459 82.6375 83.2379 81.1082 83.2272 79.2693L83.2699 79.312C81.052 79.312 78.3831 79.3174 75.5114 79.32C75.498 79.3307 75.6101 79.2213 75.5648 79.2693V79.6803C75.5648 79.8165 75.5648 79.9552 75.5648 80.0914C75.5648 80.3636 75.5648 80.6358 75.5648 80.9027C75.5648 81.4392 75.5648 81.9649 75.5648 82.48C75.5648 83.5076 75.5621 84.4897 75.5594 85.4025L75.5114 85.3544C77.8066 85.3651 79.7389 85.3731 81.1054 85.3784C81.7833 85.3838 82.3224 85.3891 82.6987 85.3918C82.8802 85.3918 83.0217 85.3971 83.1231 85.3971C83.1685 85.3971 83.2032 85.3971 83.2325 85.3998C83.2565 85.3998 83.2699 85.3998 83.2726 85.4025C83.2726 85.4025 83.2619 85.4025 83.2379 85.4051C83.2085 85.4051 83.1765 85.4051 83.1338 85.4078C83.0324 85.4078 82.8962 85.4105 82.7174 85.4131C82.3438 85.4158 81.81 85.4211 81.1348 85.4265C79.7603 85.4318 77.8173 85.4398 75.5114 85.4505H75.4633V85.4025C75.4633 84.487 75.4634 83.5076 75.458 82.48C75.458 81.9649 75.458 81.4392 75.458 80.9027C75.458 80.6358 75.458 80.3636 75.458 80.0914C75.458 79.9552 75.458 79.8191 75.458 79.6803V79.4748V79.3708V79.2747V79.2693C75.41 79.3147 75.5221 79.2026 75.5114 79.216C78.3831 79.2186 81.052 79.2213 83.2699 79.224H83.3153V79.2667C83.3046 81.1189 83.2992 82.6535 83.2912 83.7344C83.2859 84.2628 83.2832 84.6792 83.2806 84.9701C83.2806 85.1062 83.2779 85.213 83.2752 85.293C83.2752 85.3651 83.2726 85.4025 83.2699 85.3998L83.2726 85.4051Z" fill="#07271D"/>
<path d="M75.1564 90.989C75.127 90.989 75.103 87.6048 75.103 83.4333C75.103 79.2618 75.127 75.875 75.1564 75.875C75.1857 75.875 75.2098 79.2592 75.2098 83.4333C75.2098 87.6075 75.1857 90.989 75.1564 90.989Z" fill="white"/>
<path d="M83.4647 92.4049C83.4647 92.4343 81.6979 92.4583 79.52 92.4583C77.3422 92.4583 75.5754 92.4343 75.5754 92.4049C75.5754 92.3756 77.3396 92.3516 79.52 92.3516C81.7005 92.3516 83.4647 92.3756 83.4647 92.4049Z" fill="#07271D"/>
<path d="M18.5089 84.0873L17.1611 88.87C17.1611 88.87 21.4554 91.8805 21.2899 92.788L12.1436 90.4447L13.9451 82.9023L18.5089 84.0847V84.0873Z" fill="#16855C"/>
<path d="M14.4308 87.7389C14.2413 87.7442 14.0705 87.915 14.0651 88.1098C14.0625 88.3047 14.2306 88.4835 14.4201 88.4835C14.6096 88.4835 14.8231 88.2833 14.8044 88.0885C14.7857 87.8963 14.5749 87.6935 14.3934 87.7415" fill="#E1E1E1"/>
<g opacity="0.6">
<path d="M12.1409 90.444L12.3517 89.6914L21.0417 92.2215C21.0417 92.2215 21.4047 92.5071 21.2872 92.79L12.1409 90.4467V90.444Z" fill="white"/>
</g>
<path d="M17.3213 88.8603C17.308 88.9057 17.0811 88.8684 16.8249 88.9591C16.566 89.0418 16.4059 89.2126 16.3685 89.1833C16.3285 89.1646 16.4619 88.9084 16.7742 88.8043C17.0838 88.6975 17.3427 88.8203 17.3213 88.8603Z" fill="#07271D"/>
<path d="M18.1806 89.5141C18.1806 89.5621 17.9671 89.5888 17.7696 89.7436C17.5668 89.8931 17.476 90.0906 17.4333 90.0772C17.3906 90.0746 17.4253 89.797 17.6762 89.6102C17.9244 89.4207 18.194 89.4687 18.1833 89.5114L18.1806 89.5141Z" fill="#07271D"/>
<path d="M18.4367 90.8268C18.394 90.8268 18.3887 90.5813 18.5622 90.3597C18.7356 90.1382 18.9705 90.0928 18.9812 90.1356C18.9972 90.1809 18.8291 90.2797 18.6876 90.4638C18.5408 90.6453 18.4821 90.8348 18.4367 90.8268Z" fill="#07271D"/>
<path d="M17.508 87.7363C17.4786 87.7737 17.2892 87.6562 17.0329 87.6109C16.7767 87.5575 16.5605 87.5949 16.5445 87.5495C16.5258 87.5095 16.7607 87.3894 17.0623 87.4507C17.3639 87.5095 17.5374 87.707 17.508 87.739V87.7363Z" fill="#07271D"/>
<path d="M15.3008 85.2121L15.0873 90.1869C15.0873 90.1869 19.95 92.0792 19.9981 93.0026L10.5688 92.9279L10.5902 85.1641L15.2981 85.2148L15.3008 85.2121Z" fill="#16855C"/>
<path d="M12.1781 89.745C11.994 89.7957 11.8686 90.0039 11.9086 90.1934C11.9486 90.3829 12.1568 90.5163 12.341 90.471C12.5251 90.4256 12.6852 90.1774 12.6239 89.9959C12.5625 89.8118 12.3116 89.6676 12.1435 89.7584" fill="#E1E1E1"/>
<g opacity="0.6">
<path d="M10.5714 92.9226L10.6034 92.1406L19.6323 92.5063C19.6323 92.5063 20.0513 92.6958 20.0006 93L10.5714 92.9253V92.9226Z" fill="white"/>
</g>
<path d="M15.242 90.1383C15.242 90.1863 15.0098 90.205 14.783 90.3545C14.5508 90.4986 14.4334 90.7014 14.3907 90.6827C14.348 90.672 14.42 90.3918 14.6976 90.2157C14.9752 90.0368 15.2527 90.0956 15.242 90.1383Z" fill="#07271D"/>
<path d="M16.227 90.563C16.2376 90.6084 16.0375 90.6884 15.88 90.8859C15.7172 91.0781 15.6745 91.2943 15.6291 91.2916C15.5864 91.2996 15.5571 91.022 15.7572 90.7792C15.9547 90.5336 16.227 90.5176 16.227 90.563Z" fill="#07271D"/>
<path d="M16.7793 91.7797C16.7366 91.7904 16.6752 91.5529 16.7953 91.2967C16.9128 91.0378 17.1316 90.939 17.1503 90.9764C17.177 91.0164 17.0355 91.1525 16.9395 91.366C16.838 91.5769 16.8247 91.7744 16.7793 91.7797Z" fill="#07271D"/>
<path d="M15.1673 89.0001C15.1486 89.0428 14.9378 88.9761 14.6762 88.9921C14.4147 89.0028 14.2118 89.0909 14.1878 89.0508C14.1611 89.0161 14.3613 88.8426 14.6682 88.8293C14.9751 88.8133 15.1886 88.9654 15.1673 89.0001Z" fill="#07271D"/>
<path d="M9.46911 48.8125V52.7465L10.4993 68.0686C10.4993 68.0686 9.85877 75.5015 9.46377 79.697C9.12215 83.3401 9.67995 89.6867 9.67995 89.6867H15.6823L17.8281 68.525L19.1599 55.3273L21.4792 49.3196L9.46644 48.8152L9.46911 48.8125Z" fill="#07271D"/>
<path d="M25.2719 49.4984L24.1216 70.8736L18.0525 86.879L17.7723 87.8425L14.1879 86.9564L16.8542 49.082L25.2719 49.4984Z" fill="#07271D"/>
<path d="M19.1467 55.4805C19.1467 55.4805 19.1467 55.5098 19.1467 55.5685C19.1467 55.6326 19.144 55.718 19.1413 55.8301C19.1333 56.065 19.1253 56.4012 19.112 56.8309C19.0879 57.701 19.0266 58.9607 18.9411 60.514C18.7597 63.6206 18.4234 67.9095 17.8949 72.6308C17.3772 77.3521 16.8034 81.6144 16.3843 84.6969C16.1708 86.2342 16 87.4779 15.8799 88.348C15.8185 88.775 15.7705 89.106 15.7385 89.3408C15.7225 89.4503 15.7091 89.5357 15.6984 89.597C15.6878 89.6558 15.6824 89.6851 15.6797 89.6851C15.6797 89.6851 15.6797 89.6558 15.6851 89.597C15.6931 89.533 15.7011 89.4476 15.7144 89.3382C15.7438 89.1033 15.7838 88.7697 15.8372 88.3427C15.9493 87.4726 16.1094 86.2262 16.3069 84.6889C16.7046 81.6037 17.2651 77.3414 17.7828 72.6202C18.3086 67.9015 18.6582 63.6179 18.8611 60.5113C18.9572 58.958 19.0292 57.701 19.0666 56.8309C19.0879 56.4012 19.1066 56.065 19.1173 55.8301C19.1253 55.7207 19.1306 55.6353 19.1333 55.5685C19.1386 55.5098 19.1413 55.4805 19.144 55.4805H19.1467Z" fill="#16855C"/>
<path d="M19.5257 50.1379C19.5257 50.3114 19.3869 50.4555 19.2161 50.4555C19.0453 50.4555 18.9065 50.3141 18.9065 50.1379C18.9065 49.9618 19.0453 49.8203 19.2161 49.8203C19.3869 49.8203 19.5257 49.9618 19.5257 50.1379Z" fill="#16855C"/>
<path d="M24.8021 53.1197C24.8021 53.1197 24.618 52.9889 24.3778 52.714C24.1402 52.4391 23.8493 52.0201 23.6225 51.505C23.3983 50.9899 23.2862 50.4881 23.2435 50.1225C23.2008 49.7569 23.2168 49.5273 23.2301 49.5273C23.2488 49.5273 23.2622 49.7515 23.3236 50.1092C23.3849 50.4668 23.505 50.9525 23.7266 51.457C23.9481 51.9614 24.2203 52.3777 24.4392 52.6606C24.658 52.9462 24.8155 53.1063 24.8021 53.1197Z" fill="#16855C"/>
<path d="M24.0841 29.5273C24.0841 29.5273 25.2344 29.9784 25.7655 31.6598C26.1338 32.8314 27.8659 41.5401 27.8659 41.5401L25.4532 43.1307L24.4737 34.9826L24.0867 29.5273H24.0841Z" fill="#E1E1E1"/>
<path d="M14.9085 25.3672L14.1532 26.7096C14.1532 26.7096 9.10364 29.2771 9.11965 29.5307C9.11965 29.5307 9.39989 39.1147 9.45326 46.1446C9.47461 48.8001 9.37587 51.2395 9.32249 52.4112C9.18104 55.4884 9.07428 67.4398 9.07428 67.4398L27.3589 67.0074L24.0869 29.5307L21.5087 28.4017L21.1804 27.7292L19.9954 26.7684L14.9112 25.3699L14.9085 25.3672Z" fill="#E1E1E1"/>
<path d="M22.9178 67.1096C22.9178 67.1096 22.9178 67.0829 22.9178 67.0268C22.9178 66.9681 22.9124 66.8881 22.9071 66.7866C22.8964 66.5705 22.8777 66.2609 22.8564 65.8685C22.8084 65.0652 22.7416 63.9122 22.6562 62.4924C22.4827 59.6366 22.2452 55.7 21.9837 51.3497C21.7328 46.9994 21.5059 43.0628 21.3431 40.2044C21.2657 38.7818 21.2043 37.6289 21.1616 36.8255C21.1403 36.4305 21.1216 36.1236 21.1109 35.9074C21.1029 35.806 21.0976 35.7286 21.0949 35.6699C21.0896 35.6165 21.0869 35.5898 21.0869 35.5898C21.0869 35.5898 21.0869 35.6165 21.0869 35.6726C21.0869 35.7313 21.0896 35.8114 21.0923 35.9128C21.1003 36.129 21.1109 36.4386 21.1243 36.8309C21.151 37.6289 21.2043 38.7845 21.2711 40.2097C21.4072 43.0628 21.6207 47.0047 21.8796 51.3577C22.1385 55.708 22.392 59.6473 22.5842 62.4977C22.6829 63.9176 22.763 65.0705 22.819 65.8739C22.8484 66.2662 22.8724 66.5758 22.8884 66.792C22.8964 66.8934 22.9044 66.9708 22.9098 67.0295C22.9151 67.0829 22.9178 67.1096 22.9204 67.1096H22.9178Z" fill="#07271D"/>
<path d="M19.9927 26.7651L20.417 29.6983L21.1777 35.5912L17.8656 29.9064L14.9911 26.1406L19.7285 29.4607L19.7872 26.7091" fill="#16855C"/>
<path d="M14.1292 26.8868C14.1292 26.8868 14.1559 26.9695 14.22 27.1163C14.292 27.2764 14.3854 27.49 14.5029 27.7515C14.7591 28.3093 15.1114 29.078 15.5304 29.9881L15.5437 30.0174H15.5758C15.7946 30.0174 16.0268 30.0174 16.267 30.0201L16.235 29.9267C16.0748 30.0574 15.9014 30.1989 15.7279 30.343L15.6825 30.3804L15.7252 30.4231C16.0321 30.7247 16.3577 31.0423 16.6887 31.3679C17.8924 32.5369 18.9839 33.5937 19.7846 34.3704C20.1769 34.744 20.4972 35.0483 20.7321 35.2725C20.8388 35.3712 20.9242 35.4513 20.9936 35.5127C21.055 35.5661 21.087 35.5927 21.0897 35.5901C21.0897 35.5874 21.0657 35.5554 21.0096 35.4967C20.9456 35.4299 20.8628 35.3445 20.7614 35.2405C20.5319 35.0109 20.2196 34.696 19.838 34.3143C19.0427 33.5297 17.9591 32.4648 16.7634 31.2878C16.4298 30.9622 16.1069 30.6473 15.7973 30.3457V30.4258C15.9681 30.2816 16.1389 30.1402 16.299 30.0067L16.4111 29.9133H16.2643C16.0241 29.9133 15.7919 29.9133 15.5731 29.916L15.6185 29.9453C15.1861 29.0433 14.8205 28.28 14.5536 27.7275C14.4255 27.4686 14.324 27.2604 14.244 27.103C14.1719 26.9588 14.1292 26.8841 14.1239 26.8868H14.1292Z" fill="#07271D"/>
<path d="M21.1777 35.5934C21.1777 35.5934 21.2098 35.4653 21.2445 35.2277C21.2792 34.9742 21.3272 34.6352 21.3859 34.2269C21.5007 33.3835 21.6501 32.2146 21.8076 30.9228C21.8583 30.5065 21.9063 30.1034 21.9544 29.7191L21.9597 29.6711L21.9144 29.6604C21.6234 29.591 21.3459 29.527 21.0843 29.4629V29.559C21.3806 29.5056 21.6581 29.4549 21.9144 29.4095L21.9704 29.3989L21.9464 29.3482C21.7222 28.8597 21.5354 28.4567 21.3966 28.1578C21.3352 28.027 21.2818 27.9203 21.2391 27.8322C21.2018 27.7575 21.1804 27.7201 21.1751 27.7228C21.1724 27.7228 21.1857 27.7655 21.2151 27.8429C21.2525 27.9336 21.2952 28.0431 21.3512 28.1765C21.482 28.4808 21.6555 28.8891 21.8663 29.3828L21.8983 29.3215C21.6421 29.3642 21.3619 29.4095 21.063 29.4576L20.8254 29.4976L21.0603 29.5563C21.3219 29.6204 21.5994 29.6898 21.8877 29.7618L21.8476 29.7031C21.7996 30.0848 21.7489 30.4904 21.6982 30.9041C21.5407 32.1959 21.4019 33.3648 21.3085 34.2109C21.2658 34.6219 21.2284 34.9609 21.2018 35.2144C21.1804 35.4519 21.1697 35.5827 21.1777 35.5854V35.5934Z" fill="#07271D"/>
<path d="M18.3514 51.2695C18.3514 51.2695 18.314 51.2695 18.2339 51.2749C18.1485 51.2802 18.0311 51.2882 17.8816 51.2989C17.5614 51.3229 17.1077 51.3549 16.5338 51.3976C15.3569 51.4884 13.6915 51.6165 11.7031 51.7686H11.6551L11.6604 51.822C11.7378 52.7294 11.8232 53.7169 11.9113 54.7578C11.9567 55.2782 12.002 55.8147 12.0501 56.3591C12.0741 56.6314 12.0981 56.9089 12.1221 57.1865C12.1328 57.3226 12.1488 57.4721 12.1889 57.6135C12.2316 57.755 12.2956 57.8884 12.3784 58.0112C12.6453 58.3955 13.0803 58.6197 13.5153 58.6971C13.9557 58.7585 14.38 58.7665 14.8044 58.7665C15.6478 58.7558 16.4618 58.6837 17.2198 58.5023C17.4092 58.4542 17.5934 58.3982 17.7695 58.3234C17.8576 58.2887 17.943 58.2434 18.0258 58.1927C18.0685 58.1713 18.1032 58.1313 18.1432 58.0993C18.1779 58.0646 18.2046 58.0219 18.2339 57.9845C18.4341 57.6562 18.4955 57.2959 18.5489 56.9543C18.6449 56.2684 18.6476 55.6278 18.6449 55.0434C18.6263 53.8744 18.5435 52.9323 18.4795 52.281C18.4474 51.9554 18.4181 51.7046 18.3967 51.5337C18.3861 51.4537 18.3754 51.3896 18.37 51.3389C18.3647 51.2962 18.3567 51.2722 18.3567 51.2722C18.3567 51.2722 18.3567 51.2935 18.3567 51.3389C18.362 51.3896 18.3674 51.4537 18.3727 51.5337C18.3887 51.7126 18.4101 51.9634 18.4368 52.2837C18.4848 52.9349 18.5569 53.877 18.5649 55.0434C18.5649 55.6252 18.5569 56.2657 18.4581 56.9409C18.4047 57.2746 18.338 57.6322 18.1512 57.9284C18.0605 58.0752 17.9003 58.158 17.7295 58.23C17.5614 58.3021 17.3799 58.3555 17.1931 58.4035C16.4484 58.5797 15.6371 58.649 14.8017 58.6597C14.3854 58.6597 13.953 58.649 13.534 58.5903C13.1203 58.5156 12.7146 58.3048 12.4691 57.9498C12.3917 57.8377 12.333 57.7149 12.293 57.5842C12.2556 57.4534 12.2422 57.3226 12.2316 57.1785C12.2076 56.9009 12.1835 56.6233 12.1595 56.3511C12.1115 55.804 12.0634 55.2702 12.0181 54.7498C11.9246 53.7089 11.8366 52.7241 11.7565 51.814L11.7111 51.8674C13.6861 51.6966 15.3408 51.5524 16.5098 51.451C17.089 51.3976 17.5454 51.3576 17.8656 51.3282C18.0178 51.3122 18.1379 51.3016 18.2259 51.2936C18.3087 51.2855 18.3514 51.2802 18.354 51.2775L18.3514 51.2695Z" fill="#07271D"/>
<g opacity="0.3">
<path d="M12.1915 57.4714C12.7066 58.8139 14.0543 58.8966 15.5036 58.6831C16.8674 58.4829 18.1805 58.1974 18.2792 57.8077C18.2445 58.5203 17.7188 59.0674 17.0649 59.353C16.411 59.6386 15.6797 59.6786 14.9671 59.6466C14.2198 59.6145 13.5766 59.6466 12.9601 59.2222C12.3436 58.8005 12.1861 58.0826 12.1888 57.4688L12.1915 57.4714Z" fill="black"/>
</g>
<path d="M26.0192 51.6867C26.0192 51.6867 26.0138 51.6707 26.0085 51.636C26.0031 51.5959 25.9978 51.5479 25.9898 51.4892C25.9738 51.3504 25.9551 51.1609 25.9284 50.9207C25.8804 50.419 25.8083 49.709 25.7229 48.8336C25.5548 47.0695 25.3332 44.6328 25.0957 41.9425C24.8608 39.2496 24.6553 36.8102 24.5219 35.0434C24.4552 34.16 24.4045 33.4447 24.3778 32.951C24.3618 32.7028 24.3564 32.5106 24.3511 32.3799C24.3511 32.3211 24.3511 32.2704 24.3484 32.2304C24.3484 32.1957 24.3484 32.1797 24.3484 32.1797C24.3991 32.7508 24.7381 36.6341 25.1998 41.9319C25.432 44.6194 25.6428 47.0535 25.795 48.8256C25.867 49.701 25.9257 50.4136 25.9658 50.9154C25.9845 51.1556 25.9978 51.3451 26.0085 51.4839C26.0111 51.5426 26.0138 51.5933 26.0165 51.6333C26.0165 51.668 26.0165 51.684 26.0165 51.684L26.0192 51.6867Z" fill="#07271D"/>
<path d="M28.6693 41.7336C28.6693 41.7336 28.7974 42.1552 28.7547 42.601C28.712 43.044 28.6907 44.1382 27.5083 44.5119C26.3233 44.8855 25.7495 44.5306 25.3839 44.0288L25.2051 41.8537L26.4728 41.0156L28.672 41.7336H28.6693Z" fill="#E1E1E1"/>
<g opacity="0.3">
<path d="M18.7731 43.1328C18.7731 43.1328 15.7439 46.1247 13.3926 46.557C11.0386 46.9894 10.2006 46.146 9.57336 44.0456L18.7731 43.1355V43.1328Z" fill="black"/>
</g>
<path d="M9.17303 29.4531C9.17303 29.4531 7.24875 31.2386 7.79588 35.4608C8.30564 39.3841 9.20773 44.85 10.4141 45.4852C11.6177 46.1204 14.2199 45.8028 16.1202 44.7246C18.0231 43.6463 23.5397 40.7292 23.5397 40.7292L21.2578 36.6698L13.9023 39.5229C13.9023 39.5229 12.9522 33.0134 12.3811 31.8925" fill="#E1E1E1"/>
<path d="M12.357 31.8041C12.357 31.8041 12.3783 31.8441 12.413 31.9295C12.4317 31.9723 12.4557 32.023 12.4798 32.0843C12.5011 32.1484 12.5251 32.2231 12.5518 32.3059C12.6586 32.6421 12.7894 33.1492 12.9281 33.8058C13.211 35.1216 13.5553 37.0405 13.9156 39.4265L13.8622 39.3945C15.9413 38.5858 18.4448 37.609 21.2151 36.5307L21.2551 36.5147L21.2765 36.5521C21.9997 37.8358 22.7657 39.197 23.561 40.6088L23.5877 40.6569L23.5397 40.6835C22.0238 41.5002 20.4438 42.3516 18.8237 43.2243C18.0417 43.646 17.2704 44.0597 16.5098 44.4707C16.1308 44.6736 15.7518 44.8871 15.3595 45.0552C14.9645 45.2234 14.5615 45.3595 14.1585 45.4716C13.3445 45.6851 12.5171 45.8052 11.7058 45.7545C11.3001 45.7278 10.8971 45.6637 10.5261 45.5063L10.3873 45.4449C10.342 45.4235 10.2993 45.3888 10.2539 45.3621C10.1738 45.2981 10.1018 45.2234 10.0404 45.146C9.91761 44.9885 9.81619 44.8203 9.72812 44.6442C9.38383 43.9476 9.17833 43.219 8.9915 42.5144C8.80735 41.8072 8.66056 41.1159 8.52711 40.4433C8.26556 39.1009 8.0734 37.8412 7.91327 36.6882C7.75046 35.5379 7.60901 34.489 7.65171 33.5602C7.68374 32.6341 7.84921 31.8441 8.06806 31.2303C8.29225 30.6164 8.55914 30.1787 8.76465 29.9065C8.86606 29.7677 8.95681 29.6717 9.01552 29.6076C9.07691 29.5462 9.11427 29.5195 9.11427 29.5195C9.11427 29.5195 9.08225 29.5516 9.02353 29.6156C8.96481 29.6823 8.87941 29.7784 8.78066 29.9199C8.58316 30.1974 8.32161 30.6325 8.10543 31.2463C7.89458 31.8575 7.73445 32.6448 7.71043 33.5656C7.67307 34.4864 7.81986 35.5299 7.98533 36.6802C8.1508 37.8305 8.3483 39.0875 8.61252 40.4273C8.74596 41.0972 8.89542 41.7885 9.07958 42.4904C9.26907 43.1897 9.47457 43.9156 9.81353 44.5988C9.89893 44.7696 9.99768 44.9324 10.1151 45.0819C10.1738 45.1566 10.2405 45.2234 10.3126 45.2794C10.3526 45.3034 10.3873 45.3328 10.43 45.3515L10.5608 45.4102C10.9158 45.5596 11.3108 45.6237 11.7058 45.6477C12.5038 45.6931 13.3205 45.5756 14.1238 45.3648C14.5241 45.2527 14.9218 45.1193 15.3115 44.9538C15.7011 44.7857 16.0694 44.5775 16.4511 44.372C17.2117 43.961 17.983 43.5473 18.765 43.1256C20.385 42.2529 21.9677 41.4015 23.4836 40.5848L23.4623 40.6595C22.6696 39.2477 21.9037 37.8839 21.183 36.6001L21.2444 36.6215C18.4714 37.6917 15.9653 38.6605 13.8836 39.4639L13.8382 39.4825L13.8302 39.4345C13.4779 37.0485 13.147 35.1269 12.8774 33.8111C12.744 33.1519 12.6212 32.6448 12.5225 32.3085C12.4984 32.2258 12.4744 32.1511 12.4557 32.0843C12.4317 32.023 12.413 31.9696 12.3944 31.9269C12.3623 31.8415 12.3463 31.7988 12.3463 31.7988L12.357 31.8041Z" fill="#07271D"/>
<path d="M14.9887 36.6719H18.6397V35.4575H14.9887V36.6719Z" fill="white"/>
<path d="M15.7466 35.9909C15.7466 35.9615 16.2564 35.9375 16.8836 35.9375C17.5108 35.9375 18.0232 35.9615 18.0232 35.9909C18.0232 36.0202 17.5135 36.0443 16.8836 36.0443C16.2537 36.0443 15.7466 36.0202 15.7466 35.9909Z" fill="#07271D"/>
<g opacity="0.3">
<path d="M20.9908 35.5124L15.6183 31.1541L15.7464 30.7724H15.2793L14.5027 27.7539L15.6209 29.9451L16.2668 29.9157L15.7971 30.3454L20.9908 35.5124Z" fill="black"/>
</g>
<path d="M14.3533 30.5438L14.5481 30.4611C14.5481 30.4611 14.1051 29.4015 13.6754 28.2886C13.5046 27.8482 13.4432 27.4799 13.4913 27.1943C13.534 26.9488 13.7501 26.7807 14.0064 26.7807L14.1478 26.7059L14.2199 26.5752C13.8436 26.4951 13.3418 26.8074 13.2804 27.157C13.2244 27.4799 13.2884 27.8856 13.4752 28.3633C13.9076 29.4789 14.3453 30.5305 14.3506 30.5412L14.3533 30.5438Z" fill="#16855C"/>
<path d="M14.0384 32.9978L14.3079 32.8937C14.0864 32.3225 13.7848 31.3137 13.9129 31.0308C13.993 30.86 14.2198 30.7078 14.4921 30.6465C14.815 30.5744 15.1246 30.6385 15.3381 30.8199C15.6477 31.0815 16.1148 32.0049 16.2696 32.3385L16.5338 32.2184C16.5098 32.1677 15.9493 30.9561 15.5276 30.5984C15.242 30.3582 14.8417 30.2728 14.4307 30.3636C14.065 30.4436 13.7661 30.6545 13.6514 30.908C13.4325 31.3857 13.9343 32.7335 14.0384 32.9978Z" fill="#16855C"/>
<path d="M16.9555 37.401C17.2891 37.401 17.6174 37.2222 17.9323 36.8672L17.8229 36.7711C17.4759 37.1608 17.121 37.3183 16.766 37.2329C15.3221 36.8939 14.2225 32.8799 14.2119 32.8398L14.0731 32.8772C14.1185 33.0453 15.2074 37.014 16.734 37.3743C16.8087 37.393 16.8834 37.401 16.9555 37.401Z" fill="#07271D"/>
<path d="M17.6547 37.034C17.7161 37.0927 17.8122 37.1007 17.8789 37.05L18.1938 36.8178C18.2899 36.7537 18.3166 36.6256 18.2525 36.5295C18.1805 36.4201 18.0257 36.4068 17.9323 36.4975L17.652 36.7911C17.5853 36.8605 17.588 36.9672 17.6547 37.034Z" fill="#07271D"/>
<path d="M16.3417 37.532C16.7874 37.532 17.1183 37.3852 17.3265 37.0916C18.2152 35.8452 16.5418 32.389 16.4698 32.2422L16.339 32.3062C16.355 32.3409 18.0471 35.8319 17.2091 37.0088C16.9902 37.3158 16.6059 37.4359 16.0668 37.3691L16.0481 37.5133C16.1495 37.5266 16.2483 37.532 16.339 37.532H16.3417Z" fill="#07271D"/>
<path d="M16.3683 37.4563C16.3629 37.5417 16.2936 37.6084 16.2108 37.6164L15.8212 37.6485C15.7064 37.6645 15.6023 37.5844 15.5863 37.4696C15.5676 37.3389 15.6744 37.2268 15.8051 37.2348L16.2108 37.2695C16.3042 37.2775 16.3763 37.3602 16.3683 37.4536V37.4563Z" fill="#07271D"/>
<path d="M23.3209 33.2142C23.8914 33.2142 24.3538 32.7517 24.3538 32.1813C24.3538 31.6109 23.8914 31.1484 23.3209 31.1484C22.7505 31.1484 22.2881 31.6109 22.2881 32.1813C22.2881 32.7517 22.7505 33.2142 23.3209 33.2142Z" fill="#07271D"/>
<path d="M23.3209 33.2142C23.8914 33.2142 24.3538 32.7517 24.3538 32.1813C24.3538 31.6109 23.8914 31.1484 23.3209 31.1484C22.7505 31.1484 22.2881 31.6109 22.2881 32.1813C22.2881 32.7517 22.7505 33.2142 23.3209 33.2142Z" fill="#07271D"/>
<path d="M22.5574 32.1813C22.5574 32.603 22.8991 32.9446 23.3207 32.9446C23.7424 32.9446 24.084 32.603 24.084 32.1813C24.084 31.7596 23.7424 31.418 23.3207 31.418C22.8991 31.418 22.5574 31.7596 22.5574 32.1813Z" fill="#E1E1E1"/>
<path d="M21.1297 27.6842C21.2257 27.8256 22.304 30.1022 22.8938 31.2498L23.0646 31.1617C22.9765 30.9936 21.4099 27.7562 21.2871 27.5774L20.1448 26.6406L20.1048 26.8568L21.127 27.6868L21.1297 27.6842Z" fill="#16855C"/>
<path d="M20.6975 32.1532C21.4448 32.8979 23.337 34.8408 23.337 34.8408L23.8441 34.5366L21.1779 31.6915C21.0658 31.5714 20.887 31.5527 20.7509 31.6408C20.5747 31.7582 20.5507 32.0065 20.7002 32.1559L20.6975 32.1532Z" fill="#07271D"/>
<path d="M21.2339 36.581L21.8691 34.7901C22.0079 34.3978 22.3682 34.1069 22.7845 34.1016C22.8165 34.1016 22.8486 34.1016 22.8806 34.1069C23.2623 34.1496 25.2052 34.275 25.2052 34.275L25.9578 35.1184C26.086 35.2625 26.0913 35.4787 25.9659 35.6282L26.182 37.1494L25.755 37.4377L25.7977 38.5026C25.7977 38.5026 25.4161 38.7561 25.2479 38.6707L25.0798 38.5853L24.8262 38.3318L24.1083 39.346L23.1155 39.9198L21.2339 36.5756V36.581Z" fill="#FFBF9D"/>
<path d="M25.9711 35.7106C25.9551 35.7186 25.8884 35.5745 25.6989 35.4144C25.6055 35.337 25.48 35.2489 25.3359 35.1955C25.1891 35.1475 25.0023 35.1448 24.8101 35.1234C24.0415 35.0514 23.4196 34.9687 23.4223 34.9366C23.425 34.9073 24.0522 34.9393 24.8208 35.0114C25.0103 35.0327 25.1971 35.0354 25.3706 35.0968C25.5387 35.1661 25.6588 35.2622 25.7523 35.353C25.9391 35.5398 25.9845 35.7026 25.9711 35.7053V35.7106Z" fill="#FF9A6C"/>
<path d="M25.931 37.11C25.9096 37.1126 25.9016 36.9445 25.7735 36.7203C25.6507 36.4988 25.3865 36.2346 25.0209 36.0904C24.6552 35.9463 24.2869 35.9276 24.0254 35.9223C23.7638 35.9196 23.5984 35.9223 23.5984 35.909C23.5984 35.8956 23.7585 35.8609 24.0254 35.8449C24.2896 35.8316 24.6713 35.8342 25.0609 35.9864C25.4532 36.1412 25.7281 36.4347 25.8402 36.6829C25.9577 36.9338 25.9363 37.11 25.9283 37.11H25.931Z" fill="#FF9A6C"/>
<path d="M25.7391 38.417C25.7231 38.425 25.6564 38.2622 25.6377 37.998C25.6243 37.8672 25.611 37.7124 25.5416 37.5629C25.4775 37.4081 25.3334 37.304 25.1413 37.2587C24.7596 37.1572 24.3913 37.1519 24.1298 37.1119C23.8655 37.0798 23.7054 37.0291 23.7107 37.0131C23.7134 36.9971 23.8762 37.0211 24.1378 37.0345C24.3993 37.0532 24.7703 37.0452 25.1733 37.1519C25.2747 37.1786 25.3735 37.2186 25.4589 37.2827C25.5443 37.3467 25.6003 37.4348 25.6377 37.5202C25.7097 37.6937 25.7124 37.8592 25.7177 37.9926C25.7177 38.2568 25.7551 38.4116 25.7418 38.417H25.7391Z" fill="#FF9A6C"/>
<path d="M26.7986 35.0547L18.4129 43.7153L18.7359 44.0435L24.7436 43.3656L32.8277 35.6659L32.8197 35.2949L26.7986 35.0547Z" fill="#16855C"/>
<g opacity="0.3">
<path d="M28.3705 39.0941C27.9862 38.7231 27.4311 38.5576 26.8999 38.6003C26.3688 38.643 25.8644 38.8806 25.4481 39.2142C25.1145 39.4837 24.8235 39.8307 24.7248 40.2497C24.554 40.9783 25.1545 41.9952 25.8137 42.3475C26.6517 41.6749 27.4658 40.6447 28.3011 39.9721C28.4266 39.8707 28.56 39.7586 28.592 39.6012C28.6321 39.4117 28.5093 39.2275 28.3705 39.0941Z" fill="black"/>
</g>
<path d="M32.7956 35.6492C32.7956 35.6492 32.7583 35.6545 32.6862 35.6545C32.6035 35.6545 32.4994 35.6545 32.3659 35.6545C32.075 35.6519 31.6694 35.6465 31.1649 35.6412C30.1267 35.6225 28.6775 35.5931 26.9854 35.5611L27.0228 35.5451C26.3743 36.2177 25.6643 36.9543 24.9224 37.7229C23.225 39.4711 21.6877 41.0537 20.5667 42.2067C20.0116 42.7698 19.5579 43.2289 19.2376 43.5572C19.0855 43.7093 18.9627 43.8294 18.872 43.9201C18.7866 44.0029 18.7412 44.0429 18.7385 44.0402C18.7359 44.0402 18.7759 43.9895 18.856 43.9041C18.944 43.8107 19.0588 43.6853 19.2056 43.5278C19.5205 43.1942 19.9636 42.7271 20.5107 42.1533C21.6263 40.9923 23.1556 39.4043 24.8423 37.6482C25.5843 36.8822 26.2969 36.1456 26.9481 35.473L26.9641 35.457H26.9854C28.6775 35.5051 30.1267 35.5478 31.1649 35.5771C31.6694 35.5958 32.075 35.6092 32.3659 35.6198C32.4994 35.6252 32.6035 35.6305 32.6862 35.6358C32.7583 35.6412 32.7956 35.6439 32.7956 35.6465V35.6492Z" fill="#07271D"/>
<path d="M27.5457 38.1875C27.5457 38.1875 28.3597 38.2035 28.624 38.3343C28.8882 38.4677 29.6168 39.2444 29.6168 39.2444C29.6168 39.2444 29.6168 39.7728 29.4059 39.7942C29.4059 39.7942 29.4273 39.8582 29.4486 40.1545C29.47 40.4507 29.5127 40.6189 29.1097 40.8724C29.1097 40.8724 29.1524 41.3582 29.0029 41.4863C28.8562 41.6144 28.6853 41.7185 28.6853 41.7185C28.6853 41.7185 28.6613 42.2549 27.9461 42.2469L27.2735 42.5431C27.2735 42.5431 25.7789 42.4017 25.9364 42.2282C26.0938 42.0521 26.4541 41.1767 26.4541 41.1767C26.4541 41.1767 25.4319 40.432 25.4506 40.1972C25.472 39.965 25.5574 39.9436 25.5574 39.9436C25.5574 39.9436 25.5147 39.5006 25.875 39.4579C25.875 39.4579 26.1499 38.9081 26.4248 38.8868C26.6997 38.8654 28.5599 39.5433 28.5599 39.5433L27.8633 38.9508C27.8633 38.9508 27.1667 38.844 27.1881 38.6119C27.2094 38.3797 27.5484 38.1902 27.5484 38.1902L27.5457 38.1875Z" fill="#FFBF9D"/>
<path d="M27.4228 40.971C27.4068 40.9977 26.9985 40.7628 26.478 40.5119C25.9576 40.261 25.5226 40.0876 25.5332 40.0582C25.5412 40.0315 26.0003 40.157 26.5261 40.4132C27.0518 40.6667 27.4388 40.947 27.4228 40.971Z" fill="#FF9A6C"/>
<path d="M28.3917 40.3216C28.381 40.351 27.8366 40.1748 27.1774 39.9293C26.5182 39.6838 25.9924 39.4622 26.0031 39.4329C26.0137 39.4035 26.5555 39.5797 27.2174 39.8252C27.8766 40.0708 28.4024 40.2923 28.3917 40.3216Z" fill="#FF9A6C"/>
<path d="M15.1595 21.6095C14.9112 20.6834 14.6657 19.7493 14.5776 18.7912C14.4922 17.8357 14.5723 16.8482 14.9513 15.9648C15.01 15.8314 15.4877 14.94 15.6319 14.9613C15.7359 14.9773 15.4237 15.8154 15.4717 15.9088C15.9254 16.7922 16.0082 17.8277 15.8774 18.8125C15.7466 19.7974 15.4957 20.6754 15.1568 21.6095" fill="#07271D"/>
<path d="M15.2529 17.9481C15.2983 15.5407 16.7368 13.5604 19.1442 13.6725L19.3657 13.6965C21.5969 13.9314 23.273 15.8397 23.2196 18.0815C23.1689 20.1686 23.0862 22.4719 22.9554 23.5821C22.6858 25.8774 20.3479 25.9922 20.3479 25.9922C20.3425 25.9922 19.8168 29.5311 19.8168 29.5311L14.9113 26.1229L15.2556 17.9481H15.2529Z" fill="#FFBF9D"/>
<path d="M20.3452 26.0057C20.3452 26.0057 18.888 25.939 17.4468 24.8047C17.4468 24.8047 17.9058 26.769 20.2198 26.8037L20.3452 26.003V26.0057Z" fill="#FF9A6C"/>
<path d="M22.3415 19.9993C22.3282 20.1727 22.1734 20.3062 21.9892 20.2982C21.8078 20.2875 21.669 20.1407 21.6823 19.9672C21.6957 19.7938 21.8505 19.6603 22.0319 19.6683C22.2134 19.6763 22.3522 19.8258 22.3389 19.9993H22.3415Z" fill="#07271D"/>
<path d="M22.6245 18.9815C22.5791 19.0189 22.3496 18.8107 21.9973 18.7733C21.645 18.7333 21.3675 18.8854 21.3328 18.84C21.3167 18.8187 21.3648 18.7466 21.4876 18.6746C21.6077 18.6052 21.8051 18.5438 22.024 18.5678C22.2428 18.5918 22.419 18.6932 22.5177 18.7867C22.6165 18.8827 22.6459 18.9628 22.6245 18.9788V18.9815Z" fill="#07271D"/>
<path d="M19.3202 19.8625C19.3069 20.036 19.1521 20.1695 18.9679 20.1615C18.7864 20.1534 18.6476 20.004 18.661 19.8305C18.6743 19.657 18.8291 19.5236 19.0133 19.5316C19.1948 19.5423 19.3335 19.6891 19.3202 19.8625Z" fill="#07271D"/>
<path d="M19.1522 18.7588C19.1068 18.7962 18.8773 18.588 18.525 18.5507C18.1727 18.5106 17.8951 18.6627 17.8604 18.6174C17.8444 18.596 17.8925 18.524 18.0152 18.4519C18.1353 18.3825 18.3328 18.3211 18.5517 18.3451C18.7705 18.3692 18.9467 18.4706 19.0454 18.564C19.1442 18.6601 19.1735 18.7401 19.1522 18.7562V18.7588Z" fill="#07271D"/>
<path d="M20.1317 21.6071C20.1317 21.5858 20.3559 21.5724 20.7162 21.5644C20.807 21.5644 20.8951 21.5564 20.9164 21.495C20.9458 21.431 20.9164 21.3322 20.8844 21.2201C20.823 20.9933 20.7589 20.7557 20.6895 20.5049C20.4227 19.488 20.2385 18.6553 20.2812 18.6446C20.3212 18.634 20.5721 19.4506 20.839 20.4675C20.9031 20.7184 20.9644 20.9559 21.0205 21.1854C21.0445 21.2922 21.0899 21.415 21.0312 21.5431C20.9991 21.6071 20.9297 21.6498 20.8684 21.6605C20.8096 21.6712 20.7589 21.6685 20.7136 21.6658C20.3533 21.6471 20.1317 21.6258 20.1317 21.6044V21.6071Z" fill="#07271D"/>
<path d="M19.067 21.7412C19.1257 21.7438 19.0857 22.1282 19.3846 22.4351C19.6835 22.742 20.0972 22.742 20.0945 22.7954C20.0972 22.8194 19.9958 22.8594 19.8223 22.8461C19.6515 22.8328 19.4113 22.7527 19.2271 22.5659C19.0456 22.379 18.9816 22.1468 18.9842 21.9867C18.9842 21.8239 19.0403 21.7332 19.0643 21.7385L19.067 21.7412Z" fill="#07271D"/>
<path d="M19.283 17.3248C19.2376 17.4182 18.8906 17.3354 18.4716 17.3408C18.0526 17.3408 17.7056 17.4235 17.6603 17.3328C17.6389 17.2901 17.7083 17.2047 17.8524 17.1273C17.9965 17.0499 18.2181 16.9831 18.4716 16.9805C18.7225 16.9805 18.9467 17.0419 19.0908 17.1193C19.2376 17.1966 19.3043 17.2794 19.2856 17.3248H19.283Z" fill="#07271D"/>
<path d="M22.603 17.7945C22.5336 17.8692 22.2988 17.7598 22.0052 17.7251C21.7143 17.6797 21.4581 17.7224 21.41 17.6317C21.3887 17.589 21.4367 17.5116 21.5541 17.4475C21.6689 17.3835 21.8531 17.3408 22.0532 17.3675C22.2534 17.3941 22.4189 17.4849 22.5123 17.5783C22.6057 17.6717 22.6324 17.7571 22.6003 17.7945H22.603Z" fill="#07271D"/>
<path d="M15.2609 19.6695C15.2236 19.6481 13.7317 19.037 13.6169 20.6116C13.5021 22.1889 15.1088 21.9781 15.1141 21.9327C15.1195 21.8873 15.2636 19.6668 15.2636 19.6668L15.2609 19.6695Z" fill="#FFBF9D"/>
<path d="M14.6738 21.2992C14.6738 21.2992 14.6444 21.3152 14.5964 21.3339C14.5483 21.3526 14.4709 21.3606 14.3909 21.3233C14.2281 21.2512 14.108 20.9763 14.1213 20.6907C14.1267 20.5466 14.1667 20.4132 14.2281 20.3037C14.2841 20.1916 14.3642 20.1169 14.4496 20.1089C14.535 20.0956 14.5911 20.1489 14.6071 20.197C14.6257 20.2423 14.6124 20.2744 14.6204 20.277C14.6257 20.2824 14.6551 20.253 14.6471 20.1863C14.6418 20.1543 14.6284 20.1169 14.5911 20.0822C14.5564 20.0475 14.5003 20.0288 14.4416 20.0315C14.3188 20.0315 14.2014 20.1356 14.1373 20.2557C14.0653 20.3758 14.0172 20.5279 14.0092 20.6881C13.9959 21.0057 14.1373 21.3152 14.3589 21.398C14.4683 21.4353 14.5617 21.4087 14.6124 21.374C14.6631 21.3393 14.6738 21.3046 14.6684 21.3019L14.6738 21.2992Z" fill="#FF9A6C"/>
<path d="M22.3656 15.403C22.6299 15.2776 21.9173 14.4022 21.3087 14.0766C20.388 13.5855 18.9574 13.2279 18.0687 13.42C16.9958 13.6496 16.0884 14.1193 15.4985 15.0427C14.9087 15.9662 14.6392 17.0711 14.5991 18.1653C14.5858 18.499 14.5991 18.8486 14.7593 19.1422C14.9568 19.5051 15.3651 19.7507 15.3171 20.2311C15.2984 20.4072 15.3384 20.586 15.4505 20.7222C15.7201 21.0478 16.091 20.7809 16.2725 20.5033C16.6595 19.9081 16.7449 19.1742 16.8223 18.4669C16.8757 17.9652 16.9291 17.4527 16.8197 16.9617C16.7583 16.6948 16.6515 16.4386 16.6061 16.1663C16.5608 15.8968 16.5875 15.5925 16.7689 15.387C16.7983 15.3523 16.8463 15.3123 16.9051 15.2669C17.3775 14.9039 18.01 14.8265 18.5571 15.0614C19.4245 15.4324 20.9111 16.0009 21.3274 15.7233C21.9253 15.3256 22.0801 15.0534 22.0801 15.0534L22.3736 15.4057L22.3656 15.403Z" fill="#07271D"/>
</g>
<defs>
<clipPath id="clip0_3227_4915">
<rect width="90.7614" height="92.9979" fill="white"/>
</clipPath>
</defs>
</svg>
