<svg xmlns="http://www.w3.org/2000/svg" width="119" height="74" fill="none" viewBox="0 0 119 74"><g clip-path="url(#clip0_3227_4215)"><path fill="#ececec" d="M19.618 70.499c3.944-3.226 4.454-8.651 3.896-13.447-.094-.8-.075-1.652-.519-2.325-.445-.672-1.385-1.08-2.086-.68-.581.33-.786 1.045-1.077 1.646a4.76 4.76 0 0 1-1.758 1.955c-.496.308-1.123.521-1.658.288-.733-.325-.895-1.274-.955-2.072l-.336-4.465c-.06-.798-.126-1.613-.439-2.35-.313-.739-.926-1.394-1.713-1.545-.786-.148-1.7.367-1.8 1.163-.04.33.054.663.06.994.005.333-.123.712-.434.832-.316.12-.658-.08-.917-.294-.9-.737-1.553-1.73-2.166-2.718-.612-.989-1.214-2.003-2.043-2.818-.829-.818-1.935-1.428-3.097-1.396-1.163.031-2.34.837-2.542 1.983-.202 1.148.559 2.237 1.357 3.086a18 18 0 0 0 4.046 3.226c.27.156.561.327.684.615.219.519-.248 1.089-.767 1.308-.587.248-1.245.24-1.87.365-.623.125-1.284.456-1.475 1.063-.265.843.496 1.64 1.222 2.145a15.6 15.6 0 0 0 4.79 2.231c.613.166 1.254.302 1.767.675s.86 1.066.618 1.653c-.245.587-.974.83-1.604.767-.633-.063-1.217-.35-1.83-.522-1.145-.322-2.572-.128-3.208.878-.416.661-.387 1.533-.088 2.257.296.723.829 1.322 1.387 1.872 1.95 1.915 4.366 3.388 7.016 4.057s5.058.713 7.545-.424"/><path fill="#e1e1e1" d="M19.963 74.058c-.333-1.89-.94-4.104-1.86-6.466-.915-2.365-2.138-4.878-3.508-7.46l-1.02-1.909a33 33 0 0 0-1.035-1.832 36 36 0 0 0-2.288-3.254c-.778-1-1.556-1.92-2.288-2.778a53 53 0 0 0-2.103-2.328 28.8 28.8 0 0 0-4.659-3.915 1 1 0 0 0-.094-.057q0 .002.086.068l.26.19c.227.166.56.414.985.742a30 30 0 0 1 3.362 3.032 52 52 0 0 1 2.086 2.333c.73.858 1.502 1.781 2.274 2.781a37 37 0 0 1 2.277 3.246c.362.584.692 1.2 1.028 1.83q.505.94 1.02 1.908c1.368 2.582 2.59 5.087 3.511 7.446.923 2.356 1.539 4.559 1.88 6.44"/><path fill="#e1e1e1" d="M12.51 56.383s.022-.123.045-.348a24 24 0 0 0 .068-.952c.046-.803.074-1.917.103-3.142a58 58 0 0 1 .14-3.138c.03-.401.06-.723.082-.949.023-.222.031-.347.023-.35-.009 0-.032.122-.069.345s-.08.547-.122.946c-.086.8-.148 1.914-.177 3.143a956 956 0 0 1-.068 3.143l-.032.951c-.005.225-.005.35 0 .35z"/><path fill="#e1e1e1" d="M1.958 55.319q0 .002.108.008h.31c.268 0 .659 0 1.137.012.96.02 2.288.097 3.745.245 1.458.15 2.772.344 3.718.515.473.08.855.157 1.12.209l.305.056q.107.02.108.012a.4.4 0 0 0-.103-.037 21 21 0 0 0-1.413-.328 41 41 0 0 0-3.724-.55 39 39 0 0 0-3.756-.21c-.481-.003-.872.01-1.14.025-.122.009-.225.014-.31.023q-.107.008-.108.017zm16.014 12.09s.022-.043.056-.131l.146-.388c.125-.336.293-.826.496-1.436a125 125 0 0 0 1.441-4.798 204 204 0 0 1 1.408-4.804c.19-.599.345-1.092.459-1.448q.076-.24.122-.393.041-.139.034-.14a1 1 0 0 0-.056.131l-.146.388c-.125.336-.293.826-.496 1.436a125 125 0 0 0-1.441 4.798 206 206 0 0 1-1.408 4.804c-.191.599-.345 1.092-.459 1.448q-.076.24-.122.393-.04.138-.035.14M3.795 64.158q.001.002.143.043l.413.097c.373.085.89.202 1.519.348 1.282.293 3.049.723 4.998 1.2 1.952.478 3.721.894 5.01 1.167a74 74 0 0 0 1.526.311l.416.074q.145.026.149.017a1 1 0 0 0-.143-.042q-.157-.038-.413-.097l-1.519-.348a360 360 0 0 1-4.998-1.202 165 165 0 0 0-5.009-1.166 73 73 0 0 0-1.527-.31l-.416-.075q-.145-.025-.149-.017"/><path fill="#ececec" d="M116.992 44.539s-1.333-1.322-3.94 1.98-3.739 5.283-3.739 5.283-.649.672-1.077.063c-.43-.61-.869-2.183-1.821-2.103-.986.08-1.501 1.06-1.627 2.627-.128 1.564-.53 4.984-.57 5.294-.037.302-.296.71-.655.342s-2.22-3.508-3.656-2.536-1.074 5.391-1.043 5.876c.032.484-.1.66-.339.732-.242.071-.766-1.043-1.333-1.915-.564-.872-1.374-1.78-2.157-1.151-.781.63-1.61 3.727.362 9.417l1.085 2.576 2.781.396c6.004.485 8.794-1.09 9.21-2.006.413-.914-.67-1.47-1.656-1.798-.986-.33-2.194-.558-2.185-.812.008-.253.148-.421.624-.513.475-.09 4.847-.846 5.428-2.479.581-1.632-2.924-2.65-3.368-2.903-.448-.257-.117-.607.168-.718.291-.114 3.499-1.362 4.984-1.875 1.484-.516 2.305-1.26 2.134-2.234-.163-.94-1.795-.972-2.493-1.237-.699-.262-.208-1.06-.208-1.06s1.632-1.593 4.18-4.944.886-4.328.886-4.328"/><path fill="#e1e1e1" d="M114.653 47.492q.001.002-.046.071l-.145.203-.57.772c-.496.67-1.225 1.633-2.131 2.818a884 884 0 0 1-7.152 9.204c-2.804 3.581-5.343 6.821-7.186 9.178l-2.169 2.79c-.254.321-.45.575-.593.754l-.156.194q-.054.066-.057.063 0-.002.045-.071l.146-.203.57-.772c.495-.67 1.225-1.632 2.128-2.818 1.81-2.37 4.34-5.625 7.152-9.204 2.804-3.578 5.34-6.821 7.184-9.175l2.168-2.79.593-.755.156-.193q.055-.066.057-.063z"/><path fill="#e1e1e1" d="M106.94 51.988c.02 0 .062.282.105.747.043.464.08 1.105.106 1.812.017.681.034 1.297.048 1.812.011.465.02.75 0 .753-.02 0-.066-.282-.105-.747a44 44 0 0 1-.094-1.812l-.063-1.812c-.014-.465-.023-.753 0-.753zm.501 5.221c-.003-.04 1.314-.185 2.941-.32 1.63-.136 2.952-.213 2.955-.17.003.04-1.314.185-2.944.319-1.627.137-2.952.214-2.955.171zm-4.727 5.498c.006-.02.293.032.758.123.464.088 1.108.21 1.821.325.712.114 1.359.2 1.829.262.47.06.761.1.758.122 0 .02-.296.017-.769-.017a21 21 0 0 1-1.844-.22 22 22 0 0 1-1.818-.367c-.461-.117-.741-.205-.735-.225zm-1.493-4.625c.02-.006.122.245.276.655s.354.98.567 1.616c.214.633.399 1.208.527 1.63.129.422.197.681.177.69-.02.005-.122-.245-.276-.656-.154-.41-.354-.98-.567-1.615a57 57 0 0 1-.527-1.63c-.129-.42-.197-.681-.177-.69m-4.793 4.323c.02-.005.151.316.348.84a114 114 0 0 1 1.442 4.144c.17.536.267.869.247.875-.02.005-.15-.317-.347-.84a107 107 0 0 1-.741-2.067c-.282-.809-.527-1.544-.701-2.08-.171-.536-.268-.869-.248-.875zm2.032 5.705c.003-.02.373.034.966.128.592.091 1.413.22 2.322.339s1.733.214 2.331.276c.598.066.966.109.966.129s-.373.014-.975-.023a36 36 0 0 1-2.342-.234c-.912-.12-1.73-.265-2.32-.385s-.951-.21-.945-.23z"/><path fill="#07271d" d="M123.355 73.623c0 .042-27.255.08-60.867.08s-60.872-.035-60.872-.08c0-.046 27.249-.08 60.872-.08s60.867.034 60.867.08"/><path fill="#16855c" d="m31.748 55.523-8.605-8.643 4.325-7.944c4.326-5.536 13.484-5.18 13.484-5.18s6.232-.602 13.504.815c7.274 1.416 6.687 6.229 6.687 6.229l.975 17.829 1.045 14.517-26.827.542z"/><path fill="#16855c" d="m46.2 72.851-24.029.293c-5.773.072-9.625-5.932-7.154-11.152l10.275-19.054 9.357 6.325-6.383 13.247 19.454.348-1.516 9.99zm14.086-34.949 19.282 29.771-11.25.736S61.6 57.823 61.753 58.042c.274.396-1.467-20.14-1.467-20.14"/><path fill="#07271d" d="M34.165 50.977s.005-.054.025-.154c.029-.114.06-.256.103-.43.088-.373.22-.915.353-1.59.134-.672.28-1.479.377-2.382.09-.9.148-1.903.01-2.935-.153-1.029-.54-1.963-.994-2.741a11 11 0 0 0-1.43-1.926 13 13 0 0 0-1.168-1.129c-.29-.25-.46-.381-.45-.393a1 1 0 0 1 .13.083c.083.06.209.142.357.265.305.236.73.604 1.208 1.102.479.5 1.006 1.14 1.473 1.93.467.786.866 1.735 1.023 2.79.14 1.053.077 2.065-.02 2.971a24 24 0 0 1-.41 2.388 24 24 0 0 1-.53 2.006.6.6 0 0 1-.057.145m-.772 1.028s-.052.156-.166.43c-.114.273-.287.667-.504 1.148a135 135 0 0 1-3.65 7.437 39 39 0 0 1-.602 1.103c-.145.26-.23.399-.239.393-.008-.005.057-.154.188-.421.143-.288.33-.667.559-1.126.481-.972 1.128-2.271 1.843-3.71l1.807-3.727.547-1.128c.131-.265.208-.41.216-.408z"/><path fill="#07271d" d="M46.2 72.853V72.8l.012-.145q.022-.207.057-.567c.057-.507.134-1.228.237-2.137l.866-7.494.068.077c-2.162 0-4.567.003-7.098.006l-12.418-.023-3.764-.023-1.023-.014-.265-.009a.3.3 0 0 1-.09-.008q0-.004.09-.009c.069 0 .157-.006.265-.008l1.023-.015 3.764-.023 12.418-.022c2.53 0 4.936.005 7.098.005h.077l-.008.077c-.377 3.055-.693 5.648-.918 7.489-.117.906-.208 1.627-.273 2.134q-.052.36-.077.564l-.023.145q-.008.049-.012.049z"/><path fill="#07271d" d="M28.435 62.718c-.02.011-.186-.231-.48-.602a9.6 9.6 0 0 0-1.281-1.319 9.5 9.5 0 0 0-1.516-1.043c-.414-.23-.681-.35-.673-.373.006-.017.29.071.721.28.43.207 1.003.55 1.562 1.022.558.473.994.98 1.27 1.368.28.39.41.655.396.664zm34.085 1.884s-.018-.086-.037-.245l-.08-.71a125 125 0 0 1-.248-2.612c-.194-2.209-.419-5.26-.621-8.637-.2-3.377-.34-6.434-.42-8.648-.04-1.109-.068-2.003-.079-2.622q-.008-.45-.011-.712c0-.162 0-.248.005-.248.006 0 .015.086.023.248l.04.712.128 2.622a847 847 0 0 0 .462 8.645 533 533 0 0 0 .778 11.252q.035.449.051.713c.011.162.014.248.009.248z"/><path fill="#e1e1e1" d="M41.069 48.406s.003-.137.031-.39q.051-.408.131-1.078l.496-3.721.111.068-1.843 1.291-1.875 1.305-.134.094.026-.162c.225-1.48.421-2.756.564-3.687q.106-.66.176-1.063c.043-.248.072-.382.08-.38.009 0-.003.137-.031.388-.034.27-.08.63-.134 1.069-.128.934-.308 2.214-.513 3.695l-.111-.068 1.872-1.31c.647-.45 1.27-.887 1.846-1.286l.134-.094-.023.163c-.219 1.487-.407 2.775-.547 3.712l-.17 1.072c-.043.25-.069.384-.078.382zm10.725 1.157s-.105-.091-.279-.274l-.746-.789-2.545-2.758.123-.043-.186 2.243-.196 2.276-.015.165-.108-.122-2.476-2.792q-.436-.507-.707-.815c-.162-.191-.248-.3-.242-.305s.103.09.276.27l.736.787 2.516 2.755-.123.04c.06-.71.123-1.479.188-2.276l.194-2.243.014-.163.108.123c1.006 1.12 1.873 2.089 2.508 2.795q.445.506.715.818c.166.191.251.3.245.305zm5.397-.383s-.062.122-.194.339c-.145.23-.339.541-.575.92l-2.032 3.157-.071-.108c.69-.12 1.439-.248 2.217-.382.79-.134 1.553-.262 2.254-.382l.162-.028-.091.137c-.835 1.242-1.556 2.313-2.08 3.097-.254.365-.459.664-.613.886-.145.205-.225.314-.233.31-.006-.005.062-.122.193-.335l.579-.91 2.037-3.125.071.108c-.7.12-1.461.25-2.25.388-.779.13-1.528.259-2.22.376l-.163.028.091-.137 2.078-3.125q.377-.555.612-.898c.145-.208.225-.32.234-.314zm-7.178 5.52s-.062.122-.193.338c-.146.231-.34.542-.576.92l-2.032 3.158-.07-.108c.689-.12 1.438-.248 2.216-.382.79-.134 1.553-.262 2.254-.382l.162-.029-.09.137c-.836 1.243-1.557 2.314-2.081 3.098-.254.364-.459.663-.613.886-.145.205-.225.313-.233.31-.006-.005.062-.122.194-.336.145-.23.339-.536.578-.909.516-.79 1.22-1.872 2.037-3.126l.072.109c-.701.12-1.462.25-2.251.387-.778.131-1.528.26-2.22.376l-.163.029.092-.137 2.077-3.126q.377-.556.612-.897c.146-.209.226-.32.234-.314zm15.507-5.602s-.063.122-.194.339c-.145.23-.339.541-.575.92l-2.032 3.157-.071-.108c.69-.12 1.439-.248 2.217-.382.789-.134 1.553-.262 2.254-.382l.162-.028-.091.137c-.835 1.242-1.556 2.313-2.08 3.097-.254.365-.46.664-.613.886-.145.205-.225.314-.234.31-.005-.005.063-.122.194-.335l.579-.91 2.037-3.125.071.108c-.7.12-1.462.25-2.25.388-.779.13-1.528.259-2.22.376l-.163.028.091-.137 2.077-3.125q.377-.556.613-.898c.145-.208.225-.32.234-.314zM29.204 44.54s-.063.122-.194.338l-.575.92-2.032 3.158-.071-.109c.69-.12 1.439-.248 2.217-.381l2.253-.382.163-.029-.091.137c-.835 1.242-1.556 2.314-2.08 3.097-.254.365-.46.664-.613.887-.145.205-.225.313-.234.31-.005-.005.063-.122.194-.336.145-.23.34-.536.579-.909l2.037-3.126.071.108-2.251.388c-.778.131-1.527.26-2.22.376l-.162.029.091-.137 2.077-3.126q.377-.555.613-.898c.145-.208.225-.319.234-.313zM17.94 65.844s.1.097.262.29l.695.836c.599.735 1.42 1.743 2.368 2.912l-.125.034c.102-.692.21-1.445.325-2.228.12-.793.233-1.556.336-2.26l.026-.162.1.128c.92 1.18 1.715 2.197 2.296 2.94l.652.858c.151.203.228.314.223.32-.006.005-.097-.098-.26-.288q-.259-.317-.686-.833l-2.337-2.906.126-.034-.331 2.26c-.117.78-.228 1.532-.333 2.225l-.023.162-.1-.128-2.328-2.946-.664-.86c-.15-.203-.23-.314-.225-.32zm25.728-13.792s-.137.025-.388.048q-.41.034-1.083.094l-3.744.28.043-.123 1.641 1.538c.584.55 1.146 1.08 1.661 1.568l.12.114-.162.008-3.725.205c-.444.02-.806.035-1.077.046-.25.009-.387.009-.387 0s.134-.026.385-.048l1.074-.089 3.721-.256-.043.122c-.518-.487-1.082-1.014-1.666-1.564-.573-.541-1.129-1.063-1.636-1.544l-.12-.112.163-.008 3.747-.225c.447-.023.812-.04 1.085-.052.254-.008.39-.011.39 0zm-6.312 14.362s.1.094.268.285l.712.82 2.425 2.867-.125.037c.088-.695.182-1.45.282-2.234l.293-2.265.02-.162.103.128 2.354 2.895c.276.348.501.633.67.843.153.2.233.308.227.314-.005.006-.1-.094-.265-.282l-.7-.818-2.394-2.86.125-.038-.285 2.265c-.102.784-.2 1.536-.288 2.231l-.02.163-.102-.125-2.385-2.901-.678-.846c-.157-.2-.237-.311-.231-.314zM26.07 55.879s-.137.026-.388.051q-.412.034-1.083.094c-.946.072-2.242.168-3.744.28l.043-.123 1.64 1.539c.585.55 1.146 1.08 1.662 1.567l.12.114-.163.008-3.724.206c-.444.02-.806.034-1.077.045-.25.009-.387.009-.387 0s.133-.025.384-.048l1.074-.089 3.722-.256-.043.122-1.667-1.561c-.573-.542-1.128-1.063-1.635-1.545l-.12-.11.162-.01 3.747-.224c.448-.023.813-.04 1.086-.051.254-.01.39-.012.39 0zm9.696 10.209s-.137.025-.387.051q-.412.034-1.083.094l-3.744.28.042-.123c.51.478 1.066 1 1.642 1.538.584.55 1.145 1.08 1.66 1.568l.12.114-.162.008-3.724.205-1.077.046c-.25.008-.388.008-.388 0s.134-.026.385-.049c.27-.022.633-.05 1.074-.088l3.722-.256-.043.122c-.519-.487-1.083-1.014-1.667-1.564-.573-.541-1.129-1.063-1.636-1.544l-.12-.112.163-.008 3.747-.225c.447-.023.812-.04 1.086-.051.253-.01.39-.012.39 0zm21.887-25.973s-.137.026-.388.048l-1.083.095-3.744.279.043-.123 1.641 1.539 1.661 1.567.12.114-.162.009-3.724.205-1.078.046c-.25.008-.387.008-.387 0 0-.01.134-.026.385-.049l1.074-.088c.94-.066 2.228-.154 3.721-.257l-.042.123-1.667-1.562c-.573-.541-1.129-1.063-1.636-1.544l-.12-.111.163-.009 3.747-.225c.447-.023.812-.04 1.085-.051.254-.009.39-.012.39 0z"/><path fill="#ffbf9d" d="M47.004 66.088s4.796-1.382 6.38-1.787c.619-.157 3.266 1.24 5.095 2.4 0 0 2.519 1.493 2.314 1.954-.225.507-1.154.402-2.633-.293 0 0 .516 1.501-.499 1.467 0 0 .505 1.621-.447 1.79-.952.168-1.174-1.901-2.015-2.015-.837-.111-2.573-.225-2.573-.225s-1.444 2.39-2.561 2.559c-1.12.168-3.71-.134-3.71-.134l.647-5.72z"/><path fill="#ff9a6c" d="M55.188 66.42c.023-.034.621.305 1.34.758.717.453 1.282.847 1.259.884-.023.034-.621-.305-1.34-.758-.718-.453-1.282-.847-1.259-.884m-.282.923c.017-.037.73.254 1.59.653.86.396 1.544.749 1.527.786s-.73-.254-1.59-.653c-.86-.396-1.544-.749-1.527-.786m.513 2.233c.006-.04.49-.009 1.083.074.592.08 1.068.18 1.062.22-.005.04-.49.008-1.082-.075-.593-.08-1.069-.18-1.063-.22"/><path fill="#07271d" d="M40.77 16.634a1.01 1.01 0 0 1-.308 1.04 1.01 1.01 0 0 1-1.08.126c-.65-.33-.732-1.226-.604-1.944s.37-1.481.071-2.145c-.23-.507-.73-.83-1.117-1.228-.678-.696-1.037-1.71-.872-2.667.166-.958.884-1.818 1.818-2.078.955-.267 2.132.026 2.841-.664.516-.501.547-1.322.946-1.917.618-.93 1.926-1.074 3.032-.923 1.106.15 2.228.504 3.311.236.903-.225 1.647-.855 2.493-1.242 1.835-.84 4.183-.385 5.571 1.08 1.39 1.464 1.718 3.832.784 5.622-.337.64-.844 1.225-1.514 1.498"/><path fill="#ffbf9d" d="M46.266 40.172a5.495 5.495 0 0 0 5.488-5.568l-.07-5.237s4.399-.442 4.692-4.802c.29-4.36.08-14.418.08-14.418a15.19 15.19 0 0 0-15.341 1.086l-.673.461.328 23.064a5.49 5.49 0 0 0 5.5 5.414z"/><path fill="#07271d" d="M55.3 18.04c-.776-.155-.77-1.155.008-1.297a.3.3 0 0 1 .105 0c.775.153.77 1.154-.008 1.296a.3.3 0 0 1-.106 0m.855-1.389c-.071.071-.482-.282-1.083-.317-.601-.045-1.054.251-1.117.171-.031-.037.046-.168.242-.302.194-.134.522-.253.898-.23.373.025.684.188.858.347.18.16.236.302.2.334zm-6.95.143a.635.635 0 1 1-.725 1.043.635.635 0 0 1 .725-1.043"/><path fill="#07271d" d="M49.6 16.822c-.071.07-.481-.282-1.083-.317-.6-.045-1.054.251-1.117.171-.03-.037.046-.168.243-.302.194-.134.521-.253.897-.23.374.025.684.188.858.347.18.16.236.302.202.333zm2.137 5.088c0-.048.374-.102.983-.154.16-.008.282-.037.3-.122.034-.094-.018-.265-.089-.456-.134-.405-.268-.818-.407-1.248-.562-1.775-.943-3.237-.855-3.265.091-.029.618 1.387 1.18 3.162.13.433.259.847.382 1.254.048.185.145.402.05.658a.42.42 0 0 1-.284.237c-.106.026-.194.02-.27.02-.61-.012-.99-.043-.992-.088z"/><path fill="#fff" d="M49.751 22.469c.77.356 1.687.8 2.901 1.017 0 0-.764 1.083-1.995.553-1.279-.55-.903-1.57-.903-1.57z"/><path fill="#ff9a6c" d="M51.692 29.301s-2.77.074-5.6-1.926c0 0 1.175 3.214 5.549 3.058z"/><path fill="#07271d" d="M56.485 11.247s-2.633 1.339-6.127-.322c-2.29-1.089-4.95-1.59-5.522-1.123-.576.467-.652 2.81-2.886 3.536 0 0 .242 4.46-1.542 4.334-1.784-.125-.804-7.058-.804-7.058l4.312-2.211 4.733-.989 4.487.544 3.482.88-.13 2.409z"/><path fill="#ffbf9d" d="M40.733 16.238c-.072-.037-2.95-1.051-3.018 1.938s2.946 2.439 2.955 2.353c.006-.085.063-4.29.063-4.29"/><path fill="#ff9a6c" d="M39.784 19.379s-.054.034-.142.074a.53.53 0 0 1-.39 0c-.314-.123-.568-.63-.57-1.168 0-.274.06-.53.162-.741.096-.217.242-.365.401-.39a.26.26 0 0 1 .305.15c.037.086.017.143.035.149.008.008.065-.049.042-.174a.34.34 0 0 0-.114-.191.4.4 0 0 0-.285-.083c-.23.012-.441.22-.553.45a1.8 1.8 0 0 0-.199.83c.006.6.302 1.174.73 1.308.207.06.384 0 .478-.069.094-.071.111-.137.1-.142z"/><path fill="#07271d" d="M39.211 6.886c-.017-.035.473-.174 1.037.037.565.208.844.635.81.65-.032.03-.34-.323-.86-.51-.52-.2-.981-.135-.987-.177m1.799-1.792c.05.003-.03.63.073 1.376.103.755.456 1.28.416 1.302-.014.012-.122-.105-.25-.33a2.8 2.8 0 0 1-.314-.95c-.108-.783.043-1.404.071-1.398zm12.278 10.119c-.018-.034.11-.137.353-.236.242-.1.601-.183 1.003-.18.402.006.758.097.997.2.24.102.368.207.35.245-.036.08-.612-.146-1.35-.149-.738-.014-1.32.2-1.353.12m-6.665-.625c-.017-.034.11-.137.353-.236.242-.1.601-.183 1.003-.18.402.006.758.097.997.2.24.102.368.207.35.245-.036.08-.612-.146-1.35-.149-.738-.014-1.32.2-1.353.12m6.149 1.098s.008.066.011.177l.014.482q.008.316.015.749c0 .288.017.624.142.969.12.342.325.695.63.994.308.294.71.539 1.177.647.233.054.478.083.73.063a2.51 2.51 0 0 0 1.975-1.151c.284-.442.412-.958.4-1.46q0-.766.003-1.472l.069.068-3.699-.034-1.074-.02-.29-.009a.4.4 0 0 1-.106-.008c-.006-.006.122-.012.367-.017l1.058-.02 3.744-.035h.068v.069q0 .706.003 1.473a2.7 2.7 0 0 1-.422 1.539c-.316.49-.786.863-1.302 1.048-.256.1-.524.151-.79.163a2.624 2.624 0 0 1-2.644-1.815 2.8 2.8 0 0 1-.125-1.01l.014-.766.015-.475a1 1 0 0 1 .011-.157zm-6.987-.148s.009.065.011.176l.015.482.014.75c0 .287.017.624.142.968.12.342.325.696.63.995.308.293.71.538 1.177.647.233.054.478.082.73.062a2.51 2.51 0 0 0 1.975-1.151c.284-.442.412-.957.4-1.459q-.001-.767.004-1.473l.068.068-3.699-.034-1.074-.02-.29-.008a.4.4 0 0 1-.106-.009 3 3 0 0 1 .368-.017l1.057-.02 3.744-.034h.068v.068q0 .706.003 1.474a2.7 2.7 0 0 1-.422 1.538 2.64 2.64 0 0 1-2.091 1.211 2.624 2.624 0 0 1-2.644-1.815 2.8 2.8 0 0 1-.126-1.009q.01-.44.015-.766l.014-.476a1 1 0 0 1 .011-.157z"/><path fill="#07271d" d="M52.834 15.894c0 .04-.441.075-.983.075-.541 0-.983-.035-.983-.075s.442-.074.983-.074c.542 0 .983.034.983.074m-12.497.041c0-.04 1.22-.077 2.724-.083 1.504-.005 2.724.026 2.724.066s-1.22.077-2.724.082-2.724-.025-2.724-.065m30.594 33.241-9.457 23.39H44.417v1.055h50.8l10.389-24.445z"/><path fill="#fafafa" d="M85.39 62.985c-.343 1.177-1.34 1.92-2.229 1.664-.889-.259-1.33-1.422-.989-2.598.342-1.177 1.34-1.92 2.229-1.665.889.26 1.33 1.422.988 2.6"/><path fill="#f5f5f5" d="m85.72 6.92-5.917 21.674 15.292 3.794 5.917-21.673z"/><path fill="#fff" d="m82.478 9.117-6.23 21.895 14.98 3.574 6.23-21.895z"/><path fill="#e1e1e1" d="m91.22 34.608.028-.108.085-.312.332-1.2 1.26-4.51c1.088-3.861 2.63-9.339 4.453-15.818l.044.081c-4.507-1.075-9.594-2.29-14.961-3.573l.09-.057-6.234 21.93-.04-.074 10.855 2.63 3.018.738.796.199c.179.046.275.074.275.074l-.266-.054q-.274-.065-.788-.182c-.698-.164-1.716-.402-3.014-.704-2.615-.619-6.364-1.503-10.908-2.576l-.056-.011.016-.063 6.207-21.935.019-.074.072.015c5.366 1.287 10.452 2.507 14.956 3.584l.064.013-.018.068-4.527 15.848-1.29 4.485-.345 1.183q-.06.194-.09.302-.03.1-.031.098z"/><path fill="#e1e1e1" d="M90.269 16.293c-.01.044-1.717-.36-3.812-.905s-3.782-1.025-3.769-1.068c.01-.045 1.717.36 3.812.905 2.092.544 3.782 1.025 3.769 1.068m3.621 2.927c-.01.044-2.637-.6-5.86-1.441-3.226-.842-5.83-1.558-5.82-1.606.011-.047 2.637.6 5.863 1.442s5.83 1.558 5.82 1.606zm-.504 1.94c-.01.044-2.637-.6-5.86-1.441-3.226-.842-5.83-1.558-5.82-1.606.01-.044 2.637.6 5.863 1.442s5.83 1.558 5.82 1.606zm-.506 1.942c-.011.044-2.638-.6-5.861-1.442-3.226-.842-5.83-1.558-5.82-1.605.01-.045 2.637.6 5.863 1.442s5.83 1.558 5.82 1.605zm-.505 1.938c-.01.043-2.637-.601-5.86-1.442-3.226-.842-5.83-1.558-5.82-1.606.01-.044 2.637.6 5.863 1.442s5.83 1.558 5.82 1.606zm-.506 1.937c-.01.044-2.637-.6-5.86-1.442-3.227-.842-5.831-1.558-5.82-1.605.01-.045 2.637.6 5.863 1.442s5.83 1.558 5.82 1.605zm-.504 1.941c-.01.044-2.637-.6-5.86-1.441-3.227-.843-5.831-1.559-5.82-1.606.01-.044 2.637.6 5.863 1.442s5.83 1.558 5.82 1.606zm-5.915.528c-.01.044-1.425-.285-3.159-.736-1.734-.45-3.13-.851-3.118-.899.01-.044 1.425.285 3.159.736 1.734.45 3.13.851 3.119.899"/></g><defs><clipPath id="clip0_3227_4215"><path fill="#fff" d="M0 0h119v74H0z"/></clipPath></defs></svg>